<svg width="88" height="64" viewBox="0 0 88 64" fill="none" xmlns="http://www.w3.org/2000/svg">
<path d="M76.6999 49.858L79.3883 49.5647C79.649 49.5647 79.8771 49.7114 80.0726 50.0047C80.2681 50.2979 80.3659 50.6075 80.3659 50.9334C80.3659 51.2593 80.2518 52.3672 80.0237 54.2573C79.8282 56.1473 79.7305 57.6463 79.7305 58.7543C79.7305 59.8296 79.8282 60.3673 80.0237 60.3673C80.5777 60.3347 81.3435 59.6504 82.3211 58.3143C83.2987 56.9457 84.26 55.2023 85.2051 53.0841C86.1827 50.966 86.7692 49.9069 86.9648 49.9069C87.1929 49.9069 87.3069 50.0372 87.3069 50.2979C87.3069 51.2104 86.8344 52.6605 85.8894 54.6483C83.315 60.1229 81.148 62.8602 79.3883 62.8602C78.1174 62.8602 77.1561 62.5995 76.5043 62.0781C76.2762 61.85 76.1622 60.4325 76.1622 57.8255C76.1622 55.2186 76.4392 52.9864 76.9932 51.1289C75.1031 51.1289 73.7833 50.5261 73.0338 49.3203C72.6428 48.7012 72.4473 48.0006 72.4473 47.2185C72.4473 46.4364 72.6102 45.7521 72.9361 45.1655C73.2619 44.5789 73.7182 44.2856 74.3047 44.2856C74.9239 44.2856 75.4779 44.6115 75.9667 45.2633C76.4881 45.8824 76.7487 46.583 76.7487 47.3651C76.7487 48.1472 76.5206 48.9293 76.0644 49.7114C76.1948 49.8091 76.4066 49.858 76.6999 49.858Z" fill="white"/>
<path d="M64.0884 62.8602C62.2635 62.8602 60.8134 62.1758 59.7381 60.8072C58.6627 59.4059 58.125 57.8255 58.125 56.0658C58.125 52.5138 58.8745 49.8254 60.3735 48.0005C61.8725 46.1756 63.8114 45.2632 66.1903 45.2632C67.2982 45.2632 68.2107 45.5728 68.9276 46.1919C69.6445 46.7785 70.003 47.5932 70.003 48.6359C70.003 50.5912 69.172 52.2368 67.51 53.5729C65.8807 54.8763 63.8766 55.5607 61.4978 55.6258C61.6281 56.8967 62.0517 58.0047 62.7686 58.9497C63.5181 59.8622 64.3817 60.3184 65.3593 60.3184C66.3369 60.3184 67.2168 60.0903 67.9989 59.634C68.7809 59.1778 69.4979 58.5261 70.1496 57.6788C71.5182 55.8865 72.6914 53.8499 73.669 51.5688C73.9297 50.9822 74.1252 50.5586 74.2556 50.2979C74.4185 50.0372 74.5814 49.9068 74.7444 49.9068C74.9399 49.9068 75.0376 50.0372 75.0376 50.2979C75.0376 51.9272 74.0437 54.3712 72.0559 57.6299C69.9052 61.1167 67.2494 62.8602 64.0884 62.8602ZM61.4978 54.4527C63.4204 54.1268 64.8216 53.5077 65.7015 52.5953C66.6139 51.6828 67.0701 50.4934 67.0701 49.027C67.0701 47.5606 66.5976 46.8274 65.6526 46.8274C64.512 46.8274 63.5507 47.6257 62.7686 49.2225C61.9866 50.7867 61.5629 52.5301 61.4978 54.4527Z" fill="white"/>
<path d="M49.7481 45.7516C51.2471 45.7516 52.4854 46.3056 53.463 47.4136C54.4406 48.4889 54.9457 50.0042 54.9783 51.9594C56.3143 51.5684 57.4875 51.0959 58.4977 50.5419C59.5405 49.9879 60.0944 49.7109 60.1596 49.7109C60.3551 49.7109 60.4529 49.8739 60.4529 50.1997C60.4529 50.5256 59.9804 51.0307 59.0354 51.715C58.1229 52.3994 56.738 53.0837 54.8805 53.768C54.4895 56.6683 53.3163 58.9168 51.3611 60.5135C49.4059 62.0777 47.4507 62.8598 45.4955 62.8598C43.5403 62.8598 42.2368 62.1429 41.585 60.7091C40.9333 59.2426 40.6074 56.9453 40.6074 53.8169C40.6074 50.6886 40.8355 47.7231 41.2917 44.9207C41.748 42.1182 42.3345 39.9186 43.0514 38.3218C43.7684 36.6924 44.5016 35.4541 45.2511 34.6069C46.0332 33.727 46.7664 33.2871 47.4507 33.2871C47.7766 33.2871 48.0698 33.6782 48.3305 34.4602C48.6238 35.2423 48.7705 36.2036 48.7705 37.3442C48.7705 39.8534 48.3142 42.7862 47.4018 46.1427C48.021 45.882 48.803 45.7516 49.7481 45.7516ZM51.9477 54.5501C51.687 54.5827 51.133 54.599 50.2858 54.599C49.4711 54.599 48.5586 54.322 47.5484 53.768C46.5708 53.1815 45.9028 52.3831 45.5444 51.3729C45.2185 52.1876 44.8437 52.9696 44.4201 53.7191C44.4853 56.1958 44.6808 57.9717 45.0067 59.0471C45.3325 60.1225 45.8539 60.6602 46.5708 60.6602C47.7114 60.6602 48.8193 60.1877 49.8947 59.2426C51.0027 58.265 51.687 56.7008 51.9477 54.5501ZM47.5973 38.224C47.5973 36.8554 47.4181 36.1711 47.0596 36.1711C46.7664 36.1711 46.4079 36.888 45.9843 38.3218C45.5932 39.723 45.2185 41.6457 44.86 44.0897C44.5342 46.5011 44.3712 48.8963 44.3712 51.2751C46.522 45.1814 47.5973 40.831 47.5973 38.224ZM48.966 47.5113C48.5098 47.5113 48.135 47.658 47.8417 47.9512C47.581 48.2119 47.4507 48.5704 47.4507 49.0266C47.4507 50.0368 47.8906 50.8841 48.7705 51.5684C49.6829 52.2201 50.7746 52.546 52.0455 52.546C52.0129 51.2099 51.7522 50.0368 51.2634 49.0266C50.7746 48.0164 50.0088 47.5113 48.966 47.5113Z" fill="white"/>
<path d="M38.1023 52.0092C39.4058 51.5856 40.3019 51.2271 40.7907 50.9338C41.3121 50.608 41.7032 50.3636 41.9639 50.2006L42.5504 49.8585C42.7134 49.7607 42.8437 49.7118 42.9415 49.7118C43.2022 49.7118 43.3325 49.8585 43.3325 50.1518C43.3325 50.445 42.8274 50.9664 41.8172 51.7159C40.807 52.4328 39.5524 53.0846 38.0534 53.6711C37.8253 56.4085 36.9618 58.6244 35.4628 60.3189C33.9638 62.0134 31.8293 62.8607 29.0594 62.8607C27.039 62.8607 25.4912 62.0623 24.4158 60.4655C23.3404 58.8362 22.8027 56.9461 22.8027 54.7954C22.8027 52.6121 23.4382 50.5591 24.7091 48.6365C26.0126 46.7138 27.6745 45.7525 29.6949 45.7525C30.6073 45.1008 31.6827 44.7749 32.921 44.7749C34.1919 44.7749 35.365 45.4429 36.4404 46.779C37.5158 48.1151 38.0697 49.8585 38.1023 52.0092ZM34.9251 54.5021L33.1654 54.5999C31.6664 54.5999 30.3955 54.16 29.3527 53.2801C28.3099 52.3677 27.7885 51.3738 27.7885 50.2984C27.7885 49.223 27.9678 48.2943 28.3262 47.5122C26.925 48.6202 26.2244 50.8035 26.2244 54.0622C26.2244 55.6264 26.5502 57.1254 27.202 58.5592C27.8537 59.9604 28.8802 60.6611 30.2814 60.6611C31.6827 60.6611 32.7743 60.0745 33.5564 58.9014C34.3385 57.6956 34.7947 56.2292 34.9251 54.5021ZM31.8945 46.388C31.3731 46.388 30.9658 46.6324 30.6725 47.1212C30.3792 47.5774 30.2326 48.0825 30.2326 48.6365C30.2326 49.8422 30.6399 50.8198 31.4546 51.5693C32.3018 52.3188 33.2794 52.6935 34.3874 52.6935H34.974C34.9088 51.0968 34.6318 49.6467 34.143 48.3432C33.6868 47.0397 32.9373 46.388 31.8945 46.388Z" fill="white"/>
<path d="M15.6906 40.1802L15.935 38.9093C15.8047 37.1496 14.6153 36.2698 12.3668 36.2698C11.0633 36.2698 9.92274 36.7423 8.94513 37.6873C8.0001 38.5997 7.52759 39.5774 7.52759 40.6201C7.52759 41.6303 7.95122 42.5265 8.79848 43.3086C9.67833 44.0581 10.7211 44.7424 11.9268 45.3615C13.1651 45.9481 14.3872 46.5998 15.5929 47.3168C16.8312 48.0011 17.874 48.8972 18.7212 50.0052C19.6011 51.1131 20.041 52.3677 20.041 53.769C20.041 56.6692 18.9004 58.9503 16.6194 60.6122C14.3383 62.2742 11.878 63.1052 9.23841 63.1052C6.59886 63.1052 4.39924 62.6326 2.63955 61.6876C0.879848 60.71 0 59.2436 0 57.2884C0 56.2456 0.358457 55.3006 1.07537 54.4533C1.79228 53.606 2.81877 53.1824 4.15484 53.1824C4.67623 53.1824 5.14874 53.3291 5.57237 53.6223C5.996 53.9156 6.2567 54.3067 6.35446 54.7955C6.35446 55.2843 6.06118 55.5287 5.47461 55.5287C4.36666 55.5287 3.81268 56.0012 3.81268 56.9462C3.84526 58.0216 4.35036 58.9992 5.32797 59.879C6.33817 60.7589 7.73941 61.1988 9.53169 61.1988C11.3566 61.1988 12.9044 60.5797 14.1753 59.3414C15.4788 58.1031 16.1306 56.604 16.1306 54.8444C16.1306 53.6712 15.6906 52.6121 14.8108 51.6671C13.9309 50.7221 12.8719 49.9237 11.6336 49.272C10.3952 48.5877 9.14065 47.9033 7.86976 47.219C6.63145 46.5347 5.57237 45.7037 4.69253 44.7261C3.81268 43.7485 3.37275 42.6405 3.37275 41.4022C3.37275 39.2189 4.30148 37.4755 6.15894 36.172C8.04898 34.8685 10.1834 34.2168 12.5623 34.2168C14.159 34.2168 15.6092 34.5427 16.9126 35.1944C18.2161 35.8461 18.8842 36.84 18.9167 38.1761C18.9167 38.9582 18.7212 39.6099 18.3302 40.1313C17.9391 40.6527 17.4014 40.9134 16.7171 40.9134C16.0654 40.9134 15.7232 40.669 15.6906 40.1802Z" fill="white"/>
<path d="M59.582 24.1469L59.8753 18.6723C59.8753 15.1855 60.0382 13.2791 60.3641 12.9532C60.69 12.6274 61.2603 12.1549 62.0749 11.5357C62.9222 10.884 63.5251 10.5581 63.8835 10.5581C64.2746 10.5581 64.519 10.6233 64.6167 10.7536C64.7145 10.884 64.7634 11.1447 64.7634 11.5357C64.7634 12.937 64.4538 14.3545 63.8346 15.7883C63.3458 18.7863 63.1014 21.2466 63.1014 23.1693C63.1014 25.0919 63.3295 26.0532 63.7858 26.0532C64.5678 26.0532 65.464 25.3689 66.4742 24.0002C67.517 22.599 68.576 20.546 69.6514 17.8413C69.684 17.1244 69.7166 16.3749 69.7492 15.5928C69.7818 14.7781 69.8143 14.1916 69.8469 13.8331C69.8795 13.4421 69.8958 13.1651 69.8958 13.0021C69.9284 12.8392 70.3846 12.3993 71.2645 11.6824C72.1443 10.9329 72.8123 10.5581 73.2686 10.5581C73.7574 10.5581 74.0018 11.1773 74.0018 12.4156C74.0018 12.7414 73.904 13.3769 73.7085 14.3219C73.5456 15.2669 73.35 15.9513 73.1219 16.3749C72.8612 18.6886 72.682 20.7089 72.5842 22.4361C75.7778 18.3953 77.4723 16.2608 77.6678 16.0327C77.8959 15.8046 78.0914 15.6906 78.2544 15.6906C78.5802 15.6906 78.7432 15.8535 78.7432 16.1794C78.7432 16.3749 78.678 16.5867 78.5476 16.8148C77.5049 18.3464 75.4519 21.0348 72.3887 24.8801C72.1932 28.7579 72.0628 31.3975 71.9977 32.7987C71.8347 36.9373 71.2482 39.8375 70.238 41.4994C69.2604 43.194 67.5007 44.0412 64.9589 44.0412C63.8509 44.0412 62.8081 43.6991 61.8305 43.0147C60.8855 42.363 60.413 41.2062 60.413 39.5442C60.413 37.9149 61.0322 36.2366 62.2705 34.5095C63.5414 32.7824 65.8387 30.1266 69.1626 26.542L69.4559 21.214C68.3479 23.6581 67.2563 25.5155 66.1809 26.7864C65.1055 28.0247 63.9161 28.6439 62.6126 28.6439C61.3091 28.6439 60.4782 28.318 60.1197 27.6663C59.7613 27.0145 59.582 25.8414 59.582 24.1469ZM69.016 28.8394C65.301 32.8476 63.4436 36.0574 63.4436 38.4689C63.4436 39.5768 63.6391 40.4892 64.0302 41.2062C64.4212 41.9231 64.9589 42.2815 65.6432 42.2815C66.686 42.2815 67.4192 41.7113 67.8428 40.5707C68.2665 39.4302 68.576 37.1165 68.7716 33.6297L69.016 28.8394Z" fill="white"/>
<path d="M54.6046 28.6434C53.3337 28.6434 52.3723 28.3827 51.7206 27.8613C51.4925 27.6332 51.3784 27.0629 51.3784 26.1504C51.3784 25.2054 51.411 23.9508 51.4762 22.3867C50.6289 24.5048 49.7817 26.0853 48.9344 27.1281C48.1197 28.1383 47.0607 28.6434 45.7572 28.6434C44.4537 28.6434 43.3132 28.0405 42.3356 26.8348C41.3579 25.5965 40.8691 23.6738 40.8691 21.0669C40.8691 18.4273 41.6023 16.0974 43.0688 14.077C44.5678 12.0566 46.523 11.0464 48.9344 11.0464C49.9772 11.0464 51.1503 11.7307 52.4538 13.0994C52.7145 12.7409 53.1707 12.3173 53.8225 11.8285C54.5068 11.3071 55.0771 11.0464 55.5333 11.0464C56.0221 11.0464 56.2665 11.6655 56.2665 12.9038C56.2665 13.2297 56.1687 13.8652 55.9732 14.8102C55.8103 15.7552 55.6147 16.4395 55.3866 16.8632C55.0934 17.6127 54.9467 20.2685 54.9467 24.8307C54.9467 25.7105 55.0445 26.1504 55.24 26.1504C55.794 26.1179 56.5598 25.4335 57.5374 24.0975C58.515 22.7288 59.4763 20.9854 60.4213 18.8673C61.3989 16.7491 61.9855 15.69 62.181 15.69C62.4091 15.69 62.5232 15.8204 62.5232 16.0811C62.5232 16.9935 62.0507 18.4436 61.1057 20.4314C58.5313 25.906 56.3642 28.6434 54.6046 28.6434ZM48.6411 13.0016C47.7287 13.0016 46.7511 13.6859 45.7083 15.0546C44.6981 16.3907 44.193 17.9711 44.193 19.796C44.193 21.6209 44.4537 23.1199 44.9751 24.293C45.5291 25.4661 46.246 26.0527 47.1258 26.0527C48.2012 26.0527 49.7817 23.3643 51.8672 17.9874C51.8998 17.7267 51.9324 17.2868 51.965 16.6676C52.0302 16.0159 52.0791 15.5271 52.1116 15.2012C51.8184 14.6798 51.297 14.191 50.5475 13.7348C49.8306 13.246 49.1951 13.0016 48.6411 13.0016Z" fill="white"/>
<path d="M41.9875 20.4325C39.4131 25.9071 37.2298 28.6444 35.4375 28.6444C33.6778 28.6444 32.635 28.4326 32.3092 28.009C32.0159 27.5854 31.8692 26.1841 31.8692 23.8053C31.8692 21.4264 32.0973 17.9885 32.5536 13.4915C30.9242 13.1656 30.0607 12.4976 29.9629 11.4874C29.9629 10.966 30.3051 10.7053 30.9894 10.7053C31.6737 10.7053 32.2766 10.8357 32.798 11.0964C33.0912 8.75009 33.4334 6.37124 33.8244 3.95981C33.9222 3.34065 34.2318 2.75409 34.7532 2.20011C35.2746 1.64613 35.7797 1.36914 36.2685 1.36914C36.6921 1.36914 36.9039 2.03717 36.9039 3.37324C36.9039 3.99239 36.6758 6.84375 36.2196 11.9273C37.0994 11.7644 38.0608 11.4385 39.1035 10.9497C40.1789 10.4609 40.8144 10.2165 41.0099 10.2165C41.5964 10.2165 41.8897 10.3957 41.8897 10.7542C41.9223 11.0801 41.3195 11.5363 40.0811 12.1228C38.8428 12.6768 37.5068 13.1005 36.0729 13.3937C35.6819 18.1514 35.4864 21.7523 35.4864 24.1963C35.4864 25.4998 35.6819 26.1515 36.0729 26.1515C36.6595 26.1189 37.4416 25.4346 38.4192 24.0986C39.3968 22.7625 40.3581 21.0354 41.3032 18.9172C42.2808 16.7665 42.8673 15.6911 43.0629 15.6911C43.291 15.6911 43.405 15.8215 43.405 16.0822C43.405 16.9946 42.9325 18.4447 41.9875 20.4325Z" fill="white"/>
<path d="M23.925 5.96342L24.1694 4.69253C24.0391 2.93283 22.8496 2.05298 20.6011 2.05298C19.2977 2.05298 18.1571 2.52549 17.1795 3.47051C16.2345 4.38295 15.762 5.36056 15.762 6.40334C15.762 7.41354 16.1856 8.30968 17.0329 9.09177C17.9127 9.84127 18.9555 10.5256 20.1612 11.1447C21.3995 11.7313 22.6215 12.3831 23.8272 13.1C25.0655 13.7843 26.1083 14.6804 26.9556 15.7884C27.8354 16.8963 28.2754 18.1509 28.2754 19.5522C28.2754 22.4524 27.1348 24.7335 24.8537 26.3955C22.5726 28.0574 20.1123 28.8884 17.4728 28.8884C14.8332 28.8884 12.6336 28.4158 10.8739 27.4708C9.11422 26.4932 8.23438 25.0268 8.23438 23.0716C8.23438 22.0288 8.59283 21.0838 9.30974 20.2365C10.0267 19.3893 11.0531 18.9656 12.3892 18.9656C12.9106 18.9656 13.3831 19.1123 13.8067 19.4055C14.2304 19.6988 14.4911 20.0899 14.5888 20.5787C14.5888 21.0675 14.2956 21.3119 13.709 21.3119C12.601 21.3119 12.0471 21.7844 12.0471 22.7294C12.0796 23.8048 12.5847 24.7824 13.5623 25.6622C14.5725 26.5421 15.9738 26.982 17.7661 26.982C19.5909 26.982 21.1388 26.3629 22.4097 25.1246C23.7132 23.8863 24.3649 22.3873 24.3649 20.6276C24.3649 19.4544 23.925 18.3953 23.0452 17.4503C22.1653 16.5053 21.1062 15.7069 19.8679 15.0552C18.6296 14.3709 17.375 13.6865 16.1041 13.0022C14.8658 12.3179 13.8067 11.4869 12.9269 10.5093C12.0471 9.53169 11.6071 8.42373 11.6071 7.18543C11.6071 5.0021 12.5359 3.2587 14.3933 1.95522C16.2834 0.65174 18.4178 0 20.7967 0C22.3934 0 23.8435 0.325869 25.147 0.977608C26.4505 1.62935 27.1185 2.62325 27.1511 3.95932C27.1511 4.74141 26.9556 5.39315 26.5645 5.91454C26.1735 6.43593 25.6358 6.69662 24.9515 6.69662C24.2998 6.69662 23.9576 6.45222 23.925 5.96342Z" fill="white"/>
</svg>
