<svg width="369" height="185" viewBox="0 0 369 185" fill="none" xmlns="http://www.w3.org/2000/svg">
<g clip-path="url(#clip0_2678_636)">
<path d="M113.247 184.267C119.85 184.267 125.455 179.584 126.837 173.134C132.442 146.492 156.013 126.53 184.267 126.53C212.521 126.53 236.169 146.492 241.697 173.134C243.079 179.584 248.684 184.267 255.287 184.267H368.534C368.534 82.6899 285.844 0 184.267 0C82.6899 0 0 82.6131 0 184.267H113.247Z" fill="url(#paint0_linear_2678_636)"/>
<path d="M106.721 184.268C116.626 184.268 125.225 177.742 128.066 168.298C135.359 144.19 157.779 126.608 184.267 126.608C210.755 126.608 233.175 144.19 240.468 168.298C243.309 177.742 251.985 184.268 261.813 184.268H353.025C358.937 184.268 363.697 179.277 363.313 173.366C357.632 79.3125 279.625 4.83789 184.19 4.83789C88.7552 4.83789 10.8256 79.3125 5.14401 173.289C4.76012 179.201 9.52036 184.191 15.4323 184.191H106.721V184.268Z" fill="white"/>
<path d="M97.7611 39.5627C97.643 39.2396 97.6436 38.9498 97.7628 38.6934C97.8821 38.4369 98.1032 38.2496 98.4263 38.1315L102.146 36.7725C102.229 36.8359 102.314 36.9284 102.401 37.0499C102.495 37.1687 102.57 37.3033 102.625 37.4535C102.729 37.7391 102.739 37.9653 102.655 38.1322C102.579 38.2963 102.44 38.4155 102.237 38.4896L99.8584 39.3586L100.241 40.4068L102.777 39.4802C102.86 39.5436 102.945 39.6361 103.032 39.7576C103.124 39.8689 103.197 39.9997 103.252 40.15C103.356 40.4355 103.37 40.6603 103.294 40.8245C103.218 40.9886 103.078 41.1078 102.875 41.1819L100.801 41.9397L101.234 43.1232L104.131 42.0648C104.213 42.1282 104.298 42.2207 104.385 42.3422C104.48 42.461 104.555 42.5955 104.609 42.7458C104.714 43.0313 104.725 43.2613 104.644 43.4357C104.568 43.5999 104.428 43.719 104.226 43.7932L100.934 44.9957C100.611 45.1137 100.321 45.1132 100.065 44.9939C99.8085 44.8747 99.6212 44.6536 99.5031 44.3305L97.7611 39.5627Z" fill="#DADADA"/>
<path d="M99.0388 44.372C99.1518 44.5928 99.1964 44.7766 99.1728 44.9236C99.1491 45.0705 99.0773 45.2375 98.9574 45.4247C98.8869 45.5327 98.7914 45.6535 98.671 45.787C98.547 45.9134 98.4051 46.0399 98.2453 46.1667C98.0891 46.3005 97.9168 46.4292 97.7283 46.5526C97.547 46.6724 97.3602 46.7815 97.1679 46.8799C96.6552 47.1423 96.1399 47.3207 95.6219 47.415C95.1004 47.5022 94.6012 47.4926 94.1243 47.3862C93.651 47.269 93.2106 47.0496 92.8033 46.7278C92.3959 46.4061 92.0501 45.9675 91.7658 45.412C91.4669 44.828 91.3096 44.266 91.2937 43.7259C91.285 43.1821 91.3787 42.6804 91.5747 42.2205C91.7742 41.75 92.0583 41.3305 92.4269 40.962C92.8027 40.59 93.2255 40.2837 93.6956 40.0431C94.3721 39.6968 94.9627 39.5338 95.4674 39.5541C95.9755 39.5636 96.3189 39.7429 96.4975 40.0918C96.5923 40.277 96.628 40.4609 96.6047 40.6436C96.5813 40.8263 96.5292 40.9878 96.4482 41.1281C96.2155 41.1124 95.9383 41.1239 95.6167 41.1628C95.2985 41.1908 94.9721 41.2905 94.6374 41.4618C94.0392 41.768 93.6495 42.1831 93.4684 42.7072C93.2944 43.2276 93.3624 43.7905 93.6722 44.3958C93.8398 44.7234 94.0319 44.9845 94.2484 45.1793C94.4684 45.3633 94.7004 45.4917 94.9444 45.5645C95.1847 45.6302 95.4318 45.6476 95.6855 45.6165C95.9356 45.5784 96.1817 45.4974 96.4238 45.3735C96.5805 45.2933 96.7121 45.2079 96.8186 45.1175C96.925 45.027 97.0012 44.9476 97.0471 44.8792L96.5331 43.8751L95.3902 44.4601C95.3073 44.4036 95.2118 44.3222 95.1034 44.2159C95.0022 44.106 94.9151 43.9798 94.8422 43.8374C94.711 43.581 94.6732 43.3667 94.7288 43.1944C94.7916 43.0185 94.9155 42.8832 95.1007 42.7884L96.906 41.8644C97.1196 41.755 97.3144 41.7317 97.4903 41.7945C97.6697 41.8465 97.814 41.9793 97.9234 42.1929L99.0388 44.372Z" fill="#DADADA"/>
<path d="M85.2965 45.6405C85.3629 45.4973 85.4874 45.3187 85.6701 45.1048C85.8594 44.8862 86.0691 44.6973 86.2994 44.538C86.6283 44.3104 86.9519 44.1594 87.2702 44.0851C87.5905 43.9997 87.8574 44.0339 88.0709 44.1878C88.426 44.448 88.8297 44.7572 89.2819 45.1155C89.7341 45.4739 90.1978 45.8487 90.6728 46.2399C91.1432 46.6245 91.6081 47.0082 92.0674 47.3908C92.5222 47.7669 92.9241 48.1017 93.2731 48.3952C93.2579 48.5419 93.1896 48.6962 93.0681 48.8581C92.9512 49.0266 92.7842 49.1859 92.5671 49.3361C92.4092 49.4454 92.2652 49.5255 92.1352 49.5766C92.0117 49.6231 91.8956 49.6451 91.7868 49.6425C91.6846 49.6354 91.5809 49.605 91.4757 49.5514C91.377 49.4932 91.2725 49.4195 91.1623 49.3305L90.5135 48.7725L88.7274 50.0083C88.8113 50.2421 88.8998 50.4825 88.9928 50.7294C89.0859 50.9763 89.1744 51.2167 89.2583 51.4505C89.1889 51.5471 89.1085 51.6417 89.0169 51.7342C88.9364 51.8288 88.8238 51.9262 88.6791 52.0264C88.3436 52.2585 88.0549 52.3756 87.813 52.3775C87.5732 52.3684 87.3827 52.2618 87.2416 52.0579C87.1779 51.9658 87.1273 51.8646 87.0899 51.7543C87.0525 51.6439 87.007 51.5149 86.9534 51.3672C86.8765 51.1577 86.7865 50.894 86.6834 50.5763C86.5868 50.2539 86.4832 49.9073 86.3725 49.5364C86.2572 49.1589 86.144 48.7703 86.0328 48.3706C85.9216 47.9709 85.8174 47.5954 85.7204 47.2442C85.6188 46.8865 85.5301 46.5685 85.4542 46.2902C85.385 46.0073 85.3324 45.7908 85.2965 45.6405ZM87.3615 46.0941C87.4606 46.4341 87.5693 46.8162 87.6876 47.2402C87.8079 47.6531 87.9426 48.0657 88.0918 48.4781L89.3154 47.6315C88.9775 47.3399 88.6431 47.0606 88.3123 46.7933C87.9835 46.515 87.6863 46.2682 87.4207 46.0531L87.3615 46.0941Z" fill="#DADADA"/>
<path d="M82.62 54.2698L84.1532 55.9896C84.1034 56.0661 84.0149 56.1772 83.8876 56.3228C83.7662 56.4632 83.6368 56.5946 83.4995 56.717C83.3621 56.8395 83.229 56.9366 83.1003 57.0086C82.9828 57.0812 82.8642 57.1225 82.7447 57.1327C82.6311 57.1375 82.5138 57.1081 82.3928 57.0445C82.2718 56.9808 82.142 56.8714 82.0036 56.7161L78.2427 52.4971C78.1309 52.3717 78.0786 52.2469 78.0857 52.1226C78.0935 51.9871 78.1385 51.8452 78.2206 51.6969C78.3598 51.4442 78.5504 51.1832 78.7926 50.9138C79.0293 50.6384 79.3 50.365 79.6046 50.0935C80.4287 49.3589 81.2041 48.9784 81.9309 48.9522C82.6577 48.9259 83.2846 49.2083 83.8116 49.7996C84.1416 50.1698 84.3282 50.5715 84.3714 51.0046C84.4145 51.4377 84.3685 51.843 84.2336 52.2206C84.7094 52.3215 85.1662 52.4073 85.6042 52.4777C86.0421 52.5482 86.4139 52.6347 86.7197 52.7373C86.8463 52.9995 86.8795 53.2592 86.8194 53.5164C86.76 53.7623 86.6317 53.9731 86.4347 54.1488C86.3033 54.2659 86.1765 54.3521 86.0543 54.4074C85.9322 54.4627 85.8113 54.4955 85.6917 54.5056C85.5722 54.5157 85.4479 54.5086 85.319 54.4842C85.1901 54.4598 85.0588 54.4268 84.9252 54.3851L83.0948 53.8465L82.62 54.2698ZM82.1224 52.5753C82.3493 52.373 82.4779 52.1566 82.5081 51.926C82.533 51.6895 82.4443 51.4577 82.2421 51.2308C82.0398 51.0039 81.8134 50.9002 81.563 50.9199C81.3132 50.9282 81.03 51.0734 80.7135 51.3555C80.6239 51.4354 80.5549 51.5023 80.5065 51.5561C80.4581 51.61 80.4064 51.6722 80.3513 51.7427L81.5491 53.0864L82.1224 52.5753Z" fill="#DADADA"/>
<path d="M73.3273 57.243C73.0877 56.9962 72.9699 56.7314 72.9741 56.4486C72.9782 56.1658 73.1037 55.9045 73.3505 55.6649L76.1916 52.9063C76.293 52.9304 76.4083 52.9802 76.5373 53.0556C76.6721 53.1255 76.7952 53.2178 76.9066 53.3326C77.1184 53.5507 77.2201 53.7531 77.2117 53.9396C77.209 54.1206 77.1302 54.2864 76.9752 54.4368L75.1587 56.2007L75.9361 57.0013L77.8732 55.1205C77.9747 55.1446 78.0899 55.1944 78.2189 55.2698C78.3481 55.3339 78.4684 55.4234 78.5799 55.5382C78.7917 55.7563 78.8962 55.9559 78.8935 56.1369C78.8909 56.3179 78.8121 56.4836 78.6571 56.6341L77.073 58.1722L77.9507 59.0762L80.1633 56.9278C80.2648 56.9519 80.38 57.0017 80.5091 57.0771C80.6438 57.147 80.7669 57.2393 80.8784 57.3541C81.0901 57.5722 81.1946 57.7774 81.1918 57.9698C81.1891 58.1508 81.1103 58.3165 80.9553 58.467L78.4414 60.9079C78.1946 61.1476 77.9298 61.2653 77.647 61.2611C77.3642 61.257 77.103 61.1315 76.8634 60.8847L73.3273 57.243Z" fill="#DADADA"/>
<path d="M75.6593 64.2329C75.6639 64.3803 75.6189 64.5701 75.5245 64.8022C75.4351 65.028 75.3026 65.25 75.127 65.4681C74.9162 65.7298 74.6982 65.924 74.4729 66.0508C74.2414 66.1725 74.0295 66.2124 73.8373 66.1706C73.6387 66.1237 73.3872 66.0598 73.0826 65.9789C72.7718 65.893 72.431 65.7932 72.0603 65.6796C71.6946 65.5598 71.3083 65.4336 70.9014 65.3011C70.4933 65.1574 70.0846 65.0081 69.6753 64.8531C69.266 64.6982 68.8679 64.542 68.4811 64.3846C68.0943 64.2272 67.7362 64.0724 67.4068 63.9202C67.3898 63.7627 67.4123 63.5754 67.4742 63.3582C67.5348 63.1297 67.6404 62.9221 67.791 62.7351C67.9766 62.5046 68.177 62.3578 68.3921 62.2947C68.6059 62.2204 68.8713 62.2544 69.1882 62.3965C69.9344 62.72 70.6555 63.0233 71.3518 63.3066C72.0469 63.5787 72.7719 63.8646 73.5268 64.1643L73.572 64.1082C73.1217 63.4684 72.621 62.7828 72.0698 62.0514C71.5236 61.3138 70.973 60.588 70.4181 59.8741C70.4523 59.7168 70.5009 59.5608 70.5638 59.4061C70.6318 59.2451 70.731 59.0836 70.8615 58.9216C71.0471 58.691 71.2581 58.5374 71.4945 58.4607C71.7246 58.379 71.9581 58.4334 72.1949 58.6241C72.332 58.7344 72.5038 58.9293 72.7103 59.2085C72.9218 59.4816 73.1501 59.804 73.395 60.1758C73.6388 60.5364 73.8856 60.9251 74.1354 61.342C74.3902 61.7526 74.6239 62.1512 74.8363 62.538C75.0475 62.9134 75.2295 63.2551 75.3822 63.5629C75.5287 63.8657 75.6211 64.0891 75.6593 64.2329Z" fill="#DADADA"/>
<path d="M64.289 68.6596C64.2912 68.5018 64.3321 68.288 64.4118 68.0181C64.4955 67.7414 64.6101 67.4834 64.7554 67.2441C64.963 66.9022 65.197 66.6324 65.4573 66.4348C65.715 66.2263 65.9726 66.1487 66.2303 66.2022C66.6606 66.295 67.1553 66.4129 67.7143 66.5557C68.2733 66.6986 68.8495 66.8519 69.4427 67.0155C70.0291 67.175 70.6099 67.3358 71.1853 67.498C71.7539 67.656 72.2574 67.7979 72.6957 67.9237C72.7417 68.0639 72.7422 68.2326 72.6972 68.43C72.6591 68.6314 72.5716 68.845 72.4345 69.0707C72.3349 69.2348 72.2361 69.3667 72.1382 69.4663C72.0444 69.5591 71.9473 69.6265 71.8469 69.6685C71.7507 69.7037 71.6436 69.7182 71.5257 69.7121C71.4118 69.6992 71.2864 69.6745 71.1494 69.6381L70.3296 69.393L69.2023 71.2496C69.3743 71.4289 69.553 71.6123 69.7386 71.7999C69.9243 71.9874 70.103 72.1709 70.275 72.3501C70.251 72.4666 70.2161 72.5858 70.1702 72.7077C70.1353 72.8268 70.0721 72.9617 69.9808 73.1121C69.769 73.4608 69.5531 73.6854 69.3331 73.7858C69.1104 73.8752 68.893 73.8555 68.681 73.7268C68.5853 73.6687 68.4979 73.5969 68.4187 73.5114C68.3396 73.4259 68.2454 73.3266 68.1363 73.2136C67.9807 73.0536 67.7911 72.8495 67.5674 72.6014C67.3478 72.3464 67.1119 72.0722 66.8596 71.7786C66.6005 71.4809 66.3387 71.1722 66.0742 70.8525C65.8097 70.5328 65.5616 70.2324 65.3298 69.9513C65.0912 69.6661 64.8805 69.4118 64.6979 69.1886C64.5193 68.9585 64.3831 68.7822 64.289 68.6596ZM66.3596 68.2321C66.5887 68.5022 66.8436 68.8068 67.1245 69.1457C67.4027 69.4737 67.6939 69.7956 67.9982 70.1114L68.7704 68.8395C68.343 68.711 67.9238 68.5922 67.5128 68.483C67.0991 68.3629 66.7271 68.2587 66.3969 68.1705L66.3596 68.2321Z" fill="#DADADA"/>
<path d="M172.091 21.5005C171.815 21.5055 171.645 21.5302 171.412 21.5983C170.965 21.6281 170.582 21.614 170.324 21.5126C170.067 21.4107 169.935 21.2215 169.886 20.882C169.881 20.6049 169.919 20.3915 170.127 20.1534C170.317 20.0216 170.676 19.8657 171.123 19.8359C171.739 19.7819 171.972 19.7139 172.526 19.7032C173.036 19.6295 173.356 19.6876 173.595 19.896C173.833 20.1043 173.945 20.4005 173.974 20.8476C174.039 22.0176 173.758 22.9601 173.114 23.7815C172.469 24.603 171.562 25.046 170.435 25.1737C169.309 25.3013 168.304 25.0647 167.438 24.3568C166.573 23.6489 166.023 22.7227 165.871 21.4259C165.612 20.1105 165.868 18.998 166.576 18.1326C167.283 17.2678 168.273 16.6739 169.677 16.5407C170.569 16.4817 171.337 16.5093 172.002 16.7955C172.668 17.0811 172.994 17.4156 173.068 17.9251C173.136 18.1583 172.991 18.3525 172.845 18.5473C172.7 18.7415 172.511 18.8727 172.297 18.8344C172.127 18.8586 171.762 18.7381 171.247 18.5347C170.732 18.3314 170.198 18.235 169.751 18.2648C169.072 18.3627 168.587 18.6059 168.213 19.1458C167.903 19.6413 167.787 20.2825 167.866 21.0691C167.945 21.8558 168.276 22.4667 168.708 22.821C169.185 23.2377 169.656 23.378 170.273 23.324C170.783 23.2503 171.142 23.0943 171.433 22.7054C171.981 22.4182 172.165 22.01 172.091 21.5005Z" fill="#212121" fill-opacity="0.2"/>
<path d="M174.668 20.3653C174.516 19.0691 174.879 17.9756 175.63 17.174C176.338 16.3086 177.415 15.8408 178.692 15.7954C179.97 15.7499 181.063 16.1128 181.908 16.9276C182.71 17.6794 183.115 18.8005 183.116 20.0145C183.099 21.3348 182.756 22.3213 182.004 23.1235C181.252 23.9258 180.301 24.3057 179.068 24.4142C177.898 24.4789 176.912 24.1352 176.11 23.3835C175.244 22.6762 174.82 21.6615 174.668 20.3653ZM176.839 20.2603C176.917 21.0469 177.141 21.6392 177.511 22.0368C177.924 22.4975 178.439 22.7008 179.056 22.6468C179.673 22.5923 180.158 22.3491 180.512 21.9162C180.865 21.4837 181.045 20.7986 181.009 20.0755C180.994 19.245 180.77 18.6527 180.356 18.192C179.943 17.7314 179.428 17.5281 178.768 17.519C178.107 17.5104 177.622 17.7536 177.248 18.2936C176.938 18.789 176.76 19.4737 176.839 20.2603Z" fill="#212121" fill-opacity="0.2"/>
<path d="M183.778 20.0238C183.796 18.7028 184.202 17.6731 184.998 16.9339C185.793 16.1947 186.915 15.79 188.172 15.8515C189.493 15.8692 190.503 16.3828 191.287 17.241C192.069 18.0998 192.323 19.1386 192.199 20.4398C192.074 21.7417 191.624 22.7084 190.828 23.4476C190.033 24.1868 189.038 24.5036 187.824 24.5052C186.566 24.4436 185.643 24.0567 184.904 23.261C184.121 22.4028 183.76 21.3447 183.778 20.0238ZM185.866 20.0697C185.838 20.8371 185.999 21.4728 186.412 21.9335C186.763 22.4381 187.278 22.6413 187.875 22.6938C188.472 22.7468 188.958 22.5031 189.418 22.0898C189.835 21.6136 190.039 21.0983 190.13 20.2876C190.158 19.5201 190.06 18.8405 189.646 18.3798C189.296 17.8753 188.781 17.672 188.183 17.6196C187.523 17.6105 186.995 17.7905 186.577 18.2674C186.117 18.6807 185.894 19.3022 185.866 20.0697Z" fill="#212121" fill-opacity="0.2"/>
<path d="M196.623 16.7148C197.22 16.7673 197.691 16.9076 198.055 17.0287C198.463 17.2128 198.828 17.3334 199.11 17.6048C199.65 17.9782 200.044 18.5458 200.249 19.2446C200.516 19.9 200.507 20.5605 200.435 21.2649C200.204 22.5469 199.71 23.4506 198.871 24.1267C198.032 24.8029 197.056 25.0128 195.817 24.8448C195.113 24.7727 194.793 24.7146 194.088 24.643C193.598 24.6097 193.297 24.4447 193.102 24.2994C192.971 24.1102 192.859 23.814 192.892 23.3236C193.084 21.041 193.232 19.9098 193.424 17.6271C193.457 17.1367 193.578 16.7725 193.83 16.5974C194.083 16.4217 194.423 16.3728 194.913 16.4061C195.705 16.6044 196.025 16.6624 196.623 16.7148ZM194.931 23.03C195.252 23.0874 195.422 23.0632 195.805 23.0773C196.554 23.212 197.189 23.051 197.587 22.6811C197.985 22.3119 198.314 21.7095 198.406 20.898C198.54 20.1504 198.423 19.5777 198.01 19.1165C197.64 18.7189 197.081 18.4525 196.271 18.3612C195.95 18.3037 195.78 18.3279 195.397 18.3137C195.219 20.213 195.152 21.1938 194.931 23.03Z" fill="#212121" fill-opacity="0.2"/>
<path d="M255.618 38.6144C255.803 35.8802 255.923 34.5603 256.012 31.8799C256.033 31.8058 256.053 31.7317 256.073 31.6576C256.093 31.5835 256.113 31.5094 256.153 31.3612C256.288 31.159 256.422 30.9569 256.684 30.8689C256.948 30.7811 257.17 30.8413 257.466 30.9216C257.668 31.0559 257.796 31.1703 257.83 31.3386C257.864 31.5068 257.952 31.7693 257.872 32.0658C257.72 34.093 257.626 35.0222 257.401 37.0294C258.807 35.6604 259.546 34.9858 260.931 33.6908C261.16 33.4347 261.422 33.3467 261.611 33.2388C261.779 33.2047 262.002 33.2651 262.224 33.3253C262.5 33.4798 262.702 33.6141 262.716 33.8565C262.824 34.0451 262.764 34.2673 262.609 34.5436C262.589 34.6177 262.475 34.7458 262.455 34.8198C262.36 34.8738 262.32 35.022 262.227 35.0762C260.182 36.7491 259.139 37.6597 257.168 39.3528C256.96 39.535 256.771 39.643 256.584 39.7511C256.415 39.7849 256.193 39.7247 255.971 39.6645C255.768 39.53 255.64 39.4158 255.586 39.3216C255.647 39.0993 255.632 38.8568 255.618 38.6144Z" fill="#212121" fill-opacity="0.2"/>
<path d="M266.793 35.8364C267.218 36.0312 267.454 36.3338 267.635 36.5421C267.724 36.8048 267.738 37.0472 267.603 37.2494C267.449 37.5257 267.261 37.6338 267.018 37.6475C266.776 37.6614 266.405 37.5609 266 37.292C265.448 36.9832 265.172 36.8287 264.619 36.5198C264.33 36.9983 264.176 37.2748 263.941 37.8475C264.419 38.1362 264.642 38.1967 265.12 38.4854C265.545 38.6801 265.801 38.9087 265.889 39.171C265.977 39.4336 265.991 39.6761 265.856 39.8782C265.702 40.1545 265.514 40.2627 265.271 40.2763C265.029 40.2902 264.658 40.1897 264.253 39.9209C263.775 39.6321 263.573 39.4978 263.074 39.2829C262.766 39.8358 262.611 40.112 262.322 40.5904C262.874 40.8993 263.151 41.054 263.704 41.3629C264.128 41.5574 264.385 41.7861 264.472 42.0485C264.561 42.3111 264.574 42.5534 264.44 42.7558C264.285 43.032 264.097 43.14 263.855 43.1538C263.612 43.1677 263.242 43.0672 262.911 42.8186C262.156 42.3751 261.732 42.1806 260.977 41.7372C260.552 41.5424 260.296 41.314 260.209 41.0515C260.12 40.789 260.201 40.4926 260.395 40.0681C261.496 38.0597 262.001 37.0827 263.102 35.0742C263.296 34.6497 263.599 34.4135 263.862 34.3258C264.124 34.2377 264.495 34.3382 264.899 34.6071C265.614 35.1985 265.964 35.373 266.793 35.8364Z" fill="#212121" fill-opacity="0.2"/>
<path d="M268.136 42.3262C267.712 43.0068 267.539 43.3574 267.115 44.038C266.847 44.4425 266.638 44.6246 266.43 44.8068C266.167 44.8946 265.924 44.9085 265.648 44.7541C265.372 44.5996 265.189 44.3909 265.176 44.1488C265.162 43.9063 265.263 43.5358 265.437 43.1855C266.593 41.2712 267.116 40.2199 268.271 38.3057C268.54 37.9014 268.768 37.6451 269.031 37.5573C269.294 37.4692 269.664 37.5697 270.069 37.8386C270.621 38.1475 270.898 38.3019 271.376 38.5906C272.26 39.1485 272.826 39.6998 273.109 40.413C273.393 41.1264 273.287 41.8135 272.863 42.4941C272.575 42.9728 272.158 43.337 271.653 43.4388C271.147 43.5404 270.589 43.5481 270.017 43.3133C270.186 44.1548 270.288 44.6596 270.457 45.5011C270.545 45.7634 270.559 46.0059 270.499 46.2282C270.438 46.4505 270.398 46.5987 270.358 46.747C270.223 46.9491 270.035 47.0572 269.772 47.145C269.53 47.159 269.288 47.1729 269.085 47.0383C268.958 46.9242 268.829 46.8097 268.796 46.6417C268.688 46.4531 268.673 46.2107 268.586 45.9483C268.429 44.4737 268.387 43.7466 268.136 42.3262ZM268.808 41.3151C269.085 41.4696 269.286 41.6039 269.563 41.7583C269.913 41.933 270.209 42.0133 270.452 41.9994C270.695 41.9857 270.977 41.8236 271.131 41.5473C271.286 41.271 271.346 41.0487 271.258 40.7862C271.171 40.5237 270.988 40.3151 270.637 40.1405C270.287 39.9659 270.159 39.8519 269.809 39.6772C269.406 40.284 269.231 40.6343 268.808 41.3151Z" fill="#212121" fill-opacity="0.2"/>
<path d="M278.151 43.5301C278.414 43.4423 278.676 43.3542 278.898 43.4144C279.141 43.4008 279.289 43.4409 279.418 43.5552C279.619 43.6895 279.728 43.8781 279.741 44.1202C279.755 44.3627 279.789 44.5311 279.655 44.7332C279.52 44.9354 279.238 45.0975 278.807 45.2193C278.807 45.2193 278.807 45.2193 278.733 45.1991C277.494 45.6589 276.875 45.8889 275.637 46.3486C275.079 47.2316 274.717 47.69 274.159 48.5731C273.89 48.9774 273.681 49.1594 273.419 49.2474C273.157 49.3355 272.934 49.275 272.658 49.1206C272.381 48.9661 272.294 48.7038 272.28 48.4614C272.266 48.2188 272.366 47.8483 272.616 47.5181C273.173 46.6351 273.461 46.1565 274.093 45.2936C274.044 44.0075 274.003 43.2804 273.879 41.9741C273.852 41.4894 273.858 41.1729 273.993 40.9708C274.127 40.7685 274.315 40.6604 274.557 40.6465C274.8 40.6328 275.022 40.693 275.224 40.8273C275.353 40.9417 275.481 41.0561 275.515 41.2242C275.623 41.4128 275.637 41.6552 275.63 41.9715C275.686 42.9413 275.713 43.4259 275.748 44.4696C276.745 44.0238 277.196 43.8279 278.151 43.5301Z" fill="#212121" fill-opacity="0.2"/>
<path d="M285.218 53.6354C285.009 53.4545 284.866 53.3592 284.647 53.2545C284.295 52.9784 284.018 52.7119 283.894 52.4642C283.771 52.2167 283.799 51.9882 283.989 51.7024C284.171 51.4929 284.341 51.3595 284.656 51.3213C284.885 51.3499 285.256 51.4737 285.609 51.7498C286.104 52.1211 286.322 52.2258 286.742 52.5876C287.171 52.8732 287.37 53.1304 287.409 53.4446C287.447 53.7589 287.333 54.0541 287.056 54.4064C286.323 55.3208 285.485 55.8351 284.456 56.0162C283.428 56.1974 282.457 55.9214 281.533 55.2645C280.609 54.6075 280.019 53.76 279.847 52.6553C279.676 51.5507 279.884 50.4936 280.637 49.4269C281.322 48.2744 282.256 47.6173 283.361 47.4456C284.465 47.274 285.598 47.4929 286.732 48.3308C287.436 48.883 287.989 49.4162 288.293 50.0732C288.598 50.7303 288.618 51.197 288.332 51.6255C288.227 51.8446 287.99 51.8922 287.751 51.9398C287.513 51.9875 287.285 51.959 287.151 51.7875C287.009 51.6925 286.818 51.3591 286.57 50.8639C286.322 50.3688 285.989 49.9403 285.636 49.6642C285.065 49.2834 284.542 49.1406 283.903 49.293C283.342 49.4551 282.827 49.855 282.361 50.4931C281.894 51.1312 281.733 51.8075 281.818 52.3598C281.895 52.9883 282.152 53.4073 282.647 53.7786C283.076 54.0643 283.447 54.188 283.924 54.0928C284.523 54.245 284.933 54.064 285.218 53.6354Z" fill="#212121" fill-opacity="0.2"/>
<path d="M287.894 54.5106C288.646 53.4439 289.647 52.8724 290.741 52.7769C291.846 52.6054 292.96 52.9766 293.942 53.7954C294.923 54.6143 295.494 55.6142 295.58 56.7854C295.675 57.8805 295.228 58.9853 294.418 59.8901C293.524 60.8617 292.609 61.3665 291.514 61.4619C290.419 61.5573 289.457 61.2051 288.466 60.4624C287.552 59.7293 287.048 58.8152 286.953 57.7202C286.78 56.6154 287.142 55.5774 287.894 54.5106ZM289.581 55.8818C289.114 56.5199 288.885 57.1103 288.895 57.6531C288.895 58.2722 289.143 58.7672 289.637 59.1385C290.133 59.51 290.657 59.6526 291.21 59.567C291.761 59.4811 292.352 59.0907 292.808 58.5285C293.352 57.9 293.58 57.3096 293.58 56.6906C293.58 56.0716 293.332 55.5764 292.847 55.1289C292.361 54.6813 291.837 54.5386 291.198 54.691C290.637 54.853 290.047 55.2437 289.581 55.8818Z" fill="#212121" fill-opacity="0.2"/>
<path d="M294.904 60.3387C295.8 59.3672 296.79 58.8718 297.875 58.8527C298.961 58.8334 300.066 59.2809 300.961 60.1664C301.933 61.0614 302.342 62.1184 302.352 63.2802C302.362 64.442 301.857 65.3848 300.896 66.2707C299.934 67.1565 298.953 67.5757 297.867 67.5949C296.782 67.614 295.829 67.1857 294.925 66.3764C294.029 65.4909 293.6 64.5862 293.582 63.5006C293.571 62.3387 294.009 61.3101 294.904 60.3387ZM296.428 61.7669C295.895 62.3193 295.59 62.9003 295.591 63.5193C295.515 64.1288 295.762 64.6239 296.172 65.062C296.581 65.4999 297.105 65.6428 297.724 65.6426C298.352 65.5664 298.848 65.3186 299.457 64.7757C299.99 64.2233 300.371 63.6519 300.371 63.0328C300.447 62.4233 300.199 61.9282 299.789 61.4902C299.304 61.0427 298.79 60.8238 298.161 60.9C297.542 60.9002 296.962 61.2145 296.428 61.7669Z" fill="#212121" fill-opacity="0.2"/>
<path d="M306.676 66.451C307.086 66.889 307.343 67.308 307.533 67.6412C307.714 68.0507 307.905 68.384 307.934 68.7745C308.086 69.4125 308 70.0982 307.687 70.7553C307.448 71.4219 307.001 71.9077 306.477 72.3839C305.448 73.184 304.478 73.5271 303.401 73.4701C302.325 73.4131 301.459 72.9181 300.648 71.9658C300.173 71.4422 299.973 71.1851 299.496 70.6614C299.153 70.309 299.039 69.9853 298.992 69.7472C299.02 69.5187 299.135 69.2234 299.487 68.8806C301.153 67.309 302.019 66.566 303.685 64.9944C304.038 64.6515 304.371 64.461 304.675 64.499C304.981 64.5372 305.267 64.7276 305.61 65.0799C306.066 65.7559 306.266 66.0129 306.676 66.451ZM301.2 70.023C301.401 70.2801 301.543 70.3753 301.819 70.6418C302.287 71.2419 302.867 71.5464 303.411 71.5369C303.953 71.5273 304.601 71.2986 305.21 70.7557C305.81 70.289 306.105 69.7841 306.105 69.1652C306.096 68.6224 305.858 68.051 305.315 67.4417C305.114 67.1845 304.972 67.0894 304.696 66.8227C303.295 68.1181 302.591 68.8039 301.2 70.023Z" fill="#212121" fill-opacity="0.2"/>
<path d="M336.781 103.793C337.012 104.177 337.089 104.561 337.012 104.868C337.012 105.175 336.858 105.328 336.551 105.482C336.321 105.635 336.014 105.559 335.783 105.482C335.553 105.328 335.323 105.021 335.169 104.637C334.862 104.1 334.785 103.793 334.478 103.179C333.941 103.409 333.71 103.562 333.173 103.87C333.403 104.33 333.557 104.637 333.787 105.098C334.017 105.482 334.094 105.866 334.017 106.096C334.017 106.326 333.864 106.557 333.557 106.71C333.326 106.864 333.019 106.864 332.789 106.71C332.559 106.557 332.328 106.326 332.175 105.866C331.944 105.405 331.791 105.175 331.561 104.637C331.023 104.944 330.716 105.021 330.179 105.328C330.486 105.866 330.639 106.173 330.87 106.787C331.1 107.171 331.177 107.555 331.1 107.785C331.1 108.016 330.946 108.246 330.639 108.399C330.409 108.553 330.102 108.553 329.871 108.399C329.641 108.246 329.411 108.016 329.257 107.555C328.873 106.787 328.643 106.403 328.259 105.559C328.029 105.098 327.952 104.791 328.029 104.561C328.106 104.33 328.336 104.1 328.72 103.87C330.716 102.795 331.791 102.334 333.787 101.259C334.248 101.029 334.555 100.952 334.862 101.029C335.092 101.106 335.399 101.413 335.63 101.873C336.167 102.641 336.398 103.025 336.781 103.793Z" fill="#212121" fill-opacity="0.2"/>
<path d="M331.484 110.242C331.177 110.165 330.947 110.088 330.793 110.012C330.639 109.935 330.486 109.781 330.409 109.628C330.332 109.397 330.332 109.244 330.409 109.014C330.486 108.783 330.639 108.63 330.793 108.553C330.87 108.476 331.023 108.476 331.177 108.476C331.33 108.476 331.561 108.476 331.791 108.553C333.173 108.783 333.787 108.937 335.169 109.244C335.707 108.323 335.937 107.862 336.398 106.941C336.551 106.71 336.628 106.48 336.705 106.403C336.782 106.326 336.935 106.25 337.012 106.173C337.242 106.096 337.473 106.096 337.703 106.173C337.933 106.25 338.087 106.48 338.24 106.71C338.317 106.864 338.317 107.017 338.317 107.248C338.317 107.478 338.164 107.708 338.01 107.939C337.626 108.63 337.396 109.014 337.012 109.705C337.78 109.858 338.24 110.012 339.008 110.165C339.315 110.242 339.546 110.319 339.699 110.472C339.853 110.549 340.006 110.703 340.083 110.856C340.16 111.087 340.16 111.24 340.083 111.47C340.006 111.701 339.853 111.854 339.699 111.931C339.469 112.008 339.162 112.008 338.701 111.931C337.703 111.701 337.166 111.547 336.167 111.317C335.476 112.545 335.093 113.16 334.402 114.311C334.402 114.311 334.402 114.388 334.325 114.388C334.094 114.772 333.864 115.002 333.634 115.079C333.403 115.156 333.25 115.156 333.02 115.079C332.789 115.002 332.636 114.849 332.559 114.618C332.482 114.465 332.482 114.311 332.482 114.081C332.482 113.927 332.636 113.697 332.789 113.39C333.403 112.392 333.634 111.931 334.248 110.933C333.096 110.549 332.559 110.396 331.484 110.242Z" fill="#212121" fill-opacity="0.2"/>
<path d="M334.325 118.995C333.864 117.843 333.864 116.845 334.325 115.847C334.786 114.849 335.553 114.081 336.782 113.621C337.934 113.16 339.085 113.083 340.083 113.544C341.158 114.005 341.926 114.772 342.387 115.924C342.617 116.615 342.771 117.229 342.694 117.767C342.617 118.304 342.463 118.688 342.08 118.765C341.849 118.842 341.619 118.842 341.465 118.765C341.235 118.688 341.081 118.534 341.005 118.304C340.928 118.151 340.928 117.92 340.851 117.536C340.774 117.152 340.774 116.845 340.621 116.615C340.39 116.001 340.007 115.617 339.392 115.463C338.855 115.31 338.164 115.31 337.473 115.617C336.782 115.924 336.321 116.308 336.014 116.845C335.784 117.383 335.707 117.92 335.937 118.534C336.014 118.842 336.244 119.072 336.475 119.379C336.782 119.686 336.935 119.916 336.935 119.993C337.012 120.147 337.012 120.377 336.859 120.607C336.782 120.838 336.628 120.915 336.398 120.991C336.014 121.145 335.63 120.991 335.17 120.607C334.939 120.224 334.555 119.686 334.325 118.995Z" fill="#212121" fill-opacity="0.2"/>
<path d="M344.613 122.526C344.766 122.987 344.843 123.294 344.766 123.601C344.69 123.831 344.536 124.062 344.229 124.138C343.922 124.215 343.692 124.215 343.538 123.985C343.308 123.831 343.154 123.524 343.001 123.063C342.77 122.449 342.693 122.142 342.463 121.605C341.926 121.835 341.619 121.912 341.081 122.065C341.235 122.603 341.388 122.833 341.542 123.371C341.695 123.831 341.772 124.138 341.695 124.446C341.619 124.676 341.465 124.906 341.158 124.983C340.851 125.06 340.62 125.06 340.467 124.906C340.237 124.753 340.083 124.445 339.929 123.985C339.776 123.447 339.699 123.217 339.469 122.756C338.855 122.987 338.624 123.064 338.01 123.294C338.24 123.908 338.317 124.215 338.547 124.829C338.701 125.29 338.701 125.597 338.701 125.827C338.624 126.058 338.471 126.288 338.164 126.365C337.856 126.442 337.626 126.442 337.473 126.288C337.242 126.135 337.089 125.827 336.935 125.444C336.628 124.599 336.474 124.215 336.167 123.371C336.014 122.91 335.937 122.603 336.091 122.372C336.167 122.142 336.474 121.989 336.858 121.758C339.008 120.99 340.083 120.53 342.233 119.762C342.693 119.608 343.077 119.532 343.308 119.685C343.538 119.839 343.768 120.146 343.922 120.607C344.152 121.298 344.306 121.681 344.613 122.526Z" fill="#212121" fill-opacity="0.2"/>
<path d="M346.806 131.674C347.267 131.521 347.574 131.521 347.804 131.597C348.035 131.674 348.265 131.904 348.342 132.212C348.419 132.519 348.419 132.826 348.265 133.056C348.111 133.286 347.804 133.44 347.42 133.594C345.424 134.208 344.426 134.515 342.43 135.206C342.66 135.82 342.737 136.127 342.891 136.741C343.044 137.202 343.044 137.509 342.967 137.74C342.891 137.97 342.737 138.123 342.43 138.277C342.123 138.354 341.892 138.354 341.739 138.123C341.509 137.97 341.355 137.663 341.278 137.202C341.048 136.358 340.894 135.974 340.587 135.129C340.434 134.668 340.434 134.361 340.51 134.131C340.587 133.901 340.894 133.747 341.278 133.594C343.505 132.749 344.656 132.365 346.806 131.674Z" fill="#212121" fill-opacity="0.2"/>
<path d="M344.806 126.127C345.267 125.974 345.574 125.974 345.804 126.05C346.035 126.127 346.265 126.358 346.342 126.665C346.419 126.972 346.419 127.279 346.265 127.509C346.111 127.74 345.804 127.893 345.42 128.047C343.424 128.661 342.426 128.968 340.43 129.659C340.66 130.273 340.737 130.58 340.891 131.195C341.044 131.655 341.044 131.962 340.967 132.193C340.891 132.423 340.737 132.577 340.43 132.73C340.123 132.807 339.892 132.807 339.739 132.577C339.509 132.423 339.355 132.116 339.278 131.655C339.048 130.811 338.894 130.427 338.587 129.582C338.434 129.122 338.434 128.814 338.51 128.584C338.587 128.354 338.894 128.2 339.278 128.047C341.505 127.202 342.656 126.818 344.806 126.127Z" fill="#212121" fill-opacity="0.2"/>
<path d="M350.645 140.119C350.799 140.58 350.799 140.964 350.722 141.194C350.645 141.425 350.492 141.655 350.185 141.732C349.877 141.808 349.647 141.732 349.494 141.578C349.263 141.425 349.11 141.041 349.033 140.657C348.879 140.043 348.803 139.735 348.649 139.121C348.112 139.275 347.804 139.351 347.267 139.505C347.421 140.043 347.497 140.273 347.651 140.81C347.804 141.271 347.804 141.578 347.728 141.885C347.651 142.116 347.497 142.269 347.19 142.346C346.883 142.423 346.653 142.346 346.499 142.192C346.269 142.039 346.115 141.732 346.038 141.271C345.885 140.734 345.808 140.503 345.655 139.966C345.04 140.119 344.733 140.196 344.196 140.35C344.349 140.964 344.426 141.271 344.657 141.885C344.81 142.346 344.81 142.653 344.733 142.96C344.657 143.19 344.503 143.344 344.196 143.421C343.889 143.498 343.658 143.421 343.505 143.267C343.275 143.114 343.121 142.807 343.044 142.346C342.814 141.501 342.737 141.117 342.43 140.273C342.276 139.812 342.276 139.428 342.353 139.275C342.43 139.044 342.737 138.891 343.198 138.737C345.424 138.123 346.499 137.739 348.649 137.125C349.11 136.971 349.494 136.971 349.724 137.125C349.954 137.278 350.185 137.586 350.261 138.046C350.261 138.814 350.415 139.198 350.645 140.119Z" fill="#212121" fill-opacity="0.2"/>
<path d="M344.964 146.109C344.503 146.186 344.196 146.186 343.965 146.109C343.735 146.032 343.582 145.802 343.505 145.495C343.428 145.188 343.505 144.957 343.658 144.727C343.812 144.497 344.119 144.343 344.58 144.266C346.806 143.729 347.958 143.422 350.184 142.808C350.568 142.731 350.875 142.731 351.183 142.808C351.413 142.884 351.566 143.115 351.643 143.422C351.72 143.652 351.72 143.806 351.643 143.959C351.566 144.113 351.49 144.343 351.336 144.573C349.877 146.416 349.186 147.337 347.728 149.103C349.263 148.796 349.954 148.643 351.49 148.259C351.95 148.182 352.257 148.182 352.488 148.259C352.718 148.336 352.872 148.566 352.948 148.95C353.025 149.257 352.948 149.564 352.795 149.718C352.641 149.948 352.334 150.101 351.874 150.178C349.57 150.639 348.342 150.869 346.038 151.407C345.655 151.483 345.347 151.483 345.117 151.407C344.887 151.33 344.733 151.1 344.733 150.792C344.656 150.639 344.733 150.409 344.81 150.255C344.887 150.101 345.04 149.871 345.194 149.641C346.653 147.952 347.344 147.03 348.802 145.264C347.19 145.572 346.422 145.802 344.964 146.109Z" fill="#212121" fill-opacity="0.2"/>
<path d="M351.797 152.865C351.72 152.558 351.72 152.404 351.643 152.174C351.566 151.713 351.566 151.329 351.643 151.099C351.72 150.869 351.95 150.715 352.181 150.638C352.488 150.561 352.718 150.638 352.872 150.869C353.025 151.099 353.179 151.406 353.256 151.867C353.486 153.249 353.639 153.863 353.87 155.245C353.947 155.706 353.947 156.089 353.87 156.32C353.793 156.55 353.563 156.704 353.256 156.78C352.948 156.857 352.718 156.78 352.565 156.55C352.411 156.32 352.257 156.013 352.181 155.552C352.104 155.245 352.104 155.091 352.027 154.861C349.954 155.245 348.956 155.398 346.883 155.782C346.422 155.859 346.115 155.859 345.885 155.706C345.655 155.629 345.501 155.398 345.424 155.091C345.347 154.784 345.424 154.554 345.578 154.324C345.731 154.093 346.038 154.016 346.499 153.94C348.726 153.479 349.724 153.249 351.797 152.865Z" fill="#212121" fill-opacity="0.2"/>
<path d="M37.6091 98.9941C37.3613 98.7995 37.2219 98.5736 37.191 98.3164C37.1601 98.0592 37.2419 97.8067 37.4365 97.5589L39.6766 94.7062C39.7716 94.7157 39.8823 94.7467 40.0087 94.7994C40.1396 94.8463 40.2627 94.9149 40.3779 95.0055C40.5969 95.1774 40.714 95.3486 40.7293 95.519C40.7491 95.6836 40.6979 95.8437 40.5757 95.9993L39.1434 97.8232L39.9473 98.4545L41.4747 96.5096C41.5697 96.519 41.6805 96.55 41.8068 96.6027C41.9319 96.645 42.0521 96.7115 42.1674 96.802C42.3864 96.9739 42.5058 97.1422 42.5256 97.3068C42.5454 97.4715 42.4942 97.6316 42.372 97.7872L41.123 99.3777L42.0306 100.09L43.7752 97.8689C43.8702 97.8783 43.9809 97.9094 44.1073 97.962C44.2382 98.0089 44.3613 98.0776 44.4765 98.1681C44.6955 98.3401 44.8155 98.5135 44.8366 98.6884C44.8564 98.853 44.8052 99.0131 44.683 99.1687L42.7008 101.693C42.5062 101.941 42.2803 102.08 42.0231 102.111C41.7659 102.142 41.5134 102.06 41.2656 101.865L37.6091 98.9941Z" fill="#DADADA"/>
<path d="M41.0045 101.996C41.1961 102.118 41.3167 102.242 41.3661 102.369C41.4155 102.496 41.4363 102.662 41.4283 102.865C41.4227 102.983 41.4033 103.123 41.3701 103.284C41.3307 103.441 41.2773 103.607 41.2098 103.781C41.1485 103.96 41.072 104.141 40.9804 104.326C40.8927 104.505 40.7957 104.677 40.6895 104.844C40.4061 105.289 40.0818 105.669 39.7164 105.984C39.3449 106.294 38.9461 106.518 38.5201 106.655C38.0918 106.782 37.6422 106.813 37.1713 106.748C36.7004 106.682 36.2239 106.496 35.7418 106.189C35.2349 105.867 34.8501 105.496 34.5871 105.076C34.3282 104.651 34.1695 104.211 34.1112 103.757C34.0506 103.293 34.0805 102.83 34.2008 102.368C34.3251 101.9 34.5171 101.462 34.7769 101.054C35.1507 100.467 35.5417 100.064 35.9497 99.846C36.3555 99.618 36.7099 99.6004 37.0127 99.7932C37.1734 99.8955 37.2869 100.024 37.3532 100.179C37.4195 100.334 37.4532 100.486 37.4542 100.635C37.2632 100.73 37.0496 100.868 36.8135 101.047C36.5752 101.217 36.3635 101.447 36.1786 101.738C35.848 102.257 35.7327 102.765 35.8326 103.263C35.9365 103.755 36.2511 104.168 36.7765 104.503C37.0608 104.684 37.3336 104.801 37.5949 104.855C37.854 104.898 38.0968 104.892 38.3232 104.836C38.5436 104.777 38.7467 104.676 38.9328 104.534C39.1126 104.388 39.2695 104.209 39.4033 103.999C39.4899 103.863 39.5542 103.735 39.5964 103.614C39.6386 103.493 39.6619 103.395 39.6664 103.32L38.7949 102.765L38.1633 103.757C38.0717 103.751 37.9585 103.731 37.8236 103.697C37.6927 103.657 37.5654 103.598 37.4418 103.519C37.2193 103.378 37.0901 103.226 37.0541 103.064C37.0221 102.896 37.0573 102.732 37.1596 102.571L38.1572 101.004C38.2753 100.819 38.4183 100.71 38.5863 100.678C38.7521 100.636 38.9277 100.674 39.1132 100.792L41.0045 101.996Z" fill="#DADADA"/>
<path d="M30.6422 108.891C30.6395 108.747 30.6706 108.55 30.7355 108.3C30.8041 108.044 30.9013 107.805 31.0272 107.581C31.2072 107.262 31.4134 107.008 31.6459 106.82C31.8756 106.621 32.1092 106.543 32.3466 106.584C32.7433 106.656 33.1996 106.75 33.7156 106.864C34.2316 106.978 34.7635 107.101 35.3114 107.234C35.8529 107.362 36.3895 107.492 36.921 107.624C37.4461 107.752 37.9112 107.867 38.3163 107.969C38.3624 108.096 38.3679 108.25 38.3325 108.432C38.3036 108.618 38.2298 108.816 38.111 109.027C38.0247 109.18 37.9381 109.304 37.8514 109.398C37.7683 109.485 37.6814 109.55 37.5908 109.591C37.5037 109.626 37.4061 109.643 37.2979 109.641C37.1934 109.632 37.0778 109.613 36.9513 109.584L36.1936 109.384L35.2165 111.117C35.3792 111.276 35.5483 111.439 35.7237 111.605C35.8992 111.771 36.0683 111.934 36.2309 112.093C36.2125 112.2 36.184 112.31 36.1456 112.423C36.1171 112.533 36.0633 112.658 35.9842 112.799C35.8006 113.124 35.6096 113.336 35.4111 113.435C35.2099 113.523 35.0103 113.512 34.8125 113.4C34.7231 113.35 34.6409 113.286 34.566 113.211C34.491 113.135 34.4019 113.047 34.2986 112.946C34.1515 112.804 33.9718 112.623 33.7597 112.403C33.5512 112.176 33.3271 111.932 33.0875 111.67C32.8415 111.405 32.5927 111.131 32.3411 110.846C32.0896 110.561 31.8535 110.293 31.6331 110.043C31.4062 109.789 31.2059 109.562 31.032 109.363C30.8618 109.158 30.7318 109 30.6422 108.891ZM32.525 108.439C32.7427 108.679 32.9851 108.95 33.2522 109.252C33.5165 109.544 33.7927 109.83 34.0806 110.11L34.7499 108.923C34.3549 108.818 33.9676 108.722 33.5881 108.634C33.2058 108.536 32.8622 108.452 32.5574 108.381L32.525 108.439Z" fill="#DADADA"/>
<path d="M31.8769 116.353L33.8139 117.191C33.8021 117.274 33.7714 117.4 33.7217 117.57C33.675 117.734 33.6183 117.893 33.5514 118.047C33.4845 118.202 33.4114 118.334 33.3322 118.443C33.2626 118.549 33.1801 118.629 33.0847 118.684C32.9921 118.731 32.8833 118.752 32.7583 118.746C32.6332 118.74 32.4833 118.699 32.3084 118.623L27.5567 116.569C27.4155 116.508 27.3238 116.425 27.2818 116.319C27.236 116.203 27.2187 116.068 27.2297 115.913C27.2479 115.649 27.3056 115.359 27.4028 115.042C27.4933 114.722 27.6127 114.39 27.761 114.047C28.1623 113.119 28.6597 112.504 29.2533 112.202C29.847 111.9 30.4767 111.892 31.1425 112.18C31.5595 112.361 31.8695 112.622 32.0724 112.965C32.2752 113.309 32.3934 113.663 32.4269 114.029C32.8611 113.929 33.2737 113.824 33.6647 113.714C34.0557 113.603 34.398 113.532 34.6915 113.499C34.8978 113.668 35.0256 113.871 35.0749 114.108C35.1204 114.335 35.0951 114.56 34.9992 114.782C34.9352 114.93 34.8631 115.05 34.783 115.143C34.7028 115.236 34.615 115.31 34.5196 115.365C34.4242 115.419 34.3182 115.461 34.2017 115.491C34.0852 115.52 33.9634 115.543 33.8364 115.56L32.108 115.819L31.8769 116.353ZM30.8099 115.138C30.9204 114.882 30.9437 114.653 30.8799 114.45C30.8094 114.243 30.6463 114.085 30.3907 113.975C30.1351 113.864 29.9071 113.865 29.7066 113.978C29.5023 114.081 29.3231 114.311 29.169 114.668C29.1254 114.769 29.0939 114.851 29.0744 114.914C29.055 114.978 29.036 115.049 29.0175 115.129L30.5307 115.783L30.8099 115.138Z" fill="#DADADA"/>
<path d="M25.2849 122.717C24.9906 122.605 24.7907 122.43 24.685 122.194C24.5794 121.957 24.5828 121.692 24.6954 121.398L25.9911 118.01C26.0847 117.991 26.1997 117.988 26.336 118.001C26.4748 118.007 26.6127 118.036 26.7496 118.088C27.0097 118.188 27.1722 118.317 27.2372 118.475C27.3048 118.626 27.3033 118.794 27.2326 118.979L26.4041 121.145L27.3588 121.51L28.2423 119.2C28.3359 119.181 28.4508 119.178 28.5871 119.191C28.7192 119.195 28.8536 119.222 28.9905 119.275C29.2506 119.374 29.4144 119.5 29.482 119.651C29.5497 119.802 29.5481 119.971 29.4774 120.155L28.755 122.044L29.8329 122.457L30.842 119.818C30.9356 119.799 31.0505 119.796 31.1868 119.809C31.3257 119.815 31.4636 119.844 31.6005 119.897C31.8605 119.996 32.0265 120.126 32.0983 120.287C32.1659 120.438 32.1644 120.606 32.0937 120.791L30.9472 123.789C30.8346 124.083 30.6601 124.283 30.4235 124.389C30.187 124.494 29.9216 124.491 29.6273 124.378L25.2849 122.717Z" fill="#DADADA"/>
<path d="M29.7151 126.781C29.7729 126.903 29.8047 127.079 29.8104 127.309C29.818 127.531 29.7881 127.766 29.7205 128.013C29.6394 128.31 29.5275 128.553 29.3848 128.742C29.235 128.929 29.0717 129.04 28.895 129.075C28.7112 129.109 28.4766 129.147 28.1913 129.191C27.8988 129.232 27.5762 129.273 27.2234 129.314C26.8725 129.347 26.502 129.383 26.1119 129.42C25.7167 129.449 25.3188 129.474 24.9185 129.493C24.5181 129.513 24.1267 129.528 23.7443 129.537C23.362 129.547 23.0046 129.548 22.6724 129.541C22.6005 129.415 22.5507 129.249 22.5231 129.044C22.4904 128.83 22.503 128.617 22.5609 128.405C22.6324 128.144 22.7468 127.947 22.9043 127.815C23.0567 127.675 23.2919 127.606 23.61 127.609C24.3548 127.608 25.0714 127.598 25.7597 127.581C26.4428 127.555 27.1562 127.53 27.8997 127.505L27.9171 127.441C27.3048 127.069 26.6333 126.677 25.9028 126.264C25.1741 125.845 24.4461 125.437 23.7188 125.041C23.6899 124.897 23.6736 124.748 23.6698 124.595C23.6679 124.435 23.6921 124.263 23.7422 124.079C23.8137 123.818 23.9345 123.612 24.1049 123.461C24.2682 123.308 24.4841 123.268 24.7527 123.341C24.9082 123.384 25.1238 123.484 25.3995 123.643C25.677 123.795 25.9867 123.982 26.3285 124.204C26.6652 124.418 27.0148 124.654 27.3771 124.912C27.7414 125.164 28.0836 125.413 28.4035 125.66C28.7183 125.898 28.9962 126.118 29.2371 126.32C29.471 126.521 29.6303 126.675 29.7151 126.781Z" fill="#DADADA"/>
<path d="M21.704 134.349C21.6517 134.214 21.613 134.018 21.5879 133.762C21.564 133.498 21.5726 133.24 21.6138 132.987C21.6726 132.625 21.7786 132.316 21.9318 132.058C22.0789 131.793 22.2711 131.638 22.5082 131.595C22.9055 131.526 23.3659 131.456 23.8897 131.386C24.4134 131.315 24.9552 131.247 25.5151 131.182C26.0678 131.116 26.6162 131.053 27.1605 130.994C27.6975 130.932 28.1737 130.88 28.5891 130.836C28.6763 130.939 28.7347 131.083 28.7643 131.266C28.8011 131.45 28.8002 131.661 28.7613 131.9C28.7331 132.073 28.6945 132.219 28.6456 132.337C28.5979 132.449 28.5386 132.539 28.4678 132.609C28.3982 132.672 28.3122 132.721 28.21 132.757C28.1089 132.785 27.9939 132.807 27.8651 132.823L27.0848 132.897L26.7654 134.86C26.973 134.953 27.1878 135.048 27.4098 135.143C27.6318 135.239 27.8466 135.333 28.0542 135.426C28.0738 135.533 28.0851 135.646 28.088 135.766C28.0993 135.879 28.092 136.015 28.0661 136.174C28.0061 136.543 27.8999 136.808 27.7476 136.969C27.5892 137.121 27.3979 137.179 27.1737 137.142C27.0724 137.126 26.9735 137.095 26.877 137.05C26.7804 137.004 26.6664 136.952 26.5348 136.894C26.3478 136.811 26.1167 136.703 25.8415 136.569C25.5675 136.428 25.273 136.277 24.958 136.114C24.6357 135.95 24.3074 135.778 23.973 135.597C23.6386 135.417 23.3247 135.247 23.0314 135.088C22.7308 134.928 22.4646 134.784 22.2329 134.657C22.0023 134.523 21.826 134.42 21.704 134.349ZM23.3152 133.274C23.6025 133.425 23.9236 133.596 24.2785 133.787C24.6274 133.97 24.9852 134.144 25.352 134.307L25.5709 132.962C25.1638 133 24.7671 133.043 24.3806 133.091C23.988 133.131 23.6365 133.171 23.3258 133.209L23.3152 133.274Z" fill="#DADADA"/>
<path d="M20.2444 145.422C20.2257 145.335 20.2129 145.205 20.2058 145.031C20.1931 144.848 20.2054 144.671 20.2429 144.499C20.3084 144.198 20.4095 143.958 20.5462 143.777C20.6758 143.596 20.8312 143.502 21.0124 143.497C21.323 143.482 21.6143 143.47 21.8861 143.462C22.1522 143.445 22.4105 143.43 22.6608 143.417C22.9039 143.402 23.1463 143.391 23.3878 143.384C23.631 143.369 23.8841 143.361 24.1471 143.358L24.1588 143.304C23.7361 143.145 23.3334 142.997 22.9505 142.861C22.5605 142.724 22.1804 142.592 21.8103 142.467C21.4331 142.34 21.063 142.214 20.7 142.09C20.3299 141.964 19.9563 141.838 19.579 141.711C19.4864 141.413 19.4728 141.114 19.5383 140.813C19.596 140.548 19.7031 140.332 19.8598 140.163C20.0165 139.995 20.2308 139.94 20.5029 140C20.6604 140.034 20.882 140.101 21.1678 140.201C21.4479 140.292 21.7607 140.405 22.1062 140.54C22.4533 140.668 22.8159 140.811 23.1941 140.968C23.5722 141.126 23.9317 141.283 24.2726 141.439C24.6134 141.596 24.9212 141.749 25.196 141.899C25.4653 142.04 25.6708 142.164 25.8127 142.27C25.8896 142.399 25.9337 142.592 25.9451 142.85C25.9566 143.107 25.9342 143.365 25.8781 143.623C25.8048 143.959 25.6994 144.236 25.5621 144.454C25.4191 144.663 25.2598 144.774 25.0842 144.788C24.7776 144.819 24.4157 144.845 23.9985 144.867C23.5813 144.888 23.1232 144.909 22.6242 144.927C23.0677 145.129 23.4998 145.332 23.9203 145.536C24.3408 145.74 24.6956 145.919 24.9847 146.072C25.0616 146.201 25.1088 146.38 25.1265 146.609C25.1441 146.837 25.1249 147.081 25.0687 147.338C24.9986 147.661 24.8917 147.945 24.7481 148.191C24.5989 148.428 24.4333 148.569 24.2515 148.612C24.1086 148.648 23.9033 148.678 23.6356 148.702C23.3622 148.718 23.0559 148.73 22.7166 148.738C22.3701 148.745 21.9978 148.751 21.5996 148.754C21.203 148.75 20.8072 148.742 20.4121 148.731C20.0186 148.713 19.6367 148.694 19.2662 148.673C18.8886 148.651 18.5463 148.621 18.2394 148.584C18.1682 148.464 18.1126 148.306 18.0729 148.109C18.0331 147.913 18.0358 147.711 18.0811 147.504C18.1403 147.232 18.2495 147.023 18.4086 146.878C18.5622 146.724 18.7832 146.656 19.0718 146.673C19.827 146.718 20.4559 146.757 20.9583 146.792C21.4623 146.819 21.8765 146.846 22.2008 146.871C22.5196 146.888 22.7673 146.905 22.9438 146.921C23.1203 146.937 23.261 146.945 23.3659 146.945L23.3776 146.891C23.1052 146.765 22.8536 146.646 22.6226 146.536C22.3917 146.425 22.1608 146.315 21.9298 146.205C21.6933 146.086 21.4424 145.964 21.1772 145.838C20.9049 145.712 20.5939 145.573 20.2444 145.422Z" fill="#DADADA"/>
<path d="M20.8214 156.192C20.251 156.155 19.7521 156.035 19.3246 155.832C18.8975 155.621 18.5475 155.353 18.2747 155.027C17.995 154.693 17.7916 154.313 17.6647 153.886C17.5383 153.453 17.4907 152.991 17.522 152.501C17.5533 152.011 17.6591 151.562 17.8393 151.155C18.0199 150.741 18.2702 150.386 18.5901 150.091C18.9027 149.795 19.284 149.574 19.734 149.426C20.1844 149.271 20.6948 149.212 21.2652 149.249C21.8355 149.285 22.3381 149.405 22.773 149.609C23.2005 149.813 23.5541 150.081 23.8338 150.415C24.1067 150.741 24.3064 151.121 24.4328 151.555C24.5593 151.989 24.6066 152.454 24.5748 152.951C24.543 153.449 24.4368 153.904 24.2562 154.319C24.0682 154.733 23.8145 155.084 23.495 155.371C23.1756 155.659 22.7909 155.877 22.3409 156.025C21.891 156.172 21.3845 156.228 20.8214 156.192ZM20.9476 154.217C21.613 154.26 22.1189 154.156 22.4653 153.907C22.8116 153.657 22.9993 153.306 23.0282 152.853C23.0577 152.392 22.9165 152.016 22.6048 151.724C22.293 151.433 21.8044 151.266 21.139 151.223C20.4809 151.181 19.9786 151.285 19.6323 151.534C19.2864 151.776 19.0987 152.128 19.0693 152.589C19.0403 153.042 19.1815 153.418 19.4928 153.717C19.7972 154.008 20.2822 154.175 20.9476 154.217Z" fill="#DADADA"/>
<path d="M23.9606 160.904C23.945 161.219 23.8412 161.463 23.6492 161.637C23.4572 161.811 23.2038 161.89 22.8891 161.875L17.2137 161.593C17.2031 161.512 17.1912 161.383 17.1779 161.206C17.1573 161.029 17.151 160.86 17.159 160.699C17.1674 160.531 17.1893 160.385 17.2247 160.262C17.2532 160.132 17.3025 160.024 17.3728 159.939C17.443 159.855 17.5377 159.794 17.657 159.755C17.7763 159.717 17.931 159.703 18.1213 159.712L22.4574 159.927L22.5821 157.414C22.6651 157.366 22.7772 157.324 22.9185 157.287C23.0524 157.25 23.1925 157.235 23.3389 157.242C23.6316 157.256 23.8371 157.329 23.9553 157.46C24.0663 157.59 24.1166 157.757 24.1065 157.962L23.9606 160.904Z" fill="#DADADA"/>
<path d="M17.9436 167.585C17.6289 167.571 17.3841 167.468 17.2094 167.277C17.0348 167.085 16.9546 166.832 16.9688 166.518L17.1332 162.894C17.2161 162.847 17.3242 162.808 17.4576 162.777C17.5914 162.739 17.7314 162.724 17.8778 162.73C18.156 162.743 18.3508 162.814 18.4623 162.944C18.5741 163.066 18.6255 163.226 18.6165 163.424L18.5114 165.741L19.5325 165.787L19.6446 163.316C19.7275 163.269 19.8356 163.23 19.969 163.199C20.0954 163.161 20.2318 163.145 20.3782 163.152C20.6564 163.164 20.8514 163.232 20.9632 163.354C21.075 163.477 21.1264 163.637 21.1174 163.834L21.0258 165.855L22.1786 165.907L22.3067 163.085C22.3895 163.038 22.4976 162.998 22.631 162.968C22.7648 162.93 22.9049 162.914 23.0513 162.921C23.3294 162.933 23.5279 163.005 23.6467 163.135C23.7585 163.257 23.8099 163.417 23.8009 163.615L23.6555 166.821C23.6412 167.136 23.5384 167.381 23.3471 167.555C23.1558 167.73 22.9028 167.81 22.588 167.796L17.9436 167.585Z" fill="#DADADA"/>
<path d="M21.9007 173.006C21.9343 172.905 21.9618 172.774 21.9832 172.614C21.9972 172.453 22.0074 172.299 22.0135 172.153C22.0258 171.86 21.9774 171.616 21.8682 171.421C21.7521 171.218 21.5659 171.111 21.3097 171.1C21.0681 171.09 20.8927 171.164 20.7834 171.32C20.6741 171.477 20.6126 171.72 20.5988 172.05L20.561 172.95L21.9007 173.006ZM19.2212 172.894L19.2549 172.092C19.2681 171.777 19.2191 171.548 19.1078 171.404C18.9968 171.253 18.8278 171.172 18.6009 171.163C18.4032 171.154 18.2423 171.232 18.1181 171.395C17.9942 171.552 17.9253 171.794 17.9115 172.124C17.9069 172.234 17.9052 172.362 17.9063 172.509C17.9078 172.648 17.9142 172.758 17.9254 172.839L19.2212 172.894ZM23.479 172.358C23.4738 172.482 23.464 172.628 23.4496 172.796C23.4352 172.964 23.4132 173.14 23.3835 173.322C23.3542 173.496 23.3175 173.671 23.2735 173.845C23.2369 174.02 23.1862 174.179 23.1215 174.323C22.9508 174.719 22.6752 174.909 22.2945 174.893L17.1662 174.678C17.0125 174.671 16.897 174.626 16.8199 174.542C16.7357 174.451 16.6711 174.33 16.626 174.182C16.5486 173.929 16.4994 173.616 16.4785 173.241C16.4503 172.865 16.4444 172.48 16.461 172.085C16.5004 171.148 16.6881 170.433 17.0241 169.941C17.3601 169.449 17.8575 169.217 18.5164 169.245C18.8458 169.259 19.1274 169.366 19.361 169.566C19.5872 169.767 19.7485 170.03 19.8448 170.357C19.9627 169.995 20.1621 169.699 20.4431 169.469C20.7245 169.231 21.0701 169.121 21.4801 169.138C22.2048 169.169 22.7315 169.462 23.0602 170.019C23.3818 170.568 23.5214 171.347 23.479 172.358Z" fill="#DADADA"/>
<path d="M35.3948 184.267H119.39C125.379 184.267 130.676 180.044 131.828 174.132C133.363 166.301 136.588 159.084 141.118 152.865L63.8026 96.7402C45.9901 121.309 35.3948 151.56 35.3948 184.267Z" fill="#757DF0"/>
<path d="M138.277 42.6123L167.76 133.441C172.981 131.751 178.509 130.83 184.267 130.83C190.025 130.83 195.553 131.751 200.774 133.441L230.257 42.6123C215.746 37.9288 200.314 35.3184 184.267 35.3184C168.22 35.3951 152.788 37.9288 138.277 42.6123Z" fill="#75ADF0"/>
<path d="M230.334 42.6113L200.851 133.44C211.677 136.971 220.967 143.881 227.57 152.864L304.808 96.7398C286.458 71.6334 260.508 52.4389 230.334 42.6113Z" fill="#75CDF0"/>
<path d="M63.8025 96.7398L141.041 152.864C147.644 143.881 156.934 136.971 167.76 133.44L138.277 42.6113C108.103 52.4389 82.1524 71.6334 63.8025 96.7398Z" fill="#7596F0"/>
<path d="M227.493 152.865C232.023 159.084 235.247 166.301 236.783 174.132C237.935 180.044 243.232 184.267 249.221 184.267H333.216C333.216 151.56 322.698 121.309 304.808 96.7402L227.493 152.865Z" fill="#75E7F0"/>
<g style="mix-blend-mode:luminosity">
<path d="M291.833 172.52C303.536 172.52 313.024 163.033 313.024 151.329C313.024 139.626 303.536 130.139 291.833 130.139C280.13 130.139 270.642 139.626 270.642 151.329C270.642 163.033 280.13 172.52 291.833 172.52Z" fill="#8BC34A"/>
<path d="M291.833 129.295C279.702 129.295 269.798 139.199 269.798 151.33C269.798 163.461 279.702 173.365 291.833 173.365C303.964 173.365 313.868 163.461 313.868 151.33C313.868 139.199 303.964 129.295 291.833 129.295ZM291.833 171.6C280.623 171.6 271.564 162.54 271.564 151.33C271.564 140.121 280.623 131.061 291.833 131.061C303.042 131.061 312.102 140.121 312.102 151.33C312.102 162.54 303.042 171.6 291.833 171.6Z" fill="#9CCC65"/>
<path d="M279.318 139.047C276.247 142.195 274.327 146.571 274.327 151.331L279.318 139.047Z" fill="#8BC34A"/>
<path d="M278.627 138.432C275.249 141.887 273.329 146.493 273.329 151.33C273.329 151.791 273.713 152.252 274.251 152.252C274.711 152.252 275.172 151.868 275.172 151.33C275.172 146.954 276.861 142.808 279.932 139.66C280.316 139.276 280.239 138.739 279.932 138.432C279.548 138.048 279.011 138.125 278.627 138.432Z" fill="#9CCC65"/>
<path d="M309.415 151.33L304.731 163.231C307.649 160.16 309.415 155.937 309.415 151.33Z" fill="#8BC34A"/>
<path d="M309.415 150.486C308.954 150.486 308.494 150.87 308.494 151.408C308.494 155.63 306.958 159.623 304.041 162.694C303.734 163.078 303.734 163.615 304.117 163.922C304.271 164.076 304.501 164.153 304.732 164.153C304.962 164.153 305.192 164.076 305.423 163.846C308.571 160.391 310.336 156.014 310.336 151.331C310.336 150.87 309.876 150.486 309.415 150.486Z" fill="#9CCC65"/>
<path d="M284.462 145.879C283.387 145.879 282.466 146.8 282.466 147.875C282.466 148.95 283.387 149.871 284.462 149.871C285.537 149.871 286.459 148.95 286.459 147.875C286.459 146.723 285.614 145.879 284.462 145.879Z" fill="#689F38"/>
<path d="M299.204 145.879C298.129 145.879 297.207 146.8 297.207 147.875C297.207 148.95 298.129 149.871 299.204 149.871C300.278 149.871 301.2 148.95 301.2 147.875C301.2 146.723 300.278 145.879 299.204 145.879Z" fill="#689F38"/>
<path d="M284.462 145.879C283.387 145.879 282.466 146.8 282.466 147.875C282.466 147.952 282.466 148.105 282.466 148.182C282.62 147.261 283.464 146.493 284.462 146.493C285.46 146.493 286.305 147.261 286.459 148.182C286.459 148.105 286.459 147.952 286.459 147.875C286.459 146.723 285.614 145.879 284.462 145.879Z" fill="#558B2F"/>
<path d="M299.204 145.879C298.129 145.879 297.207 146.8 297.207 147.875C297.207 147.952 297.207 148.105 297.207 148.182C297.361 147.261 298.205 146.493 299.204 146.493C300.202 146.493 301.046 147.261 301.2 148.182C301.2 148.105 301.2 147.952 301.2 147.875C301.2 146.723 300.278 145.879 299.204 145.879Z" fill="#558B2F"/>
<path d="M284.462 156.629C283.618 159.009 285.307 161.85 288.455 162.234C290.681 162.464 292.908 162.464 295.134 162.234C298.282 161.85 300.048 159.009 299.127 156.629C294.443 158.241 289.299 158.241 284.462 156.629Z" fill="#689F38"/>
<path d="M297.13 157.243C297.13 159.316 295.365 161.312 292.754 161.389C290.604 161.465 288.455 161.312 286.382 160.851C285.921 160.774 285.537 160.621 285.153 160.467C285.921 161.389 287.073 162.08 288.531 162.31C290.758 162.54 292.984 162.54 295.211 162.31C298.359 161.926 300.125 159.085 299.203 156.705C298.512 156.859 297.821 157.089 297.13 157.243Z" fill="#558B2F"/>
</g>
<g style="mix-blend-mode:luminosity">
<path d="M246.475 117.372C258.167 116.851 267.222 106.951 266.701 95.2596C266.18 83.568 256.28 74.5124 244.588 75.0334C232.897 75.5543 223.841 85.4546 224.362 97.1462C224.883 108.838 234.783 117.893 246.475 117.372Z" fill="#CDDC39"/>
<path d="M245.536 74.168C233.405 74.168 223.501 84.0723 223.501 96.2033C223.501 108.334 233.405 118.239 245.536 118.239C257.667 118.239 267.571 108.334 267.571 96.2033C267.648 84.0723 257.744 74.168 245.536 74.168ZM245.536 116.473C234.326 116.473 225.267 107.413 225.267 96.2033C225.267 84.9937 234.326 75.9339 245.536 75.9339C256.746 75.9339 265.805 84.9937 265.805 96.2033C265.805 107.413 256.746 116.473 245.536 116.473Z" fill="#DCE775"/>
<path d="M232.33 83.3046C228.952 86.7596 227.032 91.3662 227.032 96.2033C227.032 96.6639 227.416 97.1246 227.954 97.1246C228.414 97.1246 228.875 96.7407 228.875 96.2033C228.875 91.8269 230.564 87.6809 233.635 84.533C234.019 84.1491 233.942 83.6117 233.635 83.3046C233.251 82.9974 232.714 82.9974 232.33 83.3046Z" fill="#DCE775"/>
<path d="M263.118 95.3574C262.658 95.3574 262.197 95.7413 262.197 96.2788C262.197 100.502 260.661 104.494 257.744 107.565C257.437 107.949 257.437 108.486 257.821 108.794C257.974 108.947 258.204 109.024 258.435 109.024C258.665 109.024 258.895 108.947 259.126 108.717C262.274 105.262 264.04 100.885 264.04 96.202C264.04 95.7413 263.656 95.3574 263.118 95.3574Z" fill="#DCE775"/>
<path d="M238.242 90.752C237.167 90.752 236.246 91.6733 236.246 92.7482C236.246 93.8231 237.167 94.7444 238.242 94.7444C239.317 94.7444 240.238 93.8231 240.238 92.7482C240.238 91.6733 239.317 90.752 238.242 90.752Z" fill="#AFB42B"/>
<path d="M252.907 90.752C251.832 90.752 250.91 91.6733 250.91 92.7482C250.91 93.8231 251.832 94.7444 252.907 94.7444C253.982 94.7444 254.903 93.8231 254.903 92.7482C254.903 91.6733 253.982 90.752 252.907 90.752Z" fill="#AFB42B"/>
<path d="M238.242 90.752C237.167 90.752 236.246 91.6733 236.246 92.7482C236.246 92.825 236.246 92.9785 236.246 93.0553C236.399 92.134 237.244 91.3662 238.242 91.3662C239.24 91.3662 240.085 92.134 240.238 93.0553C240.238 92.9785 240.238 92.825 240.238 92.7482C240.162 91.5965 239.317 90.752 238.242 90.752Z" fill="#9E9D24"/>
<path d="M252.907 90.752C251.832 90.752 250.91 91.6733 250.91 92.7482C250.91 92.825 250.91 92.9785 250.91 93.0553C251.064 92.134 251.908 91.3662 252.907 91.3662C253.905 91.3662 254.749 92.134 254.903 93.0553C254.903 92.9785 254.903 92.825 254.903 92.7482C254.903 91.5965 253.982 90.752 252.907 90.752Z" fill="#9E9D24"/>
<path d="M242.772 106.107H248.3C250.834 106.107 252.907 104.034 252.907 101.5H238.165C238.242 104.034 240.238 106.107 242.772 106.107Z" fill="#AFB42B"/>
<path d="M246.304 105.109H240.776C240.392 105.109 240.085 105.032 239.701 104.955C240.545 105.646 241.62 106.107 242.772 106.107H248.3C250.833 106.107 252.906 104.034 252.906 101.5H250.757C250.373 103.573 248.53 105.109 246.304 105.109Z" fill="#9E9D24"/>
</g>
<g style="mix-blend-mode:luminosity">
<path d="M204.242 79.5895C206.467 68.0992 198.956 56.9809 187.465 54.7561C175.975 52.5313 164.857 60.0425 162.632 71.5328C160.407 83.0231 167.918 94.1413 179.409 96.3661C190.899 98.5909 202.017 91.0798 204.242 79.5895Z" fill="#FFC107"/>
<path d="M183.423 53.5137C171.292 53.5137 161.387 63.418 161.387 75.5489C161.387 87.6799 171.292 97.5842 183.423 97.5842C195.554 97.5842 205.458 87.6799 205.458 75.5489C205.458 63.418 195.554 53.5137 183.423 53.5137ZM183.423 95.8183C172.213 95.8183 163.153 86.7585 163.153 75.5489C163.153 64.3394 172.213 55.2796 183.423 55.2796C194.632 55.2796 203.692 64.3394 203.692 75.5489C203.692 86.7585 194.556 95.8183 183.423 95.8183Z" fill="#FFD600"/>
<path d="M170.217 62.6503C166.838 66.1053 164.919 70.7119 164.919 75.5489C164.919 76.0096 165.303 76.4703 165.84 76.4703C166.378 76.4703 166.762 76.0864 166.762 75.5489C166.762 71.1726 168.451 67.0266 171.522 63.8787C171.906 63.4948 171.829 62.9574 171.522 62.6503C171.138 62.3431 170.524 62.3431 170.217 62.6503Z" fill="#FFD600"/>
<path d="M200.928 74.7051C200.467 74.7051 200.007 75.089 200.007 75.6264C200.007 79.8492 198.471 83.8417 195.554 86.9128C195.246 87.2967 195.246 87.8341 195.63 88.1412C195.784 88.2948 196.014 88.3715 196.245 88.3715C196.475 88.3715 196.705 88.2948 196.936 88.0644C200.083 84.6094 201.849 80.2331 201.849 75.5496C201.849 75.089 201.465 74.7051 200.928 74.7051Z" fill="#FFD600"/>
<path d="M176.052 70.0977C174.977 70.0977 174.056 71.019 174.056 72.0939C174.056 73.1688 174.977 74.0901 176.052 74.0901C177.127 74.0901 178.048 73.1688 178.048 72.0939C178.048 71.019 177.127 70.0977 176.052 70.0977Z" fill="#FFA000"/>
<path d="M190.716 70.0977C189.642 70.0977 188.72 71.019 188.72 72.0939C188.72 73.1688 189.642 74.0901 190.716 74.0901C191.791 74.0901 192.713 73.1688 192.713 72.0939C192.713 71.019 191.868 70.0977 190.716 70.0977Z" fill="#FFA000"/>
<path d="M176.052 70.0977C174.977 70.0977 174.056 71.019 174.056 72.0939C174.056 72.1707 174.056 72.3242 174.056 72.401C174.209 71.4797 175.054 70.7119 176.052 70.7119C177.05 70.7119 177.895 71.4797 178.048 72.401C178.048 72.3242 178.048 72.1707 178.048 72.0939C178.048 71.019 177.127 70.0977 176.052 70.0977Z" fill="#FF8F00"/>
<path d="M190.716 70.0977C189.642 70.0977 188.72 71.019 188.72 72.0939C188.72 72.1707 188.72 72.3242 188.72 72.401C188.874 71.4797 189.718 70.7119 190.716 70.7119C191.715 70.7119 192.559 71.4797 192.713 72.401C192.713 72.3242 192.713 72.1707 192.713 72.0939C192.713 71.019 191.868 70.0977 190.716 70.0977Z" fill="#FF8F00"/>
<path d="M188.413 80.8477H178.278C176.973 80.8477 175.975 81.8458 175.975 83.151C175.975 84.4562 176.973 85.4543 178.278 85.4543H188.413C189.718 85.4543 190.716 84.4562 190.716 83.151C190.716 81.9225 189.718 80.8477 188.413 80.8477Z" fill="#FFA000"/>
<path d="M188.413 80.8477H178.278C176.973 80.8477 175.975 81.8458 175.975 83.151C175.975 83.4581 176.052 83.6884 176.129 83.9188C176.436 83.0742 177.28 82.3832 178.278 82.3832H188.413C189.411 82.3832 190.256 82.9974 190.563 83.9188C190.64 83.6884 190.716 83.3813 190.716 83.151C190.716 81.9225 189.718 80.8477 188.413 80.8477Z" fill="#FF8F00"/>
</g>
<g style="mix-blend-mode:luminosity">
<path d="M125.004 118.34C136.386 115.619 143.408 104.186 140.687 92.8033C137.966 81.4206 126.533 74.399 115.15 77.12C103.767 79.8411 96.7456 91.2743 99.4666 102.657C102.188 114.04 113.621 121.061 125.004 118.34Z" fill="#EF6C00"/>
<path d="M120.081 75.7031C107.95 75.7031 98.0454 85.6075 98.0454 97.7384C98.0454 109.869 107.95 119.774 120.081 119.774C132.212 119.774 142.116 109.869 142.116 97.7384C142.116 85.6075 132.212 75.7031 120.081 75.7031ZM120.081 118.008C108.871 118.008 99.8113 108.948 99.8113 97.7384C99.8113 86.5288 108.871 77.469 120.081 77.469C131.29 77.469 140.35 86.5288 140.35 97.7384C140.35 108.948 131.213 118.008 120.081 118.008Z" fill="#FF8F00"/>
<path d="M106.875 84.8407C103.497 88.2957 101.577 92.9023 101.577 97.7394C101.577 98.2 101.961 98.6607 102.499 98.6607C102.959 98.6607 103.42 98.2768 103.42 97.7394C103.42 93.363 105.109 89.217 108.18 86.0691C108.564 85.6852 108.487 85.1478 108.18 84.8407C107.796 84.4568 107.182 84.4568 106.875 84.8407Z" fill="#F57C00"/>
<path d="M137.586 96.8945C137.126 96.8945 136.665 97.2784 136.665 97.8159C136.665 102.039 135.129 106.031 132.212 109.102C131.905 109.486 131.905 110.024 132.289 110.331C132.442 110.484 132.672 110.561 132.903 110.561C133.133 110.561 133.363 110.484 133.594 110.254C136.742 106.799 138.508 102.423 138.508 97.7391C138.508 97.2784 138.124 96.8945 137.586 96.8945Z" fill="#F57C00"/>
<path d="M112.71 92.2871C111.635 92.2871 110.714 93.2084 110.714 94.2833C110.714 95.3582 111.635 96.2796 112.71 96.2796C113.785 96.2796 114.706 95.3582 114.706 94.2833C114.706 93.1317 113.785 92.2871 112.71 92.2871Z" fill="#D84315"/>
<path d="M127.375 92.2871C126.3 92.2871 125.378 93.2084 125.378 94.2833C125.378 95.3582 126.3 96.2796 127.375 96.2796C128.45 96.2796 129.371 95.3582 129.371 94.2833C129.371 93.1317 128.526 92.2871 127.375 92.2871Z" fill="#D84315"/>
<path d="M112.71 92.2871C111.635 92.2871 110.714 93.2084 110.714 94.2833C110.714 94.3601 110.714 94.5137 110.714 94.5904C110.867 93.6691 111.712 92.9013 112.71 92.9013C113.708 92.9013 114.553 93.6691 114.706 94.5904C114.706 94.5137 114.706 94.3601 114.706 94.2833C114.706 93.1317 113.785 92.2871 112.71 92.2871Z" fill="#BF360C"/>
<path d="M127.375 92.2871C126.3 92.2871 125.378 93.2084 125.378 94.2833C125.378 94.3601 125.378 94.5137 125.378 94.5904C125.532 93.6691 126.377 92.9013 127.375 92.9013C128.373 92.9013 129.217 93.6691 129.371 94.5904C129.371 94.5137 129.371 94.3601 129.371 94.2833C129.371 93.1317 128.526 92.2871 127.375 92.2871Z" fill="#BF360C"/>
<path d="M122.768 103.037H117.24C114.706 103.037 112.633 105.11 112.633 107.644H127.375C127.375 105.11 125.378 103.037 122.768 103.037Z" fill="#D84315"/>
<path d="M117.317 103.037C114.783 103.037 112.71 105.11 112.71 107.644H114.86C115.32 105.571 117.163 104.112 119.313 104.112H124.841C125.225 104.112 125.532 104.189 125.916 104.266C125.071 103.575 123.996 103.114 122.845 103.114H117.317V103.037Z" fill="#BF360C"/>
</g>
<g style="mix-blend-mode:luminosity">
<path d="M91.6718 166.343C99.9472 158.068 99.9472 144.651 91.6718 136.375C83.3964 128.1 69.9793 128.1 61.7039 136.375C53.4285 144.651 53.4285 158.068 61.7039 166.343C69.9793 174.619 83.3964 174.619 91.6718 166.343Z" fill="#E53935"/>
<path d="M76.7013 129.293C64.5704 129.293 54.666 139.197 54.666 151.328C54.666 163.459 64.5704 173.364 76.7013 173.364C88.8322 173.364 98.7366 163.459 98.7366 151.328C98.8133 139.197 88.909 129.293 76.7013 129.293ZM76.7013 171.598C65.4917 171.598 56.4319 162.538 56.4319 151.328C56.4319 140.119 65.4917 131.059 76.7013 131.059C87.9109 131.059 96.9707 140.119 96.9707 151.328C96.9707 162.538 87.9109 171.598 76.7013 171.598Z" fill="#EF5350"/>
<path d="M63.5721 138.43C60.1939 141.885 58.2744 146.492 58.2744 151.329C58.2744 151.789 58.6583 152.25 59.1957 152.25C59.6564 152.25 60.1171 151.866 60.1171 151.329C60.1171 146.952 61.8062 142.806 64.8773 139.658C65.2612 139.274 65.1844 138.737 64.8773 138.43C64.4166 138.046 63.8792 138.123 63.5721 138.43Z" fill="#EF5350"/>
<path d="M94.2835 150.484C93.8228 150.484 93.3622 150.868 93.3622 151.406C93.3622 155.628 91.8266 159.621 88.909 162.692C88.6019 163.076 88.6019 163.613 88.9858 163.921C89.1394 164.074 89.3697 164.151 89.6 164.151C89.8304 164.151 90.0607 164.074 90.291 163.844C93.4389 160.389 95.2048 156.012 95.2048 151.329C95.2048 150.868 94.8209 150.484 94.2835 150.484Z" fill="#EF5350"/>
<path d="M69.4074 145.877C68.3325 145.877 67.4111 146.798 67.4111 147.873C67.4111 148.948 68.3325 149.869 69.4074 149.869C70.4823 149.869 71.4036 148.948 71.4036 147.873C71.3268 146.722 70.4823 145.877 69.4074 145.877Z" fill="#C62828"/>
<path d="M84.0719 145.877C82.997 145.877 82.0757 146.798 82.0757 147.873C82.0757 148.948 82.997 149.869 84.0719 149.869C85.1468 149.869 86.0681 148.948 86.0681 147.873C86.0681 146.722 85.2236 145.877 84.0719 145.877Z" fill="#C62828"/>
<path d="M69.4074 145.877C68.3325 145.877 67.4111 146.798 67.4111 147.873C67.4111 147.95 67.4111 148.104 67.4111 148.18C67.5647 147.259 68.4093 146.491 69.4074 146.491C70.4055 146.491 71.25 147.259 71.4036 148.18C71.4036 148.104 71.4036 147.95 71.4036 147.873C71.3268 146.722 70.4823 145.877 69.4074 145.877Z" fill="#B71C1C"/>
<path d="M84.0719 145.877C82.997 145.877 82.0757 146.798 82.0757 147.873C82.0757 147.95 82.0757 148.104 82.0757 148.18C82.2292 147.259 83.0738 146.491 84.0719 146.491C85.07 146.491 85.9146 147.259 86.0681 148.18C86.0681 148.104 86.0681 147.95 86.0681 147.873C86.0681 146.722 85.2236 145.877 84.0719 145.877Z" fill="#B71C1C"/>
<path d="M80.0794 155.704C77.8528 155.474 75.6263 155.474 73.3997 155.704C70.2518 156.088 68.4859 158.929 69.4073 161.309C74.1675 159.773 79.3116 159.773 84.1486 161.309C84.9932 158.852 83.2273 156.088 80.0794 155.704Z" fill="#C62828"/>
<path d="M80.0794 155.704C77.8528 155.474 75.6263 155.474 73.3997 155.704C70.2518 156.088 68.4859 158.929 69.4073 161.309C70.0983 161.078 70.7893 160.925 71.4803 160.771C71.4803 158.698 73.2462 156.702 75.8566 156.625C78.0064 156.549 80.1562 156.702 82.2292 157.163C82.6899 157.24 83.0737 157.393 83.4576 157.547C82.6899 156.549 81.4614 155.858 80.0794 155.704Z" fill="#B71C1C"/>
</g>
<path d="M35.7786 75.2422C35.3947 75.7796 35.0108 76.2403 34.627 76.7777L63.1884 97.5078L140.504 153.632C140.657 153.402 140.888 153.095 141.041 152.865C141.195 152.634 141.425 152.327 141.579 152.097L64.34 95.9722L35.7786 75.2422Z" fill="#F5F5F5"/>
<path d="M128.219 8.75195C127.605 8.98229 126.991 9.13584 126.377 9.36618L137.279 42.9949L166.839 133.823C167.146 133.746 167.453 133.593 167.76 133.516C168.067 133.439 168.374 133.363 168.681 133.209L139.122 42.3807L128.219 8.75195Z" fill="#F5F5F5"/>
<path d="M242.081 9.29001C241.467 9.05967 240.853 8.90612 240.238 8.67578L229.336 42.3045L199.853 133.133C200.16 133.21 200.467 133.286 200.775 133.44C201.082 133.517 201.389 133.67 201.696 133.747L231.179 42.9187L242.081 9.29001Z" fill="#F5F5F5"/>
<path d="M332.679 75.166L304.118 95.8961L226.879 152.021C227.109 152.251 227.263 152.558 227.493 152.789C227.647 153.019 227.877 153.326 228.031 153.556L305.269 97.4316L333.831 76.7016C333.447 76.2409 333.063 75.7035 332.679 75.166Z" fill="#F5F5F5"/>
<path d="M292.601 149.872L185.573 156.552L186.647 165.151L187.722 173.75L293.215 154.325C297.284 153.634 296.747 149.565 292.601 149.872Z" fill="#424242"/>
<path d="M185.845 183.209C195.693 182.42 203.037 173.797 202.249 163.949C201.46 154.1 192.837 146.756 182.989 147.545C173.14 148.333 165.796 156.956 166.585 166.805C167.373 176.653 175.996 183.997 185.845 183.209Z" fill="#424242"/>
<path d="M194.556 164.152C193.865 158.547 188.797 154.555 183.192 155.246C177.588 155.937 173.595 161.004 174.286 166.609C174.977 172.214 180.045 176.206 185.649 175.515C191.254 174.824 195.247 169.757 194.556 164.152Z" fill="#616161"/>
<path d="M194.394 166.465C195.076 160.867 191.09 155.775 185.492 155.094C179.893 154.412 174.802 158.397 174.12 163.996C173.438 169.594 177.424 174.686 183.022 175.367C188.621 176.049 193.712 172.063 194.394 166.465Z" fill="#616161"/>
</g>
<defs>
<linearGradient id="paint0_linear_2678_636" x1="184.267" y1="0" x2="184.267" y2="214.238" gradientUnits="userSpaceOnUse">
<stop stop-color="#EAF6FF"/>
<stop offset="1" stop-color="white"/>
</linearGradient>
<clipPath id="clip0_2678_636">
<rect width="369" height="185" fill="white"/>
</clipPath>
</defs>
</svg>
