<svg width="27" height="28" viewBox="0 0 27 28" fill="none" xmlns="http://www.w3.org/2000/svg">
<path d="M14.4423 12.5141C14.4423 11.994 14.0206 11.5723 13.5005 11.5723C12.9803 11.5723 12.5586 11.994 12.5586 12.5141V20.049C12.5586 20.5692 12.9803 20.9909 13.5005 20.9909C14.0206 20.9909 14.4423 20.5692 14.4423 20.049V12.5141Z" fill="white"/>
<path fill-rule="evenodd" clip-rule="evenodd" d="M13.5 0.269531C6.04416 0.269531 0 6.31369 0 13.7695C0 21.2254 6.04416 27.2695 13.5 27.2695C20.9559 27.2695 27 21.2254 27 13.7695C27 6.31369 20.9559 0.269531 13.5 0.269531ZM1.88372 13.7695C1.88372 7.35404 7.08451 2.15325 13.5 2.15325C19.9155 2.15325 25.1163 7.35404 25.1163 13.7695C25.1163 20.185 19.9155 25.3858 13.5 25.3858C7.08451 25.3858 1.88372 20.185 1.88372 13.7695Z" fill="white"/>
<path d="M14.7558 8.74605C14.7558 9.43961 14.1935 10.0019 13.5 10.0019C12.8064 10.0019 12.2441 9.43961 12.2441 8.74605C12.2441 8.05249 12.8064 7.49023 13.5 7.49023C14.1935 7.49023 14.7558 8.05249 14.7558 8.74605Z" fill="white"/>
</svg>
