<svg width="28" height="29" viewBox="0 0 28 29" fill="none" xmlns="http://www.w3.org/2000/svg">
<path d="M23.8995 4.25919C21.2553 1.61496 17.7395 0.158691 14 0.158691C10.2605 0.158691 6.74472 1.61496 4.10049 4.25919C1.45627 6.90341 0 10.4192 0 14.1587C0 17.8982 1.45627 21.414 4.10049 24.0582C6.74472 26.7024 10.2605 28.1587 14 28.1587C17.7395 28.1587 21.2553 26.7024 23.8995 24.0582C26.5437 21.414 28 17.8982 28 14.1587C28 10.4192 26.5437 6.90341 23.8995 4.25919ZM6.07608 23.6359C6.53836 19.6582 9.95825 16.5872 14 16.5872C16.1307 16.5872 18.1342 17.4173 19.6414 18.9242C20.9146 20.1976 21.7176 21.8602 21.9241 23.6357C19.7772 25.4337 17.0129 26.5181 14 26.5181C10.9871 26.5181 8.22299 25.4339 6.07608 23.6359ZM14 14.8974C11.6555 14.8974 9.74783 12.9897 9.74783 10.6452C9.74783 8.30051 11.6555 6.39307 14 6.39307C16.3445 6.39307 18.2522 8.30051 18.2522 10.6452C18.2522 12.9897 16.3445 14.8974 14 14.8974ZM23.3362 22.2488C22.9181 20.5633 22.0463 19.0092 20.8013 17.7642C19.793 16.7559 18.6002 15.9995 17.2992 15.5255C18.8631 14.4648 19.8928 12.6729 19.8928 10.6452C19.8928 7.39603 17.2492 4.75244 14 4.75244C10.7508 4.75244 8.10721 7.39603 8.10721 10.6452C8.10721 12.674 9.13773 14.4665 10.7029 15.5269C9.50601 15.9632 8.39838 16.6376 7.4454 17.5254C6.0654 18.8105 5.10709 20.4492 4.66275 22.2475C2.78094 20.0782 1.64062 17.2492 1.64062 14.1587C1.64062 7.34369 7.185 1.79932 14 1.79932C20.815 1.79932 26.3594 7.34369 26.3594 14.1587C26.3594 17.2498 25.2186 20.0795 23.3362 22.2488Z" fill="white"/>
</svg>
