<svg width="26" height="26" viewBox="0 0 26 26" fill="none" xmlns="http://www.w3.org/2000/svg">
<path d="M19.5649 23.7641C18.2909 24.9991 16.8999 24.804 15.5609 24.219C14.1439 23.621 12.8439 23.595 11.3489 24.219C9.47692 25.025 8.48892 24.7911 7.37092 23.7641C1.02692 17.225 1.96292 7.26705 9.16492 6.90305C10.9199 6.99405 12.1419 7.86505 13.1689 7.94305C14.7029 7.63105 16.1719 6.73405 17.8099 6.85105C19.7729 7.00705 21.2549 7.78705 22.2299 9.19105C18.1739 11.622 19.1359 16.9651 22.8539 18.4601C22.1129 20.4101 21.1509 22.3471 19.5519 23.7771L19.5649 23.7641ZM13.0389 6.82505C12.8439 3.92605 15.1969 1.53405 17.9009 1.30005C18.2779 4.65405 14.8589 7.15005 13.0389 6.82505Z" fill="url(#paint0_linear_135_355)"/>
<defs>
<linearGradient id="paint0_linear_135_355" x1="12.9953" y1="1.30005" x2="12.9953" y2="24.703" gradientUnits="userSpaceOnUse">
<stop/>
<stop offset="1" stop-color="#666666"/>
</linearGradient>
</defs>
</svg>
