<svg width="22" height="23" viewBox="0 0 22 23" fill="none" xmlns="http://www.w3.org/2000/svg">
<path d="M19.9806 5.12016L13.5639 0.789828C12.0065 -0.260672 9.9935 -0.260672 8.43608 0.789828L2.01942 5.12016C0.754417 5.97449 0 7.39441 0 8.92066V17.4594C0 19.9867 2.05608 22.0427 4.58333 22.0427H17.4167C19.9439 22.0427 22 19.9867 22 17.4594V8.92066C22 7.39533 21.2456 5.97449 19.9806 5.12016ZM7.33333 20.2094C7.33333 18.1872 8.97783 16.5427 11 16.5427C13.0222 16.5427 14.6667 18.1872 14.6667 20.2094H7.33333ZM20.1667 17.4594C20.1667 18.9756 18.9328 20.2094 17.4167 20.2094H16.5C16.5 17.1762 14.0332 14.7094 11 14.7094C7.96675 14.7094 5.5 17.1762 5.5 20.2094H4.58333C3.06717 20.2094 1.83333 18.9756 1.83333 17.4594V8.92066C1.83333 8.00491 2.28617 7.15241 3.04517 6.64091L9.46183 2.31058C9.92933 1.99524 10.4647 1.83758 11 1.83758C11.5353 1.83758 12.0707 1.99524 12.5382 2.31058L18.9548 6.64091C19.7138 7.15333 20.1667 8.00491 20.1667 8.92066V17.4594ZM11 6.45941C8.97783 6.45941 7.33333 8.10391 7.33333 10.1261C7.33333 12.1482 8.97783 13.7927 11 13.7927C13.0222 13.7927 14.6667 12.1482 14.6667 10.1261C14.6667 8.10391 13.0222 6.45941 11 6.45941ZM11 11.9594C9.98892 11.9594 9.16667 11.1372 9.16667 10.1261C9.16667 9.115 9.98892 8.29275 11 8.29275C12.0111 8.29275 12.8333 9.115 12.8333 10.1261C12.8333 11.1372 12.0111 11.9594 11 11.9594Z" fill="#3A81E1"/>
</svg>
