<svg width="22" height="22" viewBox="0 0 22 22" fill="none" xmlns="http://www.w3.org/2000/svg">
<path d="M17.4167 1.83333H16.5V0.916667C16.5 0.410667 16.0893 0 15.5833 0C15.0773 0 14.6667 0.410667 14.6667 0.916667V1.83333H7.33333V0.916667C7.33333 0.410667 6.92267 0 6.41667 0C5.91067 0 5.5 0.410667 5.5 0.916667V1.83333H4.58333C2.05608 1.83333 0 3.88942 0 6.41667V17.4167C0 19.9439 2.05608 22 4.58333 22H17.4167C19.9439 22 22 19.9439 22 17.4167V6.41667C22 3.88942 19.9439 1.83333 17.4167 1.83333ZM4.58333 3.66667H17.4167C18.9328 3.66667 20.1667 4.9005 20.1667 6.41667V7.33333H1.83333V6.41667C1.83333 4.9005 3.06717 3.66667 4.58333 3.66667ZM17.4167 20.1667H4.58333C3.06717 20.1667 1.83333 18.9328 1.83333 17.4167V9.16667H20.1667V17.4167C20.1667 18.9328 18.9328 20.1667 17.4167 20.1667ZM14.6667 14.6667C14.6667 15.1727 14.256 15.5833 13.75 15.5833H8.25C7.744 15.5833 7.33333 15.1727 7.33333 14.6667C7.33333 14.1607 7.744 13.75 8.25 13.75H13.75C14.256 13.75 14.6667 14.1607 14.6667 14.6667Z" fill="#3A81E1"/>
</svg>
