<svg width="24" height="23" viewBox="0 0 24 23" fill="none" xmlns="http://www.w3.org/2000/svg">
<path d="M12 8.85061e-05C10.2361 -0.00688359 8.49502 0.398157 6.91536 1.18294C6.81062 1.22521 6.71572 1.28862 6.63659 1.36921C6.55746 1.44981 6.49581 1.54586 6.45547 1.65135C6.41514 1.75685 6.397 1.86953 6.40218 1.98236C6.40736 2.09519 6.43575 2.20573 6.48558 2.30709C6.53541 2.40845 6.60561 2.49845 6.69179 2.57145C6.77796 2.64446 6.87827 2.69891 6.98644 2.7314C7.09462 2.76389 7.20833 2.77372 7.32047 2.76028C7.43261 2.74684 7.54078 2.71042 7.63821 2.6533C9.14158 1.91148 10.8093 1.56534 12.4837 1.64761C14.1581 1.72988 15.7839 2.23783 17.2073 3.12345C18.6307 4.00907 19.8047 5.24309 20.6184 6.70884C21.432 8.17459 21.8583 9.82364 21.8571 11.5001C21.8571 15.5086 19.705 19.9772 16.1071 20.5358C15.725 20.6271 15.3276 20.6332 14.9429 20.5537C14.5582 20.4742 14.1957 20.311 13.8811 20.0758C13.1662 19.2859 12.7863 18.2491 12.8214 17.1843C14.1888 16.987 15.4393 16.3039 16.3444 15.2601C17.2494 14.2163 17.7484 12.8816 17.75 11.5001V6.5715C17.75 6.35365 17.6634 6.14471 17.5094 5.99067C17.3553 5.83662 17.1464 5.75008 16.9285 5.75008H14.4643C14.2464 5.75008 14.0375 5.83662 13.8834 5.99067C13.7294 6.14471 13.6428 6.35365 13.6428 6.5715C13.6428 6.78936 13.7294 6.99829 13.8834 7.15234C14.0375 7.30639 14.2464 7.39293 14.4643 7.39293H16.1071V11.5001C16.1071 12.5893 15.6744 13.634 14.9042 14.4042C14.1339 15.1745 13.0893 15.6072 12 15.6072C10.9107 15.6072 9.86604 15.1745 9.09581 14.4042C8.32557 13.634 7.89285 12.5893 7.89285 11.5001V7.39293H9.53571C9.75356 7.39293 9.9625 7.30639 10.1165 7.15234C10.2706 6.99829 10.3571 6.78936 10.3571 6.5715C10.3571 6.35365 10.2706 6.14471 10.1165 5.99067C9.9625 5.83662 9.75356 5.75008 9.53571 5.75008H7.07143C6.85357 5.75008 6.64464 5.83662 6.49059 5.99067C6.33654 6.14471 6.25 6.35365 6.25 6.5715V11.5001C6.25162 12.8816 6.75058 14.2163 7.65561 15.2601C8.56064 16.3039 9.81122 16.987 11.1786 17.1843C11.2853 19.0736 11.8193 20.47 12.7721 21.2915C13.5154 21.9126 14.4662 22.2295 15.4336 22.1786C15.7357 22.1789 16.0375 22.1597 16.3371 22.1211C20.9864 21.4475 23.5 16.1411 23.5 11.5001C23.5 8.45008 22.2884 5.52502 20.1317 3.36835C17.975 1.21169 15.05 8.85061e-05 12 8.85061e-05Z" fill="#3A81E1"/>
<path d="M4.60663 16.4285C4.25426 16.4338 3.90495 16.4948 3.57163 16.6092C2.44562 14.7528 1.96405 12.5765 2.20171 10.4183C2.43936 8.26016 3.38293 6.24083 4.88592 4.67389C4.96994 4.59833 5.03747 4.50624 5.08428 4.40339C5.13109 4.30053 5.15617 4.18913 5.15796 4.07614C5.15975 3.96315 5.13821 3.851 5.09468 3.74672C5.05116 3.64244 4.98658 3.54825 4.90499 3.47007C4.8234 3.39188 4.72656 3.33136 4.62052 3.29231C4.51448 3.25326 4.40152 3.2365 4.28871 3.2431C4.17589 3.24969 4.06566 3.27949 3.96489 3.33064C3.86412 3.38178 3.77499 3.45316 3.70306 3.54032C1.94371 5.37389 0.841207 7.73854 0.567766 10.2649C0.294325 12.7913 0.865348 15.337 2.19164 17.5046C1.68449 18.0627 1.38477 18.7783 1.3428 19.5313C1.30083 20.2843 1.51916 21.0288 1.96114 21.6398C2.40312 22.2509 3.04185 22.6913 3.77012 22.8871C4.49839 23.083 5.27186 23.0224 5.96071 22.7154C6.64957 22.4085 7.21187 21.8739 7.55323 21.2015C7.8946 20.529 7.99426 19.7596 7.83547 19.0224C7.67668 18.2851 7.26912 17.625 6.6812 17.1526C6.09327 16.6803 5.36076 16.4247 4.60663 16.4285ZM4.60663 21.3571C4.28171 21.3571 3.96408 21.2607 3.69391 21.0802C3.42375 20.8997 3.21318 20.6431 3.08883 20.3429C2.96449 20.0427 2.93196 19.7124 2.99535 19.3937C3.05874 19.075 3.2152 18.7823 3.44496 18.5525C3.67472 18.3228 3.96745 18.1663 4.28613 18.1029C4.60481 18.0395 4.93513 18.0721 5.23533 18.1964C5.53552 18.3208 5.7921 18.5313 5.97262 18.8015C6.15313 19.0717 6.24949 19.3893 6.24949 19.7142C6.24949 20.1499 6.0764 20.5678 5.7683 20.8759C5.46021 21.184 5.04234 21.3571 4.60663 21.3571Z" fill="#3A81E1"/>
</svg>
