<svg width="26" height="21" viewBox="0 0 26 21" fill="none" xmlns="http://www.w3.org/2000/svg">
<path d="M23.3699 14.7931V14.773V6.49528C23.3699 5.82956 23.1996 5.20186 22.9008 4.65398L16.6459 10.9088L23.3699 14.7931ZM23.3699 14.7931C23.3591 16.9167 21.6282 18.6382 19.5047 18.6382H6.49533C4.36516 18.6382 2.63001 16.9058 2.63001 14.773V6.49528C2.63001 5.82961 2.80042 5.20188 3.0992 4.65398L9.35401 10.9088L23.3699 14.7931ZM13.0014 12.4155C11.62 12.4155 10.3227 11.8803 9.35412 10.9089L13.0014 12.4155ZM13.0014 12.4155C14.38 12.4155 15.6772 11.8803 16.6458 10.9089L13.0014 12.4155ZM6.49533 2.63001H19.5047C20.3432 2.63001 21.1202 2.90045 21.7538 3.35498L15.4244 9.68718C14.7795 10.3293 13.9191 10.6855 13.0014 10.6855C12.0808 10.6855 11.2205 10.3293 10.5756 9.68718L4.24614 3.35498C4.87984 2.90045 5.65688 2.63001 6.49533 2.63001ZM19.5047 0.9H6.49533C3.41059 0.9 0.9 3.41059 0.9 6.49533V14.773C0.9 17.8606 3.41063 20.3684 6.49533 20.3684H19.5047C22.5894 20.3684 25.1 17.8606 25.1 14.773V6.49528C25.1 3.41054 22.5894 0.9 19.5047 0.9Z" fill="#3A81E1" stroke="white" stroke-width="0.2"/>
</svg>
