<svg width="24" height="20" viewBox="0 0 24 20" fill="none" xmlns="http://www.w3.org/2000/svg">
<path fill-rule="evenodd" clip-rule="evenodd" d="M22.47 13.773C22.47 15.9611 20.6901 17.7382 18.5047 17.7382H5.49533C3.30998 17.7382 1.53001 15.9611 1.53001 13.773V5.49528C1.53001 4.76499 1.72997 4.07909 2.07704 3.4904L8.42483 9.83819C9.37451 10.7906 10.6463 11.3155 12.0014 11.3155C13.3537 11.3155 14.6254 10.7906 15.5751 9.83819L21.9229 3.4904C22.27 4.07909 22.4699 4.76494 22.4699 5.49528V13.773H22.47ZM18.5047 1.53001H5.49533C4.59287 1.53001 3.75979 1.83544 3.09337 2.3436L9.50503 8.75804C10.1687 9.41889 11.0545 9.78545 12.0014 9.78545C12.9455 9.78545 13.8313 9.41889 14.4949 8.75804L20.9066 2.3436C20.2402 1.83544 19.4072 1.53001 18.5047 1.53001ZM18.5047 0H5.49533C2.46582 0 0 2.46582 0 5.49533V13.773C0 16.8053 2.46582 19.2684 5.49533 19.2684H18.5047C21.5342 19.2684 24 16.8053 24 13.773V5.49528C24 2.46577 21.5342 0 18.5047 0Z" fill="url(#paint0_linear_3_162)"/>
<defs>
<linearGradient id="paint0_linear_3_162" x1="12.5" y1="1" x2="12.5" y2="17" gradientUnits="userSpaceOnUse">
<stop stop-color="#75EC99"/>
<stop offset="1" stop-color="#75B5EB"/>
</linearGradient>
</defs>
</svg>
