<svg width="12" height="22" viewBox="0 0 12 22" fill="none" xmlns="http://www.w3.org/2000/svg">
<path d="M3.30413 12.418C3.22153 12.418 1.40426 12.418 0.578223 12.418C0.137672 12.418 0 12.2528 0 11.8398C0 10.7384 0 9.60951 0 8.50813C0 8.06758 0.165207 7.92991 0.578223 7.92991H3.30413C3.30413 7.84731 3.30413 6.25031 3.30413 5.50688C3.30413 4.40551 3.49687 3.3592 4.04756 2.39549C4.62578 1.40425 5.45181 0.743429 6.49812 0.357947C7.18648 0.110137 7.87484 0 8.61827 0H11.3166C11.7021 0 11.8673 0.165207 11.8673 0.550688V3.68961C11.8673 4.07509 11.7021 4.2403 11.3166 4.2403C10.5732 4.2403 9.82979 4.2403 9.08636 4.26783C8.34293 4.26783 7.95745 4.62578 7.95745 5.39675C7.92991 6.22278 7.95745 7.02128 7.95745 7.87484H11.1514C11.592 7.87484 11.7572 8.04005 11.7572 8.4806V11.8123C11.7572 12.2528 11.6195 12.3905 11.1514 12.3905C10.1602 12.3905 8.04005 12.3905 7.95745 12.3905V21.3667C7.95745 21.8348 7.81977 22 7.32415 22C6.16771 22 5.0388 22 3.88235 22C3.46934 22 3.30413 21.8348 3.30413 21.4218C3.30413 18.5307 3.30413 12.5006 3.30413 12.418Z" fill="url(#paint0_linear_3_168)"/>
<defs>
<linearGradient id="paint0_linear_3_168" x1="11.8673" y1="11" x2="0" y2="11" gradientUnits="userSpaceOnUse">
<stop stop-color="#75E9F0"/>
<stop offset="1" stop-color="#757CF0"/>
</linearGradient>
</defs>
</svg>
