<svg width="22" height="22" viewBox="0 0 22 22" fill="none" xmlns="http://www.w3.org/2000/svg">
<path d="M20.1661 0.000488281H16.4983C16.2551 0.000488281 16.0219 0.0970947 15.8499 0.269055C15.678 0.441016 15.5814 0.674244 15.5814 0.917433C15.5814 1.16062 15.678 1.39385 15.8499 1.56581C16.0219 1.73777 16.2551 1.83438 16.4983 1.83438H18.8695L16.6689 4.03505C15.6653 3.27718 14.4597 2.83361 13.2042 2.76034C11.9488 2.68706 10.6998 2.98737 9.61482 3.62334C8.79711 3.15084 7.88508 2.8649 6.94397 2.786C6.00287 2.70709 5.05595 2.83716 4.17098 3.1669C3.28601 3.49664 2.48485 4.0179 1.82484 4.69339C1.16482 5.36888 0.662253 6.18189 0.353098 7.07427C0.0439429 7.96664 -0.0641599 8.91631 0.036524 9.85534C0.137208 10.7944 0.444189 11.6995 0.935505 12.5061C1.42682 13.3126 2.09033 14.0006 2.87855 14.5208C3.66677 15.041 4.56022 15.3806 5.49499 15.5152V17.4224H3.6611C3.41791 17.4224 3.18468 17.5191 3.01272 17.691C2.84076 17.863 2.74415 18.0962 2.74415 18.3394C2.74415 18.5826 2.84076 18.8158 3.01272 18.9878C3.18468 19.1597 3.41791 19.2563 3.6611 19.2563H5.49499V21.0902C5.49499 21.3334 5.59159 21.5666 5.76355 21.7386C5.93551 21.9106 6.16874 22.0072 6.41193 22.0072C6.65512 22.0072 6.88835 21.9106 7.06031 21.7386C7.23227 21.5666 7.32888 21.3334 7.32888 21.0902V19.2563H9.16277C9.40596 19.2563 9.63918 19.1597 9.81114 18.9878C9.98311 18.8158 10.0797 18.5826 10.0797 18.3394C10.0797 18.0962 9.98311 17.863 9.81114 17.691C9.63918 17.5191 9.40596 17.4224 9.16277 17.4224H7.32888V15.5216C8.13492 15.4015 8.91037 15.1276 9.61299 14.7147C10.8905 15.4619 12.3873 15.7437 13.849 15.5122C15.3108 15.2808 16.6473 14.5503 17.6314 13.4449C18.6156 12.3396 19.1866 10.9276 19.2475 9.44885C19.3084 7.97014 18.8554 6.51596 17.9654 5.33344L20.1661 3.13277V5.50216C20.1661 5.74535 20.2627 5.97858 20.4347 6.15054C20.6066 6.3225 20.8399 6.4191 21.0831 6.4191C21.3262 6.4191 21.5595 6.3225 21.7314 6.15054C21.9034 5.97858 22 5.74535 22 5.50216V1.83438C22 1.348 21.8068 0.881543 21.4629 0.537622C21.1189 0.193701 20.6525 0.000488281 20.1661 0.000488281ZM1.82721 9.16994C1.82286 8.42524 2.00104 7.69082 2.34617 7.03091C2.6913 6.371 3.19286 5.80571 3.80699 5.38447C4.42112 4.96323 5.1291 4.69888 5.86902 4.61453C6.60894 4.53019 7.35826 4.62842 8.05143 4.90064C6.99597 6.07215 6.41188 7.5931 6.41188 9.16994C6.41188 10.7468 6.99597 12.2677 8.05143 13.4392C7.35826 13.7115 6.60894 13.8097 5.86902 13.7253C5.1291 13.641 4.42112 13.3766 3.80699 12.9554C3.19286 12.5342 2.6913 11.9689 2.34617 11.309C2.00104 10.6491 1.82286 9.91464 1.82721 9.16994ZM12.8305 13.7547C11.9238 13.7547 11.0374 13.4858 10.2834 12.982C9.52946 12.4782 8.94182 11.7622 8.59481 10.9244C8.24781 10.0867 8.15701 9.16485 8.33392 8.2755C8.51082 7.38615 8.94747 6.56923 9.58866 5.92805C10.2298 5.28686 11.0468 4.85021 11.9361 4.67331C12.8255 4.49641 13.7473 4.5872 14.585 4.93421C15.4228 5.28121 16.1388 5.86885 16.6426 6.6228C17.1464 7.37676 17.4153 8.26317 17.4153 9.16994C17.4138 10.3854 16.9303 11.5507 16.0708 12.4102C15.2113 13.2697 14.046 13.7532 12.8305 13.7547Z" fill="#3A81E1"/>
</svg>
