<svg width="20" height="20" viewBox="0 0 20 20" fill="none" xmlns="http://www.w3.org/2000/svg">
<path d="M0 10C0 4.486 4.486 0 10 0C12.227 0 14.3348 0.716476 16.0956 2.072L13.7718 5.09067C12.683 4.25257 11.3788 3.80952 10 3.80952C6.58657 3.80952 3.80952 6.58657 3.80952 10C3.80952 13.4134 6.58657 16.1905 10 16.1905C12.7492 16.1905 15.0855 14.3892 15.8907 11.9048H10V8.09524H20V10C20 15.514 15.514 20 10 20C4.486 20 0 15.514 0 10Z" fill="url(#paint0_linear_3_175)"/>
<defs>
<linearGradient id="paint0_linear_3_175" x1="0" y1="10" x2="20" y2="10" gradientUnits="userSpaceOnUse">
<stop stop-color="#EB77CA"/>
<stop offset="1" stop-color="#968FFB"/>
</linearGradient>
</defs>
</svg>
