<svg width="24" height="31" viewBox="0 0 24 31" fill="none" xmlns="http://www.w3.org/2000/svg">
<path d="M11.9912 21.855C16.7582 21.855 20.9102 25.1783 21.8633 29.7622L21.8652 29.772V29.7837C21.9335 30.162 21.6895 30.5243 21.3115 30.603L21.3125 30.604C20.9794 30.6805 20.6444 30.4958 20.5127 30.1899L20.4697 30.0522C19.6527 26.1291 16.0878 23.2788 11.9902 23.2788C8.02083 23.2789 4.55139 25.9522 3.59668 29.687L3.5127 30.0522C3.44284 30.3883 3.14649 30.6187 2.81641 30.6187C2.76984 30.6186 2.72156 30.6135 2.67188 30.6021V30.603C2.28617 30.5233 2.03966 30.1476 2.11914 29.7622L2.21777 29.3354C3.33246 24.9734 7.37352 21.8552 11.9912 21.855ZM5.29297 3.30615C7.57927 1.57192 10.4014 0.801067 13.2998 1.13428L13.7598 1.19775C18.486 1.94938 22.3309 5.82437 22.9912 10.5815L23.0352 10.9419C23.2148 12.6231 23.0204 14.3165 22.4668 15.8823L22.3428 16.2163C21.5463 18.2487 19.4729 19.6099 17.1885 19.6099H11.9912C10.5868 19.6096 9.44532 18.4674 9.44531 17.063C9.44531 15.6585 10.5868 14.5164 11.9912 14.5161C13.3958 14.5161 14.5381 15.6584 14.5381 17.063C14.5381 17.4656 14.4439 17.8472 14.2764 18.186H17.1885C18.899 18.186 20.4359 17.1819 21.0166 15.6968L21.124 15.4067C21.607 14.0431 21.777 12.5636 21.6201 11.0913L21.582 10.7769C21.0062 6.63604 17.6543 3.25786 13.5381 2.604L13.1377 2.54932C10.6054 2.25635 8.14425 2.92887 6.15137 4.43994L5.75977 4.75342C3.85484 6.35637 2.63404 8.64878 2.36328 11.106L2.32227 11.5991C2.29962 11.9898 1.9646 12.2995 1.56836 12.2681V12.2671C1.17621 12.2445 0.878925 11.9085 0.901367 11.5171L0.949219 10.9507C1.26007 8.13286 2.65903 5.5033 4.84277 3.66553L5.29297 3.30615ZM11.9912 15.9399C11.3725 15.9402 10.8682 16.4431 10.8682 17.063C10.8682 17.6828 11.3725 18.1858 11.9912 18.186C12.6101 18.186 13.1152 17.683 13.1152 17.063C13.1152 16.443 12.6101 15.9399 11.9912 15.9399ZM11.9912 4.729C16.0945 4.729 19.4316 8.06619 19.4316 12.1694C19.4316 13.3607 19.1592 14.4995 18.6211 15.5522L18.6201 15.5532C18.462 15.8588 18.112 16.0018 17.7959 15.9146L17.6631 15.8628C17.3132 15.6836 17.173 15.252 17.3525 14.9028C17.7868 14.0522 18.0088 13.1334 18.0088 12.1694C18.0087 8.85193 15.3087 6.15283 11.9912 6.15283C8.6739 6.15307 5.97468 8.85208 5.97461 12.1694C5.97461 13.5641 6.46377 14.924 7.35059 15.9985L7.43066 16.1187C7.56376 16.3691 7.53443 16.6771 7.35645 16.8979L7.25488 17.0005C7.12224 17.1103 6.96078 17.1626 6.80176 17.1626C6.6228 17.1625 6.44463 17.0954 6.30859 16.9644L6.25293 16.9038C5.15674 15.5757 4.55176 13.8943 4.55176 12.1694C4.55182 8.06633 7.88815 4.72924 11.9912 4.729Z" fill="white" stroke="white" stroke-width="0.2"/>
</svg>
