<svg width="24" height="24" viewBox="0 0 24 24" fill="none" xmlns="http://www.w3.org/2000/svg">
<path d="M23.121 9.04762L15.536 1.46162C14.5972 0.525615 13.3257 0 12 0C10.6743 0 9.40276 0.525615 8.464 1.46162L0.879011 9.04762C0.599437 9.3254 0.377782 9.65592 0.226894 10.02C0.0760072 10.3841 -0.0011104 10.7745 1.20795e-05 11.1686V20.9856C1.20795e-05 21.7813 0.316082 22.5443 0.878691 23.1069C1.4413 23.6695 2.20436 23.9856 3.00001 23.9856H21C21.7956 23.9856 22.5587 23.6695 23.1213 23.1069C23.6839 22.5443 24 21.7813 24 20.9856V11.1686C24.0011 10.7745 23.924 10.3841 23.7731 10.02C23.6222 9.65592 23.4006 9.3254 23.121 9.04762ZM15 21.9856H9V18.0516C9 17.256 9.31607 16.4929 9.87868 15.9303C10.4413 15.3677 11.2044 15.0516 12 15.0516C12.7956 15.0516 13.5587 15.3677 14.1213 15.9303C14.6839 16.4929 15 17.256 15 18.0516V21.9856ZM22 20.9856C22 21.2508 21.8946 21.5052 21.7071 21.6927C21.5196 21.8802 21.2652 21.9856 21 21.9856H17V18.0516C17 16.7255 16.4732 15.4538 15.5355 14.5161C14.5978 13.5784 13.3261 13.0516 12 13.0516C10.6739 13.0516 9.40215 13.5784 8.46447 14.5161C7.52679 15.4538 7 16.7255 7 18.0516V21.9856H3.00001C2.73479 21.9856 2.48044 21.8802 2.2929 21.6927C2.10537 21.5052 2.00001 21.2508 2.00001 20.9856V11.1686C2.00094 10.9036 2.1062 10.6496 2.29301 10.4616L9.878 2.87862C10.4417 2.31755 11.2047 2.00257 12 2.00257C12.7953 2.00257 13.5583 2.31755 14.122 2.87862L21.707 10.4646C21.8931 10.6519 21.9983 10.9046 22 11.1686V20.9856Z" fill="url(#paint0_linear_3_3302)"/>
<defs>
<linearGradient id="paint0_linear_3_3302" x1="24" y1="4.90614" x2="5.9042" y2="15.2425" gradientUnits="userSpaceOnUse">
<stop stop-color="#3ABAEB"/>
<stop offset="1" stop-color="#4D66E2"/>
</linearGradient>
</defs>
</svg>
