<svg width="29" height="26" viewBox="0 0 29 26" fill="none" xmlns="http://www.w3.org/2000/svg">
<path d="M12.9717 1.06201C16.2206 1.06204 19.2687 2.33448 21.5537 4.64502L21.6064 4.70459C21.8355 4.98869 21.8338 5.39668 21.6016 5.67822L21.5479 5.73682C21.2636 6.01778 20.8162 6.03277 20.5146 5.78369L20.457 5.73096C18.4638 3.7153 15.8056 2.60501 12.9717 2.60498C7.16651 2.60498 2.44336 7.32819 2.44336 13.1333C2.44346 18.9383 7.16663 23.6616 12.9717 23.6616C15.8057 23.6616 18.4638 22.5513 20.457 20.5356L20.5146 20.4829C20.8164 20.2336 21.2636 20.2488 21.5479 20.5298L21.6016 20.5874C21.834 20.8691 21.8358 21.2778 21.6064 21.562L21.5537 21.6206C19.2687 23.9313 16.2208 25.2046 12.9717 25.2046C9.94906 25.2046 7.09551 24.1009 4.87207 22.0845L4.43555 21.6685C2.15594 19.3887 0.900438 16.3573 0.900391 13.1333C0.900391 9.90908 2.1557 6.87702 4.43555 4.59717L4.87207 4.18213C7.09549 2.16563 9.94893 1.06201 12.9717 1.06201ZM23.1523 8.84521C23.4554 8.59828 23.9021 8.61565 24.1846 8.89795L27.874 12.5874L27.9268 12.646C28.1577 12.929 28.1578 13.3376 27.9268 13.6206L27.874 13.6792L24.1846 17.3677C24.0339 17.5183 23.836 17.5942 23.6387 17.5942C23.4663 17.5941 23.2936 17.5365 23.1523 17.4214L23.0938 17.3677C22.7925 17.0663 22.7924 16.5783 23.0938 16.2769L25.4648 13.9048H12.9717C12.5456 13.9048 12.2003 13.5594 12.2002 13.1333C12.2002 12.7071 12.5455 12.3618 12.9717 12.3618H25.4658L23.0938 9.98975C22.7923 9.68834 22.7924 9.19934 23.0938 8.89795L23.1523 8.84521Z" fill="white" stroke="white" stroke-width="0.2"/>
</svg>
