<svg width="20" height="24" viewBox="0 0 20 24" fill="none" xmlns="http://www.w3.org/2000/svg">
<path d="M9.9995 24.0024L2.93226 17.0903C-0.976085 13.1809 -0.976085 6.8331 2.92426 2.93176C4.81439 1.04062 7.3269 0 9.9995 0C12.6721 0 15.1846 1.04062 17.0747 2.93076C20.9751 6.8321 20.9751 13.1799 17.0747 17.0812L9.9995 24.0024ZM9.9995 2.0022C7.86122 2.0022 5.85101 2.8347 4.3391 4.34661C1.21823 7.46748 1.21823 12.5455 4.3391 15.6674L9.9995 21.2027L15.6679 15.6594C18.7808 12.5465 18.7798 7.46748 15.6599 4.34661C14.147 2.8347 12.1368 2.0022 9.9995 2.0022ZM9.90544 13.4221L15.7019 7.71163L14.2971 6.28577L8.48459 11.9902L5.68991 9.28157L4.29608 10.7194L7.07975 13.4171C7.47098 13.8083 7.98329 14.0024 8.4966 14.0024C9.00991 14.0024 9.51821 13.8093 9.90444 13.4221H9.90544Z" fill="url(#paint0_linear_3_8145)"/>
<defs>
<linearGradient id="paint0_linear_3_8145" x1="20" y1="4.90958" x2="3.69028" y2="12.6676" gradientUnits="userSpaceOnUse">
<stop stop-color="#3ABAEB"/>
<stop offset="1" stop-color="#4D66E2"/>
</linearGradient>
</defs>
</svg>
