<svg width="20" height="20" viewBox="0 0 20 20" fill="none" xmlns="http://www.w3.org/2000/svg">
<path d="M17.5 0H2.5C1.125 0 0 1.125 0 2.5V20H20V2.5C20 1.125 18.875 0 17.5 0ZM18.3333 18.3333H1.66667V2.5C1.66667 2.04167 2.04167 1.66667 2.5 1.66667H17.5C17.9583 1.66667 18.3333 2.04167 18.3333 2.5V18.3333ZM13.3333 9.16667H4.16667V7.5H13.3333V9.16667ZM10.8333 5.83333H4.16667V4.16667H10.8333V5.83333ZM4.16667 10.8333H15.8333V12.5H4.16667V10.8333ZM4.16667 14.1667H7.5V15.8333H4.16667V14.1667Z" fill="#3A81E1"/>
</svg>
