<svg width="17" height="22" viewBox="0 0 17 22" fill="none" xmlns="http://www.w3.org/2000/svg">
<path d="M8.25 11C9.33779 11 10.4012 10.6774 11.3056 10.0731C12.2101 9.46873 12.9151 8.60975 13.3313 7.60476C13.7476 6.59977 13.8565 5.4939 13.6443 4.427C13.4321 3.36011 12.9083 2.3801 12.1391 1.61091C11.3699 0.841726 10.3899 0.317902 9.32299 0.105683C8.2561 -0.106535 7.15023 0.00238307 6.14524 0.418665C5.14025 0.834947 4.28126 1.5399 3.67692 2.44437C3.07257 3.34883 2.75 4.4122 2.75 5.5C2.75146 6.95824 3.33139 8.35634 4.36252 9.38748C5.39365 10.4186 6.79175 10.9985 8.25 11ZM8.25 1.83333C8.9752 1.83333 9.68411 2.04838 10.2871 2.45128C10.8901 2.85418 11.36 3.42683 11.6376 4.09683C11.9151 4.76682 11.9877 5.50407 11.8462 6.21533C11.7047 6.92659 11.3555 7.57993 10.8427 8.09272C10.3299 8.60552 9.67659 8.95473 8.96533 9.09621C8.25407 9.23769 7.51682 9.16508 6.84683 8.88756C6.17683 8.61004 5.60418 8.14007 5.20128 7.53709C4.79838 6.93411 4.58333 6.2252 4.58333 5.5C4.58333 4.52754 4.96964 3.59491 5.65727 2.90728C6.34491 2.21964 7.27754 1.83333 8.25 1.83333Z" fill="#3A81E1"/>
<path d="M8.25 12.8335C6.06271 12.8359 3.9657 13.7059 2.41905 15.2525C0.872399 16.7992 0.00242628 18.8962 0 21.0835C0 21.3266 0.096577 21.5598 0.268485 21.7317C0.440394 21.9036 0.673551 22.0002 0.916666 22.0002C1.15978 22.0002 1.39294 21.9036 1.56485 21.7317C1.73676 21.5598 1.83333 21.3266 1.83333 21.0835C1.83333 19.3817 2.50937 17.7496 3.71273 16.5462C4.91609 15.3429 6.54819 14.6668 8.25 14.6668C9.9518 14.6668 11.5839 15.3429 12.7873 16.5462C13.9906 17.7496 14.6667 19.3817 14.6667 21.0835C14.6667 21.3266 14.7632 21.5598 14.9351 21.7317C15.1071 21.9036 15.3402 22.0002 15.5833 22.0002C15.8264 22.0002 16.0596 21.9036 16.2315 21.7317C16.4034 21.5598 16.5 21.3266 16.5 21.0835C16.4976 18.8962 15.6276 16.7992 14.0809 15.2525C12.5343 13.7059 10.4373 12.8359 8.25 12.8335Z" fill="#3A81E1"/>
</svg>
