<svg width="24" height="24" viewBox="0 0 24 24" fill="none" xmlns="http://www.w3.org/2000/svg">
<path d="M20.5312 0.849609L20.8242 0.865234C22.2668 1.0133 23.3919 2.23155 23.3936 3.71289V16.002L23.3789 16.2939C23.241 17.6405 22.1707 18.7104 20.8242 18.8486L20.5312 18.8643H17.6973V22.457C17.6973 22.6908 17.5798 22.907 17.3887 23.0342L17.3027 23.083C17.0914 23.1834 16.8453 23.1698 16.6484 23.0518L16.5674 22.9951L11.4883 18.8643H3.71289C2.13279 18.8625 0.851538 17.582 0.849609 16.002V3.71289L0.865234 3.41992C1.01321 1.97723 2.23148 0.851287 3.71289 0.849609H20.5312ZM3.56152 2.24316C2.8168 2.31971 2.23625 2.94812 2.23535 3.71289V16.001L2.24316 16.1523C2.31955 16.8973 2.94806 17.4788 3.71289 17.4795H11.7344C11.8937 17.4795 12.0476 17.5344 12.1709 17.6348L16.3125 21.001V18.1719C16.3125 17.7894 16.6224 17.4795 17.0049 17.4795H20.5312L20.6816 17.4717C21.4266 17.3955 22.0076 16.7665 22.0088 16.002V3.71289L22.001 3.56152C21.9296 2.86662 21.3775 2.31467 20.6826 2.24316L20.5312 2.23535H3.71289L3.56152 2.24316Z" fill="#3A81E1" stroke="#3A81E1" stroke-width="0.3"/>
<path d="M11.1055 5.24316C11.488 5.24316 11.7979 5.55426 11.7979 5.93652C11.7976 6.31883 11.4878 6.62891 11.1055 6.62891H4.85156C4.46945 6.62891 4.15844 6.31887 4.1582 5.93652C4.1582 5.55423 4.46927 5.24316 4.85156 5.24316H11.1055Z" fill="#3A81E1" stroke="#3A81E1" stroke-width="0.3"/>
<path d="M19.3936 9.16406V9.16504C19.7758 9.16535 20.0859 9.4751 20.0859 9.85742C20.0857 10.2397 19.7749 10.5498 19.3926 10.5498H4.85156C4.46945 10.5498 4.15844 10.2398 4.1582 9.85742C4.1582 9.47488 4.4693 9.16406 4.85156 9.16406H19.3936Z" fill="#3A81E1" stroke="#3A81E1" stroke-width="0.3"/>
<path d="M19.3936 13.085V13.0859C19.7758 13.0862 20.0859 13.396 20.0859 13.7783C20.0857 14.1606 19.7749 14.4707 19.3926 14.4707H4.85156C4.46945 14.4707 4.15844 14.1607 4.1582 13.7783C4.1582 13.3958 4.4693 13.085 4.85156 13.085H19.3936Z" fill="#3A81E1" stroke="#3A81E1" stroke-width="0.3"/>
</svg>
