<svg width="28" height="30" viewBox="0 0 28 30" fill="none" xmlns="http://www.w3.org/2000/svg">
<path d="M27.0139 17.0933L24.6429 8.56291C23.948 6.06386 22.4376 3.86882 20.352 2.3267C18.2663 0.784575 15.725 -0.016134 13.132 0.0518495C10.539 0.119833 8.04319 1.05261 6.04119 2.7019C4.03919 4.3512 2.64594 6.62237 2.0829 9.15439L0.247305 17.409C0.0445474 18.3211 0.0492352 19.2671 0.261023 20.1771C0.47281 21.0872 0.886289 21.938 1.47093 22.6669C2.05558 23.3958 2.79646 23.984 3.63887 24.3882C4.48129 24.7924 5.40373 25.0022 6.3381 25.0022H7.72822C8.01462 26.4126 8.77982 27.6807 9.89418 28.5915C11.0085 29.5023 12.4035 29.9999 13.8427 29.9999C15.2819 29.9999 16.6769 29.5023 17.7913 28.5915C18.9056 27.6807 19.6708 26.4126 19.9572 25.0022H21.0029C21.9648 25.0023 22.9137 24.7799 23.7754 24.3526C24.6371 23.9253 25.3883 23.3045 25.9704 22.5387C26.5525 21.773 26.9497 20.8831 27.1309 19.9384C27.3121 18.9938 27.2713 18.0201 27.0139 17.0933ZM13.8427 27.4979C13.0712 27.4947 12.3195 27.2532 11.6905 26.8065C11.0615 26.3597 10.5859 25.7296 10.3288 25.0022H17.3567C17.0995 25.7296 16.6239 26.3597 15.9949 26.8065C15.3659 27.2532 14.6142 27.4947 13.8427 27.4979ZM23.9828 21.0278C23.6351 21.4891 23.1846 21.8629 22.6671 22.1196C22.1496 22.3763 21.5793 22.5088 21.0017 22.5065H6.3381C5.77754 22.5064 5.22416 22.3804 4.71881 22.1378C4.21345 21.8953 3.76902 21.5423 3.41831 21.105C3.06761 20.6677 2.81959 20.1572 2.69256 19.6113C2.56553 19.0653 2.56273 18.4977 2.68437 17.9505L4.51872 9.69472C4.96091 7.70589 6.05522 5.92195 7.62771 4.62648C9.2002 3.33101 11.1606 2.59836 13.1973 2.545C15.234 2.49165 17.2301 3.12065 18.8682 4.33201C20.5064 5.54337 21.6926 7.26757 22.2383 9.23051L24.6092 17.7609C24.7659 18.3166 24.7909 18.9013 24.6821 19.4684C24.5734 20.0354 24.3339 20.5694 23.9828 21.0278Z" fill="#212121"/>
</svg>
