<svg width="22" height="22" viewBox="0 0 22 22" fill="none" xmlns="http://www.w3.org/2000/svg">
<path d="M11.9004 0.919641C11.9004 0.676126 11.9971 0.442585 12.1693 0.270393C12.3415 0.0982023 12.5751 0.0014663 12.8186 0.0014663C15.2529 0.00413965 17.5868 0.972358 19.3081 2.69369C21.0294 4.41502 21.9976 6.74888 22.0003 9.18322C22.0003 9.42673 21.9036 9.66027 21.7314 9.83246C21.5592 10.0047 21.3257 10.1014 21.0821 10.1014C20.8386 10.1014 20.6051 10.0047 20.4329 9.83246C20.2607 9.66027 20.164 9.42673 20.164 9.18322C20.1618 7.23577 19.3872 5.3687 18.0101 3.99165C16.6331 2.61459 14.766 1.84 12.8186 1.83782C12.5751 1.83782 12.3415 1.74108 12.1693 1.56889C11.9971 1.3967 11.9004 1.16316 11.9004 0.919641ZM12.8186 5.51052C13.7926 5.51052 14.7268 5.89746 15.4156 6.58622C16.1043 7.27499 16.4913 8.20916 16.4913 9.18322C16.4913 9.42673 16.588 9.66027 16.7602 9.83246C16.9324 10.0047 17.1659 10.1014 17.4094 10.1014C17.653 10.1014 17.8865 10.0047 18.0587 9.83246C18.2309 9.66027 18.3276 9.42673 18.3276 9.18322C18.3262 7.72257 17.7453 6.32217 16.7124 5.28934C15.6796 4.25651 14.2792 3.67562 12.8186 3.67417C12.5751 3.67417 12.3415 3.7709 12.1693 3.94309C11.9971 4.11528 11.9004 4.34883 11.9004 4.59234C11.9004 4.83586 11.9971 5.0694 12.1693 5.24159C12.3415 5.41378 12.5751 5.51052 12.8186 5.51052ZM21.1675 15.3708C21.6996 15.9044 21.9984 16.6271 21.9984 17.3807C21.9984 18.1342 21.6996 18.857 21.1675 19.3906L20.332 20.3537C12.8121 27.5531 -5.48708 9.2585 1.60123 1.71478L2.65713 0.796606C3.19129 0.279377 3.90762 -0.00675221 4.65113 0.000121024C5.39464 0.00699426 6.10556 0.306317 6.63007 0.833333C6.65853 0.861796 8.35991 3.07184 8.35991 3.07184C8.86475 3.60221 9.14578 4.30672 9.14458 5.03894C9.14339 5.77116 8.86005 6.47476 8.35348 7.00347L7.29024 8.34033C7.87865 9.77003 8.74377 11.0694 9.83589 12.1637C10.928 13.258 12.2256 14.1258 13.6541 14.7171L14.9992 13.6474C15.528 13.1412 16.2315 12.8582 16.9635 12.8572C17.6955 12.8562 18.3997 13.1372 18.9299 13.6419C18.9299 13.6419 21.1391 15.3423 21.1675 15.3708ZM19.9041 16.7058C19.9041 16.7058 17.7069 15.0155 17.6785 14.987C17.4893 14.7994 17.2337 14.6942 16.9673 14.6942C16.701 14.6942 16.4454 14.7994 16.2562 14.987C16.2314 15.0127 14.3795 16.4882 14.3795 16.4882C14.2547 16.5876 14.1061 16.6527 13.9485 16.6771C13.7909 16.7016 13.6296 16.6846 13.4806 16.6278C11.63 15.9388 9.94903 14.86 8.55166 13.4647C7.15429 12.0694 6.07311 10.3901 5.38135 8.54049C5.32002 8.38941 5.30002 8.22472 5.32342 8.06335C5.34682 7.90198 5.41277 7.74976 5.51449 7.62232C5.51449 7.62232 6.98999 5.76944 7.01479 5.74557C7.20234 5.55641 7.30757 5.30082 7.30757 5.03444C7.30757 4.76806 7.20234 4.51247 7.01479 4.32332C6.98632 4.29577 5.29596 2.09674 5.29596 2.09674C5.10397 1.92459 4.8534 1.83239 4.59562 1.83905C4.33784 1.84571 4.09237 1.95072 3.90952 2.13255L2.85362 3.05072C-2.32673 9.27962 13.5311 24.2578 18.9896 19.0995L19.8261 18.1354C20.0221 17.9539 20.1398 17.7032 20.1544 17.4364C20.169 17.1696 20.0792 16.9076 19.9041 16.7058Z" fill="#3A81E1"/>
</svg>
