<svg width="26" height="29" viewBox="0 0 26 29" fill="none" xmlns="http://www.w3.org/2000/svg">
<path d="M13 0.169922C13.178 0.169922 13.3502 0.23214 13.4873 0.345703L13.8945 0.667969C15.9592 2.23454 18.46 3.10374 20.5039 3.58301C21.5929 3.83836 22.5504 3.98213 23.2393 4.0625C23.5835 4.10266 23.8608 4.12746 24.0537 4.1416C24.1502 4.14867 24.2262 4.15249 24.2783 4.15527C24.304 4.15664 24.3239 4.15761 24.3379 4.1582C24.3526 4.15882 24.3594 4.15917 24.3594 4.15918H24.3633L24.4404 4.16699C24.5175 4.1781 24.5927 4.20046 24.6631 4.23438L24.7314 4.27148C24.7976 4.31211 24.8571 4.36304 24.9082 4.42188L24.9561 4.48145C25.0009 4.5437 25.0361 4.61252 25.0605 4.68555L25.0811 4.75977C25.0979 4.83455 25.1037 4.91156 25.0977 4.98828V4.99023C25.0976 4.99106 25.0968 4.99254 25.0967 4.99414C25.0964 4.99756 25.0963 5.00301 25.0957 5.00977C25.0945 5.02322 25.0931 5.04321 25.0908 5.06934C25.0863 5.12202 25.0789 5.19996 25.0703 5.2998C25.0531 5.49963 25.0288 5.78886 24.998 6.14453C24.9366 6.8558 24.8517 7.83463 24.7588 8.90527L24.2207 15.0254C24.091 16.4748 23.9051 18.5645 22.4775 20.8936C21.0502 23.2222 18.3886 25.7805 13.3291 28.1885H13.3281C13.2255 28.2366 13.1134 28.2617 13 28.2617C12.9151 28.2617 12.831 28.248 12.751 28.2207L12.6719 28.1885C7.61293 25.7805 4.95308 23.2222 3.52637 20.8936C2.27789 18.8557 1.97838 17.0012 1.83398 15.5986L1.7793 15.0254C1.64846 13.5563 1.42961 11.0469 1.24316 8.90527C1.14996 7.83463 1.06466 6.85579 1.00293 6.14453C0.972059 5.78886 0.947014 5.49963 0.929688 5.2998C0.921034 5.2 0.914721 5.122 0.910156 5.06934C0.907888 5.04316 0.905463 5.02322 0.904297 5.00977C0.903712 5.00301 0.903617 4.99756 0.90332 4.99414V4.98926C0.894349 4.886 0.905982 4.78202 0.938477 4.68359L0.966797 4.61133C0.998448 4.54055 1.04019 4.47428 1.0918 4.41602L1.14648 4.36133C1.2035 4.30879 1.26845 4.2646 1.33887 4.23145L1.41016 4.20215C1.48321 4.17642 1.55999 4.16187 1.6377 4.15918H1.6416L1.66211 4.1582C1.67619 4.15763 1.69674 4.1576 1.72266 4.15625C1.77488 4.15353 1.85073 4.14856 1.94727 4.1416C2.14026 4.1277 2.41746 4.10424 2.76172 4.06445C3.4507 3.98482 4.40811 3.84073 5.49707 3.58594C7.67685 3.07591 10.3767 2.12196 12.5127 0.345703L12.6221 0.269531C12.7366 0.20434 12.8667 0.169957 13 0.169922ZM13 1.90723C9.88317 4.04837 6.26012 5.33404 2.49121 5.63672C2.65256 7.55549 3.09292 12.5471 3.30176 14.8965L3.34961 15.4072C3.47703 16.6567 3.74214 18.2876 4.84961 20.0938C6.11138 22.1515 8.47416 24.4458 13 26.6533C17.5261 24.4457 19.8894 22.1516 21.1514 20.0938C22.417 18.0299 22.5826 16.195 22.6992 14.8965L23.5078 5.63672C19.7393 5.33383 16.1165 4.04822 13 1.90723ZM16.0273 11.126C16.1763 11.1422 16.3188 11.2013 16.4355 11.2988L16.541 11.4072C16.6348 11.524 16.6935 11.667 16.707 11.8184L16.7051 11.9688C16.6943 12.068 16.664 12.1642 16.6162 12.252L16.5312 12.377L12.6201 17.0449C12.5484 17.131 12.4588 17.2005 12.3574 17.248C12.2814 17.2837 12.2002 17.3062 12.1172 17.3154L12.0332 17.3203H12.0195C11.9337 17.3185 11.8486 17.3022 11.7686 17.2725L11.6904 17.2383C11.6139 17.1996 11.5446 17.1483 11.4854 17.0869L11.4297 17.0225L9.45215 14.459V14.458C9.40423 14.3993 9.36452 14.3345 9.33594 14.2646L9.31055 14.1924C9.28152 14.0944 9.27277 13.9912 9.28418 13.8896L9.29688 13.8145C9.31298 13.7397 9.34028 13.6675 9.37793 13.6006C9.42812 13.5115 9.49522 13.4326 9.57617 13.3701L9.63965 13.3271C9.70438 13.2868 9.77462 13.2558 9.84863 13.2363L9.92383 13.2207C9.99934 13.2087 10.0764 13.2078 10.1523 13.2188L10.2275 13.2334C10.3017 13.2518 10.3728 13.2816 10.4385 13.3213L10.502 13.3643C10.5624 13.4096 10.6154 13.4641 10.6602 13.5254H10.6611L12.0576 15.335L15.3584 11.3955L15.4658 11.29C15.5826 11.1962 15.7255 11.1376 15.877 11.124L16.0273 11.126Z" fill="white" stroke="white" stroke-width="0.2"/>
</svg>
