<svg width="20" height="20" viewBox="0 0 20 20" fill="none" xmlns="http://www.w3.org/2000/svg">
<path d="M10.8184 0.836025C10.8184 0.614651 10.9063 0.402344 11.0629 0.245809C11.2194 0.0892735 11.4317 0.00133298 11.6531 0.00133298C13.8661 0.00376326 15.9877 0.883949 17.5526 2.44877C19.1174 4.0136 19.9976 6.13526 20 8.34826C20 8.56963 19.9121 8.78194 19.7555 8.93847C19.599 9.09501 19.3867 9.18295 19.1653 9.18295C18.9439 9.18295 18.7316 9.09501 18.5751 8.93847C18.4186 8.78194 18.3306 8.56963 18.3306 8.34826C18.3286 6.57787 17.6245 4.88057 16.3726 3.62872C15.1208 2.37687 13.4235 1.67271 11.6531 1.67072C11.4317 1.67072 11.2194 1.58278 11.0629 1.42624C10.9063 1.26971 10.8184 1.0574 10.8184 0.836025ZM11.6531 5.00949C12.5386 5.00949 13.3878 5.36125 14.0139 5.98739C14.6401 6.61353 14.9918 7.46276 14.9918 8.34826C14.9918 8.56963 15.0798 8.78194 15.2363 8.93847C15.3929 9.09501 15.6052 9.18295 15.8265 9.18295C16.0479 9.18295 16.2602 9.09501 16.4168 8.93847C16.5733 8.78194 16.6612 8.56963 16.6612 8.34826C16.6599 7.02042 16.1318 5.74735 15.1929 4.80842C14.254 3.8695 12.9809 3.34143 11.6531 3.3401C11.4317 3.3401 11.2194 3.42804 11.0629 3.58458C10.9063 3.74111 10.8184 3.95342 10.8184 4.1748C10.8184 4.39617 10.9063 4.60848 11.0629 4.76501C11.2194 4.92155 11.4317 5.00949 11.6531 5.00949ZM19.2429 13.9732C19.7266 14.4583 19.9983 15.1154 19.9983 15.8004C19.9983 16.4854 19.7266 17.1425 19.2429 17.6275L18.4834 18.5031C11.6472 25.0479 -4.98819 8.4167 1.45564 1.55887L2.41554 0.724177C2.90113 0.253975 3.55233 -0.00613829 4.22824 0.00011002C4.90415 0.00635833 5.55043 0.278466 6.02725 0.757564C6.05313 0.78344 7.59981 2.79254 7.59981 2.79254C8.05875 3.27469 8.31423 3.91515 8.31314 4.58079C8.31205 5.24644 8.05448 5.88606 7.59397 6.3667L6.62739 7.58201C7.1623 8.88172 7.94876 10.0629 8.94159 11.0577C9.93441 12.0526 11.114 12.8414 12.4126 13.3789L13.6355 12.4065C14.1162 11.9464 14.7557 11.6891 15.4211 11.6882C16.0866 11.6872 16.7268 11.9427 17.2088 12.4015C17.2088 12.4015 19.2171 13.9474 19.2429 13.9732ZM18.0944 15.1869C18.0944 15.1869 16.097 13.6502 16.0711 13.6243C15.8991 13.4538 15.6668 13.3582 15.4246 13.3582C15.1825 13.3582 14.9501 13.4538 14.7782 13.6243C14.7556 13.6477 13.0721 14.9891 13.0721 14.9891C12.9586 15.0794 12.8236 15.1386 12.6803 15.1608C12.537 15.1831 12.3904 15.1676 12.2549 15.1159C10.5725 14.4896 9.04444 13.5089 7.77412 12.2405C6.5038 10.972 5.52093 9.4454 4.89207 7.76397C4.83631 7.62663 4.81813 7.47691 4.8394 7.33021C4.86067 7.18352 4.92063 7.04513 5.0131 6.92928C5.0131 6.92928 6.35445 5.24487 6.37699 5.22317C6.54749 5.05121 6.64315 4.81886 6.64315 4.5767C6.64315 4.33454 6.54749 4.10219 6.37699 3.93023C6.35111 3.90519 4.81444 1.9061 4.81444 1.9061C4.63991 1.7496 4.41212 1.66579 4.17778 1.67184C3.94343 1.67789 3.72028 1.77335 3.55406 1.93865L2.59416 2.77335C-2.11517 8.4359 12.3008 22.0522 17.263 17.3629L18.0234 16.4865C18.2016 16.3215 18.3087 16.0936 18.3219 15.8511C18.3351 15.6085 18.2536 15.3704 18.0944 15.1869Z" fill="#3A81E1"/>
</svg>
