<svg width="19" height="24" viewBox="0 0 19 24" fill="none" xmlns="http://www.w3.org/2000/svg">
<path d="M9.50033 11.6667C10.654 11.6667 11.7819 11.3245 12.7412 10.6836C13.7004 10.0426 14.4481 9.13156 14.8896 8.06566C15.3311 6.99975 15.4467 5.82686 15.2216 4.69531C14.9965 3.56375 14.4409 2.52435 13.6251 1.70855C12.8093 0.89274 11.7699 0.337169 10.6384 0.112088C9.5068 -0.112992 8.33391 0.0025275 7.26801 0.444039C6.2021 0.88555 5.29106 1.63322 4.65009 2.59251C4.00911 3.5518 3.66699 4.67961 3.66699 5.83334C3.66854 7.37996 4.28361 8.86279 5.37724 9.95642C6.47087 11.05 7.9537 11.6651 9.50033 11.6667ZM9.50033 1.94445C10.2695 1.94445 11.0214 2.17253 11.6609 2.59984C12.3004 3.02716 12.7988 3.63452 13.0932 4.34512C13.3875 5.05572 13.4645 5.83765 13.3145 6.59202C13.1644 7.34639 12.7941 8.03932 12.2502 8.5832C11.7063 9.12707 11.0134 9.49745 10.259 9.6475C9.50464 9.79755 8.72271 9.72054 8.01211 9.4262C7.30151 9.13186 6.69415 8.63341 6.26683 7.99389C5.83952 7.35436 5.61144 6.60249 5.61144 5.83334C5.61144 4.80194 6.02116 3.81278 6.75047 3.08348C7.47977 2.35417 8.46893 1.94445 9.50033 1.94445Z" fill="url(#paint0_linear_3_9055)"/>
<path d="M9.5 13.6108C7.18015 13.6134 4.95604 14.5361 3.31566 16.1765C1.67527 17.8169 0.752573 20.041 0.75 22.3608C0.75 22.6187 0.85243 22.866 1.03476 23.0483C1.21708 23.2306 1.46437 23.3331 1.72222 23.3331C1.98007 23.3331 2.22736 23.2306 2.40969 23.0483C2.59201 22.866 2.69444 22.6187 2.69444 22.3608C2.69444 20.5559 3.41146 18.8249 4.68775 17.5486C5.96403 16.2723 7.69505 15.5553 9.5 15.5553C11.3049 15.5553 13.036 16.2723 14.3123 17.5486C15.5885 18.8249 16.3056 20.5559 16.3056 22.3608C16.3056 22.6187 16.408 22.866 16.5903 23.0483C16.7726 23.2306 17.0199 23.3331 17.2778 23.3331C17.5356 23.3331 17.7829 23.2306 17.9652 23.0483C18.1476 22.866 18.25 22.6187 18.25 22.3608C18.2474 20.041 17.3247 17.8169 15.6843 16.1765C14.044 14.5361 11.8199 13.6134 9.5 13.6108Z" fill="url(#paint1_linear_3_9055)"/>
<defs>
<linearGradient id="paint0_linear_3_9055" x1="15.3337" y1="2.38636" x2="6.53449" y2="7.40947" gradientUnits="userSpaceOnUse">
<stop stop-color="#3ABAEB"/>
<stop offset="1" stop-color="#4D66E2"/>
</linearGradient>
<linearGradient id="paint1_linear_3_9055" x1="18.25" y1="15.5995" x2="9.73775" y2="24.3462" gradientUnits="userSpaceOnUse">
<stop stop-color="#3ABAEB"/>
<stop offset="1" stop-color="#4D66E2"/>
</linearGradient>
</defs>
</svg>
