<svg width="18" height="22" viewBox="0 0 18 22" fill="none" xmlns="http://www.w3.org/2000/svg">
<path d="M8.94643 5.6626C8.24258 5.6626 7.55454 5.87131 6.96931 6.26235C6.38407 6.65339 5.92794 7.20919 5.65859 7.85946C5.38924 8.50974 5.31876 9.22528 5.45608 9.91561C5.59339 10.6059 5.93233 11.24 6.43003 11.7377C6.92773 12.2354 7.56183 12.5744 8.25216 12.7117C8.94249 12.849 9.65803 12.7785 10.3083 12.5092C10.9586 12.2398 11.5144 11.7837 11.9054 11.1985C12.2965 10.6132 12.5052 9.92519 12.5052 9.22133C12.5052 8.2775 12.1302 7.37232 11.4628 6.70493C10.7954 6.03753 9.89027 5.6626 8.94643 5.6626ZM8.94643 11.0007C8.59451 11.0007 8.25049 10.8963 7.95787 10.7008C7.66525 10.5053 7.43719 10.2274 7.30251 9.90227C7.16784 9.57713 7.1326 9.21936 7.20126 8.8742C7.26991 8.52903 7.43938 8.21198 7.68823 7.96313C7.93708 7.71428 8.25413 7.54481 8.5993 7.47616C8.94446 7.4075 9.30223 7.44274 9.62737 7.57741C9.95251 7.71209 10.2304 7.94015 10.4259 8.23277C10.6214 8.52539 10.7258 8.86941 10.7258 9.22133C10.7258 9.69325 10.5383 10.1458 10.2046 10.4795C9.87094 10.8132 9.41835 11.0007 8.94643 11.0007Z" fill="#3A81E1"/>
<path d="M8.94577 21.677C8.19661 21.6808 7.45743 21.5051 6.79013 21.1645C6.12282 20.824 5.54682 20.3285 5.11035 19.7196C1.71976 15.0426 0 11.5265 0 9.26853C0 6.89596 0.942498 4.62057 2.62016 2.94291C4.29781 1.26525 6.57321 0.322754 8.94577 0.322754C11.3183 0.322754 13.5937 1.26525 15.2714 2.94291C16.949 4.62057 17.8915 6.89596 17.8915 9.26853C17.8915 11.5265 16.1718 15.0426 12.7812 19.7196C12.3447 20.3285 11.7687 20.824 11.1014 21.1645C10.4341 21.5051 9.69494 21.6808 8.94577 21.677ZM8.94577 2.26493C7.08848 2.26705 5.30787 3.0058 3.99457 4.3191C2.68126 5.6324 1.94252 7.41302 1.9404 9.27031C1.9404 11.0586 3.62457 14.3655 6.68153 18.5817C6.94104 18.9392 7.2815 19.2301 7.67505 19.4307C8.0686 19.6313 8.50405 19.7359 8.94577 19.7359C9.3875 19.7359 9.82295 19.6313 10.2165 19.4307C10.61 19.2301 10.9505 18.9392 11.21 18.5817C14.267 14.3655 15.9511 11.0586 15.9511 9.27031C15.949 7.41302 15.2103 5.6324 13.897 4.3191C12.5837 3.0058 10.8031 2.26705 8.94577 2.26493Z" fill="#3A81E1"/>
</svg>
