<svg width="22" height="18" viewBox="0 0 22 18" fill="none" xmlns="http://www.w3.org/2000/svg">
<path d="M16.4209 0.924805C18.9867 0.924987 21.075 3.01334 21.0752 5.5791V12.4775C21.0752 15.0458 18.9867 17.1317 16.4209 17.1318H5.5791C3.01327 17.1317 0.92481 15.0458 0.924805 12.4775V5.5791C0.924988 3.01336 3.01336 0.924988 5.5791 0.924805H16.4209ZM14.0322 9.25195L14.0312 9.25098C13.2257 10.0587 12.1475 10.5049 11.001 10.5049C9.85205 10.5048 8.77334 10.0589 7.96777 9.25098V9.25195L2.74805 4.03223C2.49531 4.4921 2.34966 5.01929 2.34961 5.5791V12.4775C2.34964 14.2593 3.79954 15.7068 5.5791 15.707H16.4209C18.1449 15.7069 19.5588 14.3484 19.6455 12.6436L19.6504 12.4775V5.5791C19.6503 5.01908 19.5039 4.49218 19.251 4.03223L14.0322 9.25195ZM5.5791 2.34961C4.87519 2.34968 4.22416 2.57976 3.69336 2.96289L8.97363 8.24512L9.18359 8.43555C9.69279 8.85206 10.3278 9.07906 11.001 9.0791C11.7679 9.0791 12.4874 8.7818 13.0264 8.24512L18.3057 2.96289C17.775 2.58003 17.1246 2.34968 16.4209 2.34961H5.5791Z" fill="#3A81E1" stroke="#3A81E1" stroke-width="0.15"/>
</svg>
