<svg width="85" height="85" viewBox="0 0 85 85" fill="none" xmlns="http://www.w3.org/2000/svg">
<path d="M47.7865 0.313095C66.6384 2.59693 82.239 18.0807 84.654 36.9082C86.3979 50.5138 81.4696 64.0252 71.685 73.304L79.1348 80.7537C79.8474 81.4663 80.0614 82.5364 79.6747 83.4681C79.2905 84.3995 78.3808 85.0052 77.3739 85.0052H43.9242C20.4659 85.0052 1.09771 67.1306 0.0470276 44.5233C-1.17467 18.2275 21.5818 -2.83878 47.7865 0.313095Z" fill="url(#paint0_linear_3_3403)"/>
<path d="M68.7204 30.4191C67.9859 29.9593 67.0665 29.923 66.298 30.3097L59.9402 33.4886V32.5376C59.9402 28.4175 56.5886 25.0659 52.4686 25.0659H22.582C18.462 25.0659 15.1104 28.4175 15.1104 32.5376V52.462C15.1104 56.582 18.462 59.9336 22.582 59.9336H52.4686C56.5886 59.9336 59.9402 56.582 59.9402 52.462V51.5109L66.298 54.6898C67.069 55.0741 67.9859 55.0377 68.7204 54.5804C69.455 54.1257 69.9024 53.3254 69.9024 52.462V32.5376C69.9024 31.6742 69.455 30.8739 68.7204 30.4191ZM27.5631 40.0092C26.1877 40.0092 25.0725 38.8941 25.0725 37.5187C25.0725 36.1432 26.1877 35.0281 27.5631 35.0281C28.9385 35.0281 30.0536 36.1432 30.0536 37.5187C30.0536 38.8941 28.9385 40.0092 27.5631 40.0092Z" fill="white"/>
<defs>
<linearGradient id="paint0_linear_3_3403" x1="85" y1="42.5026" x2="0" y2="42.5026" gradientUnits="userSpaceOnUse">
<stop stop-color="#75B5EB"/>
<stop offset="1" stop-color="#75EC99"/>
</linearGradient>
</defs>
</svg>
