<svg width="86" height="86" viewBox="0 0 86 86" fill="none" xmlns="http://www.w3.org/2000/svg">
<g filter="url(#filter0_d_3_3320)">
<path d="M74.6779 52.1393C75.5435 47.8951 76 43.5003 76 38.9978C76 34.4954 75.5435 30.1006 74.6779 25.8564C73.3257 16.4297 65.9575 8.94424 56.5867 7.41186C52.2071 6.4864 47.6681 6 43.0129 6C38.3577 6 33.8187 6.4864 29.4391 7.41186C20.2191 8.91841 12.9413 16.1843 11.4168 25.3958C10.4866 29.782 10 34.3318 10 38.9978C10 43.6639 10.4909 48.2136 11.4168 52.5999C12.9284 61.7597 20.1373 68.9955 29.2841 70.558C33.7111 71.505 38.3017 72 43.0086 72C47.7155 72 52.3104 71.5007 56.7331 70.558C66.0393 68.9697 73.3343 61.5144 74.6779 52.1393Z" fill="url(#paint0_linear_3_3320)"/>
</g>
<path d="M48.4167 39C48.4167 39.5991 47.9313 40.0833 47.3333 40.0833H44.0833V43.3333C44.0833 43.9324 43.598 44.4167 43 44.4167C42.402 44.4167 41.9167 43.9324 41.9167 43.3333V40.0833H38.6667C38.0687 40.0833 37.5833 39.5991 37.5833 39C37.5833 38.4009 38.0687 37.9167 38.6667 37.9167H41.9167V34.6667C41.9167 34.0676 42.402 33.5833 43 33.5833C43.598 33.5833 44.0833 34.0676 44.0833 34.6667V37.9167H47.3333C47.9313 37.9167 48.4167 38.4009 48.4167 39ZM56 31.4167V46.5833C56 49.5701 53.5701 52 50.5833 52H35.4167C32.4299 52 30 49.5701 30 46.5833V31.4167C30 28.4299 32.4299 26 35.4167 26H50.5833C53.5701 26 56 28.4299 56 31.4167ZM53.8333 31.4167C53.8333 29.6248 52.3752 28.1667 50.5833 28.1667H35.4167C33.6248 28.1667 32.1667 29.6248 32.1667 31.4167V46.5833C32.1667 48.3752 33.6248 49.8333 35.4167 49.8333H50.5833C52.3752 49.8333 53.8333 48.3752 53.8333 46.5833V31.4167Z" fill="white"/>
<defs>
<filter id="filter0_d_3_3320" x="0" y="0" width="86" height="86" filterUnits="userSpaceOnUse" color-interpolation-filters="sRGB">
<feFlood flood-opacity="0" result="BackgroundImageFix"/>
<feColorMatrix in="SourceAlpha" type="matrix" values="0 0 0 0 0 0 0 0 0 0 0 0 0 0 0 0 0 0 127 0" result="hardAlpha"/>
<feOffset dy="4"/>
<feGaussianBlur stdDeviation="5"/>
<feComposite in2="hardAlpha" operator="out"/>
<feColorMatrix type="matrix" values="0 0 0 0 0 0 0 0 0 0 0 0 0 0 0 0 0 0 0.2 0"/>
<feBlend mode="normal" in2="BackgroundImageFix" result="effect1_dropShadow_3_3320"/>
<feBlend mode="normal" in="SourceGraphic" in2="effect1_dropShadow_3_3320" result="shape"/>
</filter>
<linearGradient id="paint0_linear_3_3320" x1="76" y1="19.5" x2="26.2219" y2="47.9164" gradientUnits="userSpaceOnUse">
<stop stop-color="#3ABAEB"/>
<stop offset="1" stop-color="#4D66E2"/>
</linearGradient>
</defs>
</svg>
