<svg width="31" height="22" viewBox="0 0 31 22" fill="none" xmlns="http://www.w3.org/2000/svg">
<path d="M18.625 0.849609C21.7542 0.849609 24.3083 3.35241 24.3955 6.46094L26.9951 3.83984L27.002 3.83203L27.0107 3.8252C27.7573 3.25787 28.6518 3.17279 29.417 3.55469L29.5566 3.62988C30.2353 4.03027 30.6504 4.75139 30.6504 5.54883V16.3809C30.6504 17.1783 30.2337 17.9011 29.5557 18.3008L29.417 18.377C29.0984 18.5362 28.7564 18.6133 28.416 18.6133C27.9426 18.6132 27.4749 18.4618 27.0801 18.166L27.0713 18.1602L27.0645 18.1523L24.3965 15.4951C24.3323 18.624 21.7689 21.1504 18.625 21.1504H6.125C2.94091 21.1504 0.349609 18.5591 0.349609 15.375V6.625C0.34961 3.44091 2.94091 0.849609 6.125 0.849609H18.625ZM6.125 2.39844C3.79534 2.39844 1.90039 4.29437 1.90039 6.62402V15.374C1.90054 17.7036 3.79543 19.5986 6.125 19.5986H18.625C20.9546 19.5986 22.8495 17.7036 22.8496 15.374V6.62402C22.8496 4.29437 20.9547 2.39844 18.625 2.39844H6.125ZM28.7227 4.93945C28.489 4.82267 28.2268 4.84433 28.0156 4.99707L24.3984 8.65625V13.3076L28.0762 16.9834C28.2164 17.0803 28.4784 17.1134 28.7217 16.9912L28.8057 16.9414C28.9912 16.8152 29.0986 16.6132 29.0986 16.3809L29.0996 5.54883L29.0938 5.45117C29.0679 5.26074 28.9658 5.09651 28.8066 4.98828L28.7227 4.93945Z" fill="url(#paint0_linear_3_3574)" stroke="url(#paint1_linear_3_3574)" stroke-width="0.3"/>
<defs>
<linearGradient id="paint0_linear_3_3574" x1="30.5" y1="5.09091" x2="13.1913" y2="19.9122" gradientUnits="userSpaceOnUse">
<stop stop-color="#3ABAEB"/>
<stop offset="1" stop-color="#4D66E2"/>
</linearGradient>
<linearGradient id="paint1_linear_3_3574" x1="30.5" y1="5.09091" x2="13.1913" y2="19.9122" gradientUnits="userSpaceOnUse">
<stop stop-color="#3ABAEB"/>
<stop offset="1" stop-color="#4D66E2"/>
</linearGradient>
</defs>
</svg>
