<svg width="31" height="22" viewBox="0 0 31 22" fill="none" xmlns="http://www.w3.org/2000/svg">
<path d="M30.5 5.54875V16.3813C30.5 17.175 30.0588 17.8888 29.35 18.2425C29.0525 18.3913 28.7337 18.4638 28.4163 18.4638C27.975 18.4638 27.5387 18.3225 27.17 18.0463L24.25 15.1375V15.375C24.25 18.4762 21.7262 21 18.625 21H6.125C3.02375 21 0.5 18.4762 0.5 15.375V6.625C0.5 3.52375 3.02375 1 6.125 1H18.625C21.7262 1 24.25 3.52375 24.25 6.625V6.82125L27.1012 3.945C27.805 3.41 28.6388 3.33375 29.35 3.68875C30.06 4.04375 30.5 4.755 30.5 5.54875ZM23 6.62375C23 4.21125 21.0375 2.24875 18.625 2.24875H6.125C3.7125 2.24875 1.75 4.21125 1.75 6.62375V15.3738C1.75 17.7863 3.7125 19.7488 6.125 19.7488H18.625C21.0375 19.7488 23 17.7863 23 15.3738V6.62375ZM29.25 5.54875C29.25 5.2275 29.0775 4.94875 28.79 4.805C28.5025 4.66125 28.1762 4.69125 27.9187 4.8825L24.2488 8.595V13.3712L27.985 17.1038C28.175 17.2388 28.5 17.27 28.7887 17.125C29.0763 16.9812 29.2488 16.7038 29.2488 16.3813L29.25 5.54875Z" fill="#212121" fill-opacity="0.5"/>
<path d="M18.625 0.900391L18.9189 0.907227C21.9243 1.06 24.3237 3.54206 24.3477 6.5791L27.0303 3.875L27.04 3.86426L27.1006 3.94434L27.041 3.86523C27.7733 3.3087 28.6474 3.22668 29.3945 3.59961L29.5312 3.67383C30.1945 4.06533 30.5996 4.76934 30.5996 5.54883V16.3809C30.5996 17.1605 30.1931 17.8671 29.5303 18.2578L29.3945 18.332C29.083 18.4877 28.7488 18.5635 28.416 18.5635C27.9534 18.5634 27.4964 18.4152 27.1104 18.126L27.0986 18.1182L27.0996 18.1172L24.3486 15.377C24.3476 18.5325 21.7808 21.0996 18.625 21.0996H6.125C2.96852 21.0996 0.400391 18.5315 0.400391 15.375V6.625C0.400391 3.46852 2.96852 0.900391 6.125 0.900391H18.625ZM6.125 2.34863C3.76773 2.34863 1.84961 4.26675 1.84961 6.62402V15.374C1.84976 17.7312 3.76782 19.6484 6.125 19.6484H18.625C20.9822 19.6484 22.9002 17.7312 22.9004 15.374V6.62402C22.9004 4.26675 20.9823 2.34863 18.625 2.34863H6.125ZM28.7451 4.89453C28.4935 4.76877 28.21 4.79341 27.9834 4.95898L24.3486 8.63574V13.3291L28.0469 17.0244C28.2038 17.1333 28.4863 17.1647 28.7441 17.0352L28.834 16.9824C29.0329 16.847 29.1484 16.6298 29.1484 16.3809L29.1504 5.54883L29.1426 5.44434C29.1148 5.2403 29.0062 5.06344 28.8359 4.94727L28.7451 4.89453Z" stroke="#212121" stroke-opacity="0.5" stroke-width="0.2"/>
</svg>
