<svg width="42" height="43" viewBox="0 0 42 43" fill="none" xmlns="http://www.w3.org/2000/svg">
<path d="M41.1587 29.3748C41.7095 26.6727 42 23.8747 42 21.0082C42 18.1417 41.7095 15.3437 41.1587 12.6417C40.2982 6.64009 35.6093 1.87446 29.6461 0.898864C26.8591 0.30967 23.9706 0 21.0082 0C18.0458 0 15.1574 0.30967 12.3703 0.898864C6.50307 1.85802 1.87172 6.48388 0.901604 12.3484C0.309669 15.1409 0 18.0376 0 21.0082C0 23.9789 0.312409 26.8755 0.901604 29.668C1.8635 35.4997 6.451 40.1064 12.2717 41.1011C15.0889 41.704 18.0102 42.0192 21.0055 42.0192C24.0008 42.0192 26.9248 41.7013 29.7393 41.1011C35.6614 40.0899 40.3037 35.3435 41.1587 29.3748Z" fill="url(#paint0_linear_3_3211)"/>
<path d="M32.5751 16.9071C32.9089 17.1036 32.9227 17.5541 32.6618 17.8404C32.36 18.1716 31.8118 18.1428 31.4098 17.9448C31.3894 17.9348 31.3686 17.9249 31.3476 17.9153C31.0396 17.7698 30.7273 17.6971 30.4108 17.6971C29.9916 17.6971 29.6194 17.8041 29.2943 18.0179C28.9692 18.2233 28.8066 18.5313 28.8066 18.9419C28.8066 19.1473 28.8408 19.3227 28.9093 19.4681C28.9863 19.605 29.1146 19.7291 29.2943 19.8403C29.4825 19.9515 29.6579 20.0371 29.8204 20.0969C29.983 20.1568 30.2226 20.2381 30.5391 20.3408C30.8386 20.4349 31.0824 20.5162 31.2706 20.5846C31.4674 20.6531 31.6984 20.7643 31.9636 20.9183C32.2374 21.0637 32.4513 21.222 32.6053 21.3931C32.7678 21.5642 32.9047 21.7909 33.0159 22.0733C33.1357 22.3471 33.1956 22.6551 33.1956 22.9973C33.1956 23.9298 32.8791 24.6485 32.2459 25.1533C31.6214 25.6495 30.8343 25.8976 29.8846 25.8976C29.2772 25.8976 28.6911 25.7864 28.1264 25.5639C27.8186 25.4361 27.5421 25.2806 27.2972 25.0977C26.9708 24.8539 27.0008 24.3824 27.2986 24.1045C27.6305 23.7947 28.1607 23.8525 28.5408 24.101C28.6247 24.1559 28.7133 24.2072 28.8066 24.2549C29.1745 24.4346 29.5424 24.5244 29.9103 24.5244C30.3466 24.5244 30.7273 24.4132 31.0524 24.1908C31.3861 23.9683 31.5529 23.6304 31.5529 23.1769C31.5529 23.0229 31.5316 22.8861 31.4888 22.7663C31.446 22.6379 31.3647 22.5224 31.2449 22.4198C31.1337 22.3171 31.0353 22.2358 30.9498 22.1759C30.8642 22.1075 30.7102 22.0348 30.4878 21.9578C30.2739 21.8722 30.1199 21.8123 30.0258 21.7781C29.9317 21.7439 29.7434 21.684 29.4611 21.5984C29.136 21.4958 28.8579 21.3888 28.6269 21.2776C28.3959 21.1664 28.1564 21.0167 27.9083 20.8284C27.6687 20.6317 27.4848 20.3836 27.3564 20.0841C27.2281 19.7761 27.1639 19.4211 27.1639 19.0189C27.1639 18.1548 27.4891 17.4961 28.1393 17.0426C28.7981 16.5806 29.5809 16.3496 30.4878 16.3496C30.9669 16.3496 31.4417 16.4352 31.9123 16.6063C32.1513 16.6874 32.3723 16.7876 32.5751 16.9071Z" fill="white"/>
<path d="M16.1191 21.0979C16.1191 19.6606 16.5726 18.5099 17.4795 17.6458C18.3949 16.7817 19.5628 16.3496 20.983 16.3496C22.4203 16.3496 23.5967 16.7817 24.5121 17.6458C25.4276 18.5099 25.8853 19.6606 25.8853 21.0979C25.8853 22.5096 25.4233 23.6646 24.4993 24.5629C23.5839 25.4527 22.4118 25.8976 20.983 25.8976C19.5713 25.8976 18.4078 25.4527 17.4923 24.5629C16.5769 23.6646 16.1191 22.5096 16.1191 21.0979ZM17.8773 21.0979C17.8773 22.0733 18.1682 22.8775 18.75 23.5106C19.3318 24.1352 20.0804 24.4474 20.9958 24.4474C21.9198 24.4474 22.6727 24.1352 23.2545 23.5106C23.8363 22.8775 24.1271 22.0733 24.1271 21.0979C24.1271 20.1483 23.8363 19.3569 23.2545 18.7238C22.6813 18.0907 21.9284 17.7741 20.9958 17.7741C20.0718 17.7741 19.3189 18.0907 18.7371 18.7238C18.1639 19.3569 17.8773 20.1483 17.8773 21.0979Z" fill="white"/>
<path d="M14.3153 16.9071C14.6491 17.1036 14.6629 17.5541 14.4021 17.8404C14.1003 18.1716 13.552 18.1428 13.15 17.9448C13.1296 17.9348 13.1089 17.9249 13.0878 17.9153C12.7798 17.7698 12.4676 17.6971 12.151 17.6971C11.7318 17.6971 11.3596 17.8041 11.0345 18.0179C10.7094 18.2233 10.5468 18.5313 10.5468 18.9419C10.5468 19.1473 10.5811 19.3227 10.6495 19.4681C10.7265 19.605 10.8548 19.7291 11.0345 19.8403C11.2227 19.9515 11.3981 20.0371 11.5607 20.0969C11.7232 20.1568 11.9628 20.2381 12.2793 20.3408C12.5788 20.4349 12.8226 20.5162 13.0108 20.5846C13.2076 20.6531 13.4386 20.7643 13.7038 20.9183C13.9776 21.0637 14.1915 21.222 14.3455 21.3931C14.5081 21.5642 14.645 21.7909 14.7562 22.0733C14.876 22.3471 14.9358 22.6551 14.9358 22.9973C14.9358 23.9298 14.6193 24.6485 13.9862 25.1533C13.3616 25.6495 12.5745 25.8976 11.6248 25.8976C11.0174 25.8976 10.4313 25.7864 9.86668 25.5639C9.5588 25.4361 9.28238 25.2806 9.03743 25.0977C8.71108 24.8539 8.74102 24.3824 9.03881 24.1045C9.37076 23.7947 9.90097 23.8525 10.281 24.101C10.3649 24.1559 10.4536 24.2072 10.5468 24.2549C10.9147 24.4346 11.2826 24.5244 11.6505 24.5244C12.0868 24.5244 12.4676 24.4132 12.7927 24.1908C13.1263 23.9683 13.2932 23.6304 13.2932 23.1769C13.2932 23.0229 13.2718 22.8861 13.229 22.7663C13.1862 22.6379 13.105 22.5224 12.9852 22.4198C12.874 22.3171 12.7756 22.2358 12.69 22.1759C12.6045 22.1075 12.4505 22.0348 12.228 21.9578C12.0141 21.8722 11.8601 21.8123 11.766 21.7781C11.6719 21.7439 11.4837 21.684 11.2013 21.5984C10.8762 21.4958 10.5982 21.3888 10.3672 21.2776C10.1362 21.1664 9.89663 21.0167 9.64851 20.8284C9.40896 20.6317 9.22501 20.3836 9.09668 20.0841C8.96835 19.7761 8.90418 19.4211 8.90418 19.0189C8.90418 18.1548 9.22929 17.4961 9.87951 17.0426C10.5383 16.5806 11.3211 16.3496 12.228 16.3496C12.7071 16.3496 13.182 16.4352 13.6525 16.6063C13.8916 16.6874 14.1125 16.7876 14.3153 16.9071Z" fill="white"/>
<defs>
<linearGradient id="paint0_linear_3_3211" x1="6" y1="35.7163" x2="49.0043" y2="-0.835298" gradientUnits="userSpaceOnUse">
<stop offset="0.00497425" stop-color="#FF5245"/>
<stop offset="0.9962" stop-color="#EE0029"/>
</linearGradient>
</defs>
</svg>
