<svg width="31" height="28" viewBox="0 0 31 28" fill="none" xmlns="http://www.w3.org/2000/svg">
<path d="M14.2912 17.7917C14.512 17.8314 14.7396 17.7825 14.9246 17.6555C15.1096 17.5285 15.237 17.3337 15.2793 17.1134C15.3352 16.8255 15.3639 16.5329 15.365 16.2397C15.365 14.2349 14.1077 12.4947 12.2801 11.648C12.6804 11.2973 13.0013 10.8652 13.2213 10.3806C13.4413 9.89603 13.5553 9.37005 13.5557 8.83785C13.5557 6.76003 11.8456 5.06982 9.74319 5.06982C7.64076 5.06982 5.93069 6.76003 5.93069 8.83785C5.9312 9.37488 6.0473 9.90551 6.2711 10.3937C6.49491 10.8819 6.82117 11.3162 7.22773 11.667C5.41918 12.5193 4.17773 14.2492 4.17773 16.2412C4.17945 16.5331 4.2079 16.8243 4.26272 17.111C4.29884 17.3055 4.40181 17.4812 4.55381 17.6079C4.70581 17.7345 4.89729 17.804 5.09512 17.8044C5.14683 17.8047 5.19844 17.7999 5.24921 17.7901C5.35868 17.7699 5.46312 17.7284 5.55654 17.6678C5.64996 17.6073 5.73054 17.529 5.79368 17.4373C5.85681 17.3456 5.90127 17.2424 5.92451 17.1335C5.94774 17.0246 5.9493 16.9123 5.9291 16.8028C5.89308 16.6177 5.87394 16.4298 5.87191 16.2412C5.87191 14.3413 7.61931 12.7965 9.77258 12.7965C11.9258 12.7965 13.6724 14.3413 13.6724 16.2412C13.6706 16.4295 13.6515 16.6172 13.6153 16.802C13.5946 16.9114 13.5956 17.0238 13.6184 17.1327C13.6412 17.2417 13.6852 17.3451 13.748 17.437C13.8108 17.5289 13.8911 17.6076 13.9843 17.6684C14.0775 17.7293 14.1818 17.7712 14.2912 17.7917ZM9.74319 6.76718C10.9108 6.76718 11.8615 7.69807 11.8615 8.84102C11.8615 9.98398 10.9084 10.9157 9.74319 10.9157C8.57799 10.9157 7.62487 9.98318 7.62487 8.83943C7.62487 7.69568 8.57799 6.76559 9.74319 6.76559V6.76718Z" fill="white"/>
<path d="M24.9443 6.47008L19.3471 11.9315L17.3948 9.97678C17.2346 9.82431 17.0212 9.74046 16.8001 9.74313C16.579 9.74581 16.3677 9.83479 16.2113 9.9911C16.0549 10.1474 15.9658 10.3586 15.963 10.5797C15.9601 10.8009 16.0438 11.0143 16.1962 11.1745L19.3344 14.3127L26.1294 7.68293C26.2902 7.5261 26.3821 7.3118 26.385 7.08718C26.3878 6.86255 26.3013 6.646 26.1445 6.48517C25.9876 6.32434 25.7733 6.23239 25.5487 6.22956C25.3241 6.22673 25.1075 6.31325 24.9467 6.47008H24.9443Z" fill="white"/>
<path d="M29.6533 6.77831C29.8779 6.7781 30.0933 6.68871 30.2521 6.5298C30.4108 6.37089 30.5 6.15545 30.5 5.93082V3.38915C30.4992 2.49069 30.1419 1.62925 29.5067 0.993869C28.8715 0.358485 28.0101 0.00105143 27.1116 0H3.38915C2.49062 0.00105104 1.62918 0.358459 0.993821 0.993821C0.358459 1.62918 0.00105104 2.49062 0 3.38915V19.4866C0.00105143 20.3851 0.358485 21.2465 0.993869 21.8817C1.62925 22.5169 2.49069 22.8742 3.38915 22.875H9.91329C10.0247 22.8748 10.1351 22.8967 10.238 22.9394C10.3409 22.982 10.4344 23.0447 10.513 23.1236L14.0514 26.6621C14.2088 26.8195 14.3957 26.9443 14.6013 27.0295C14.807 27.1147 15.0274 27.1586 15.25 27.1586C15.4726 27.1586 15.693 27.1147 15.8987 27.0295C16.1043 26.9443 16.2912 26.8195 16.4486 26.6621L19.987 23.1236C20.1462 22.9651 20.3613 22.8758 20.5859 22.875H27.1116C28.01 22.8739 28.8712 22.5166 29.5064 21.8814C30.1416 21.2462 30.4989 20.385 30.5 19.4866V10.1667C30.4933 9.9465 30.4011 9.7376 30.2429 9.58424C30.0848 9.43089 29.8732 9.34512 29.6529 9.34512C29.4326 9.34512 29.221 9.43089 29.0629 9.58424C28.9048 9.7376 28.8126 9.9465 28.8058 10.1667V19.4866C28.8052 19.9358 28.6265 20.3663 28.3089 20.6839C27.9913 21.0015 27.5608 21.1802 27.1116 21.1808H20.5859C20.2523 21.1795 19.9218 21.2444 19.6134 21.3716C19.3051 21.4988 19.0249 21.6858 18.7893 21.9219L15.25 25.4643L11.7107 21.9219C11.4752 21.6852 11.1951 21.4975 10.8865 21.3698C10.578 21.242 10.2472 21.1767 9.91329 21.1776H3.38915C2.93996 21.1772 2.50928 20.9986 2.19165 20.681C1.87402 20.3633 1.69539 19.9327 1.69497 19.4835V3.38915C1.69539 2.93996 1.87402 2.50928 2.19165 2.19165C2.50928 1.87402 2.93996 1.69539 3.38915 1.69497H27.1116C27.5608 1.6956 27.9913 1.8743 28.3089 2.19188C28.6265 2.50947 28.8052 2.94002 28.8058 3.38915V5.93082C28.8058 6.15559 28.8951 6.37115 29.054 6.53008C29.213 6.68902 29.4285 6.77831 29.6533 6.77831Z" fill="white"/>
</svg>
