<svg width="25" height="30" viewBox="0 0 25 30" fill="none" xmlns="http://www.w3.org/2000/svg">
<path d="M21.2494 17.3323V5.02036C21.2494 4.83316 21.1894 4.58296 21.0622 4.45817L17.3123 0.708195C17.1875 0.583396 16.8749 0.520996 16.6871 0.520996H1.87499C0.812394 0.520996 0 1.33339 0 2.39598V26.145C0 27.2076 0.812394 28.02 1.87499 28.02H14.9999C16.0625 28.77 17.3123 29.2698 18.7499 29.2698C22.1872 29.2698 25 26.4576 25 23.0196C24.9994 20.52 23.437 18.3325 21.2494 17.3323ZM17.4995 2.70738L19.1242 4.33217H18.1247C17.7497 4.33217 17.4995 4.08197 17.4995 3.70697V2.70738ZM1.87499 26.8326C1.49999 26.8326 1.24979 26.5824 1.24979 26.2074V2.45778C1.24979 2.08278 1.49999 1.83259 1.87499 1.83259H16.2497V3.70757C16.2497 4.77016 17.0621 5.58256 18.1247 5.58256H19.9996V16.9573C19.5871 16.8817 19.1692 16.8399 18.7499 16.8325C15.3125 16.8325 12.4997 19.6452 12.4997 23.0826C12.4997 24.5226 12.9995 25.77 13.7495 26.8326H1.87499ZM18.7499 28.0824C17.761 28.0824 16.7943 27.7891 15.9721 27.2398C15.1499 26.6904 14.5091 25.9095 14.1307 24.9959C13.7523 24.0824 13.6532 23.0771 13.8462 22.1072C14.0391 21.1374 14.5153 20.2465 15.2145 19.5473C15.9137 18.848 16.8046 18.3718 17.7744 18.1789C18.7443 17.986 19.7496 18.085 20.6632 18.4634C21.5768 18.8419 22.3576 19.4827 22.907 20.3049C23.4564 21.1271 23.7496 22.0938 23.7496 23.0826C23.7457 24.4074 23.2176 25.6768 22.2808 26.6136C21.3441 27.5504 20.0747 28.0784 18.7499 28.0824Z" fill="white"/>
<path d="M4.99824 9.33291H10.6232C10.9982 9.33291 11.2484 9.08271 11.2484 8.70771C11.2484 8.33272 10.9982 8.08252 10.6232 8.08252H4.99824C4.62324 8.08252 4.37305 8.33272 4.37305 8.70771C4.37305 9.08271 4.62324 9.33291 4.99824 9.33291Z" fill="white"/>
<path d="M4.99824 12.4578H16.2482C16.6231 12.4578 16.8733 12.2076 16.8733 11.8326C16.8733 11.4576 16.6231 11.208 16.2482 11.208H4.99824C4.62324 11.208 4.37305 11.4582 4.37305 11.8332C4.37305 12.2082 4.62324 12.4578 4.99824 12.4578Z" fill="white"/>
<path d="M14.3732 14.9577C14.3732 14.5827 14.123 14.3325 13.748 14.3325H4.99824C4.62324 14.3325 4.37305 14.5827 4.37305 14.9577C4.37305 15.3327 4.62324 15.5829 4.99824 15.5829H13.748C14.123 15.5829 14.3732 15.3327 14.3732 14.9577Z" fill="white"/>
<path d="M20.8739 20.6447C20.5613 20.5199 20.1863 20.6447 20.0615 20.8948L18.5615 23.8948L17.3117 22.645C17.2545 22.5868 17.1862 22.5404 17.111 22.5087C17.0357 22.4769 16.9549 22.4604 16.8732 22.4601C16.7915 22.4597 16.7106 22.4755 16.6351 22.5066C16.5595 22.5377 16.4909 22.5835 16.4331 22.6412C16.3754 22.699 16.3296 22.7676 16.2985 22.8432C16.2674 22.9187 16.2516 22.9996 16.252 23.0813C16.2523 23.163 16.2688 23.2438 16.3006 23.3191C16.3323 23.3943 16.3787 23.4626 16.4369 23.5198L18.3119 25.3972C18.3669 25.4583 18.4344 25.5068 18.51 25.5392C18.5855 25.5716 18.6671 25.5872 18.7493 25.585H18.8741C19.0619 25.525 19.2491 25.3978 19.3115 25.2724L21.1841 21.52C21.244 21.361 21.2458 21.1859 21.189 21.0256C21.1322 20.8654 21.0206 20.7305 20.8739 20.6447Z" fill="white"/>
</svg>
