<svg width="22" height="22" viewBox="0 0 22 22" fill="none" xmlns="http://www.w3.org/2000/svg">
<path d="M11 22C4.93442 22 0 17.0656 0 11C0 4.93442 4.93442 0 11 0C17.0656 0 22 4.93442 22 11C22 17.0656 17.0656 22 11 22ZM11 1.83333C5.9455 1.83333 1.83333 5.9455 1.83333 11C1.83333 16.0545 5.9455 20.1667 11 20.1667C16.0545 20.1667 20.1667 16.0545 20.1667 11C20.1667 5.9455 16.0545 1.83333 11 1.83333ZM15.5833 11C15.5833 10.4931 15.1736 10.0833 14.6667 10.0833H11.9167V5.5C11.9167 4.99308 11.506 4.58333 11 4.58333C10.494 4.58333 10.0833 4.99308 10.0833 5.5V11C10.0833 11.5069 10.494 11.9167 11 11.9167H14.6667C15.1736 11.9167 15.5833 11.5069 15.5833 11Z" fill="#3A81E1"/>
</svg>
