<svg width="22" height="16" viewBox="0 0 22 16" fill="none" xmlns="http://www.w3.org/2000/svg">
<path d="M20.9944 2.99282C20.3748 2.68299 19.6442 2.74807 19.0905 3.16515C19.0548 3.19174 19.0208 3.22199 18.9897 3.25315L17.3791 4.8784C17.1857 2.52715 15.2332 0.667237 12.8333 0.667237H4.58333C2.05608 0.66632 0 2.7224 0 5.24965V10.7497C0 13.2769 2.05608 15.333 4.58333 15.333H12.8333C15.2432 15.333 17.204 13.4566 17.3818 11.0916L18.9915 12.6994C19.0227 12.7297 19.0548 12.7572 19.0896 12.7837C19.4123 13.0257 19.7936 13.1486 20.1786 13.1486C20.4563 13.1486 20.7341 13.0853 20.9944 12.9552C21.615 12.6453 22 12.0211 22 11.329V4.62082C22 3.9269 21.615 3.30265 20.9944 2.99282ZM12.8333 13.4997H4.58333C3.06717 13.4997 1.83333 12.2658 1.83333 10.7497V5.24965C1.83333 3.73349 3.06717 2.49965 4.58333 2.49965H12.8333C14.3495 2.49965 15.5833 3.73349 15.5833 5.24965V10.7497C15.5833 12.2658 14.3495 13.4997 12.8333 13.4997ZM17.4167 8.53407V7.44415L20.1667 4.66849L20.1896 11.3033L17.4167 8.53315V8.53407Z" fill="url(#paint0_linear_3_13583)"/>
<defs>
<linearGradient id="paint0_linear_3_13583" x1="22" y1="3.66705" x2="9.30766" y2="14.5361" gradientUnits="userSpaceOnUse">
<stop stop-color="#3ABAEB"/>
<stop offset="1" stop-color="#4D66E2"/>
</linearGradient>
</defs>
</svg>
