<svg width="25" height="17" viewBox="0 0 25 17" fill="none" xmlns="http://www.w3.org/2000/svg">
<path d="M23.8575 2.64273C23.1533 2.29064 22.3231 2.3646 21.6939 2.83856C21.6533 2.86877 21.6147 2.90315 21.5793 2.93856L19.7491 4.78545C19.5293 2.11356 17.3105 3.48173e-07 14.5834 3.48173e-07H5.20837C2.33648 -0.00104133 0 2.33544 0 5.20733V11.4574C0 14.3293 2.33648 16.6658 5.20837 16.6658H14.5834C17.322 16.6658 19.5501 14.5334 19.7522 11.8459L21.5814 13.673C21.6168 13.7074 21.6533 13.7386 21.6929 13.7689C22.0595 14.0439 22.4929 14.1834 22.9304 14.1834C23.246 14.1834 23.5616 14.1116 23.8575 13.9636C24.5627 13.6116 25.0002 12.9022 25.0002 12.1157V4.49274C25.0002 3.7042 24.5627 2.99481 23.8575 2.64273ZM14.5834 14.5824H5.20837C3.48544 14.5824 2.08335 13.1803 2.08335 11.4574V5.20733C2.08335 3.4844 3.48544 2.08231 5.20837 2.08231H14.5834C16.3064 2.08231 17.7085 3.4844 17.7085 5.20733V11.4574C17.7085 13.1803 16.3064 14.5824 14.5834 14.5824ZM19.7918 8.93965V7.7011L22.9168 4.54691L22.9429 12.0866L19.7918 8.93861V8.93965Z" fill="#3A81E1"/>
</svg>
